<svg width="61" height="65" viewBox="0 0 61 65" fill="none" xmlns="http://www.w3.org/2000/svg">
<path d="M44.9872 29.0086L45.0113 28.7409L44.8607 27.6857L44.6163 26.6301L44.6014 26.369L44.2613 25.319L43.8236 24.2705L43.7743 24.0231L43.2381 22.985L43.1564 22.7476L42.5188 21.7259L41.7595 20.7234L41.6555 20.5109L40.7606 19.5572L40.6351 19.3616L39.5906 18.4764L39.4503 18.3005L39.2858 18.1271L38.11 17.3516L37.9423 17.2008L36.6865 16.5403L36.524 16.4133L36.3433 16.2892L35.1149 15.7846L34.9497 15.6839L34.7704 15.586L33.6481 15.2505L33.4927 15.1743L33.3265 15.1008L33.1498 15.0301L32.9632 14.9625L32.0884 14.8256L31.9373 14.7753L31.7766 14.7281L31.609 14.6836L31.4375 14.6414L31.2604 14.602L30.7119 14.6198L30.5675 14.5954L30.4174 14.5732L30.277 14.548L30.1358 14.5255L29.9814 14.5113L29.8226 14.4994L29.6694 14.4839L29.5169 14.4713L29.3584 14.4676L29.197 14.4665L29.0368 14.4617L28.8788 14.4595L28.7225 14.4663L28.5647 14.476L28.4036 14.4819L28.2463 14.4902L28.098 14.5074L27.9498 14.5273L27.7942 14.5439L27.6436 14.5626L27.509 14.5893L27.3762 14.6186L27.2318 14.6451L26.6432 14.6326L26.4685 14.6734L26.3022 14.7178L26.1421 14.7651L25.9865 14.8143L25.8384 14.8661L25.7007 14.9208L24.7538 15.0848L24.5852 15.1577L24.4274 15.2333L24.2804 15.3114L23.1308 15.6619L22.9626 15.7619L22.8089 15.8647L22.6701 15.9699L21.39 16.5119L21.2417 16.641L19.9674 17.3179L19.8166 17.4707L19.688 17.626L18.4806 18.437L18.3608 18.6146L17.3063 19.5135L17.2029 19.7106L16.3026 20.6759L16.2219 20.8897L15.4592 21.9021L15.4064 22.1297L14.7638 23.1705L14.7427 23.4094L14.2043 24.4635L13.7658 25.5177L13.7801 25.7731L13.44 26.8332L13.1963 27.8918L13.2493 28.1564L13.0995 29.2162L13.0371 30.2732L13.1293 30.5402L13.1478 31.5943L13.2404 32.6448L13.3699 32.9081L13.532 33.9523L13.7738 34.9915L13.9367 35.2455L14.2675 36.2728L14.4626 36.5185L14.8918 37.5299L15.115 37.7646L15.6455 38.756L16.2686 39.7362L16.504 39.9479L17.1861 40.908L17.918 41.8612L18.1536 42.0452L18.8964 42.982L19.634 43.9198L19.4307 43.7607L20.1439 44.7166L20.7819 45.6827L20.627 45.5435L21.1695 46.525L21.0435 46.3924L21.4722 47.3456L21.3711 47.2183L21.6729 48.0896L21.5936 47.9658L21.7554 48.7014L21.6952 48.5792L21.6528 48.4561L21.6724 49.0169L21.6477 48.8936L21.6449 48.8421L21.6501 48.8343L21.6449 48.8418L21.6408 48.77L21.6289 48.8262L21.5636 48.957L21.5042 49.0415L21.4186 49.1681L21.3024 49.3464L21.2342 49.4763L21.1531 49.6385L21.1032 49.7707L21.0723 49.9034L21.0225 50.0558L21.0107 50.19L20.9884 50.3375L20.996 50.4718L21.0228 50.6062L21.0256 50.7558L21.0717 50.8894L21.1369 51.022L21.1693 51.1841L21.2531 51.3149L21.3211 51.5007L21.4228 51.6288L21.5322 51.8493L21.6505 51.9738L21.7978 52.2361L21.9497 52.5349L21.8361 52.4155L21.7399 52.2944L21.8563 52.6228L21.7789 52.5022L21.7189 52.3804L21.751 52.722L21.7087 52.5998L21.6841 52.4771L21.6774 52.3543L21.6881 52.2313L21.6562 52.3555L21.6143 52.4312L21.4584 52.6394L21.2692 52.8717L21.1294 53.0662L21.0397 53.1991L20.9692 53.3334L20.8778 53.5013L20.8261 53.6382L20.7941 53.7757L20.745 53.9248L20.7327 54.0635L20.7405 54.2023L20.726 54.3412L20.7538 54.48L20.8014 54.6179L20.8158 54.756L20.8831 54.8928L20.9701 55.0284L21.018 55.1745L21.1236 55.3077L21.2485 55.4389L21.3357 55.6011L21.4776 55.7287L21.6377 55.8537L21.7684 56.0396L21.9432 56.1596L22.1158 56.3773L21.9454 56.2602L22.1332 56.5159L21.9839 56.3994L21.8516 56.2803L22.0125 56.5748L21.9 56.4564L21.8047 56.3364L21.7267 56.2148L21.8106 56.5428L21.751 56.4215L21.7087 56.2993L21.6842 56.1766L21.652 56.5203L21.645 56.3968L21.6559 56.2733L21.6845 56.1503L21.6039 56.3762L21.5066 56.5651L21.3666 56.8115L21.2989 56.9403L21.1862 57.1659L21.1365 57.2976L21.0669 57.4866L21.036 57.6201L21.0241 57.754L20.9913 57.918L20.9988 58.0525L21.0256 58.1866L21.0229 58.3366L21.0689 58.4701L21.0914 58.6153L21.1566 58.7476L21.2406 58.8787L21.292 59.0197L21.3941 59.1483L21.5147 59.2751L21.6531 59.3996L21.7367 59.5326L21.8912 59.6533L22.063 59.7712L22.2514 59.8863L22.4562 59.9979L22.5685 60.1168L22.7852 60.223L23.0171 60.3256L23.2634 60.424L23.5236 60.5183L23.6546 60.6225L23.9215 60.7101L24.079 60.8261L23.8203 60.7411L23.5742 60.6519L23.7824 60.8155L23.5584 60.7258L23.3473 60.6326L23.6086 60.8734L23.4205 60.7812L23.2457 60.6859L23.5614 61.0237L23.9163 61.4258L24.3133 61.8583L24.4557 61.9359L24.8845 62.3577L25.0236 62.4257L25.1722 62.4914L25.6097 62.8639L25.7497 62.9199L25.8975 62.9734L26.0529 63.0244L26.4469 63.3275L26.5878 63.3694L26.7347 63.409L27.0747 63.6438L27.2044 63.6753L27.3384 63.7046L27.4765 63.7316L27.6183 63.7563L27.8404 63.9111L27.9626 63.9298L28.0873 63.9465L28.2143 63.9612L28.3433 63.9736L28.4738 63.9838L28.6057 63.9918L28.7386 63.9977L28.8721 64.0014L29.0061 64.0027L29.14 64.0019L29.2737 63.9987L29.4068 63.9934L29.5388 63.9858L29.6698 63.976L29.799 63.964L29.9266 63.95L30.0518 63.9337L30.1746 63.9155L30.2946 63.8952L30.4116 63.8728L30.6732 63.7108L30.8082 63.682L30.9389 63.651L31.0649 63.6179L31.1859 63.5825L31.5642 63.3371L31.7004 63.2933L31.83 63.2473L32.26 62.9321L32.4018 62.8766L32.5353 62.8188L32.9861 62.4405L33.1273 62.373L33.2586 62.3031L33.698 61.8758L33.8316 61.7963L34.2373 61.3586L34.3696 61.2702L34.7414 60.8573L34.5999 60.952L34.9225 60.6099L34.7586 60.7073L34.5809 60.802L34.8493 60.5577L34.6489 60.6537L34.435 60.7461L34.6502 60.5799L34.4142 60.6722L34.5861 60.5513L34.8296 60.456L34.9713 60.3479L35.2065 60.2462L35.4267 60.1408L35.6315 60.0318L35.8203 59.9195L35.9385 59.7971L36.1141 59.6798L36.2724 59.5597L36.4134 59.4371L36.498 59.3031L36.6226 59.1767L36.7289 59.0485L36.8164 58.9187L36.8684 58.7771L36.9377 58.6451L36.988 58.5121L37.0105 58.3664L37.0416 58.2324L37.0535 58.0979L37.0506 57.9481L37.0432 57.8136L37.0163 57.6794L36.9835 57.5164L36.9377 57.3834L36.8684 57.1953L36.8039 57.0644L36.692 56.8402L36.5386 56.5702L36.435 56.3693L36.3826 56.2223L36.3606 55.9898L36.3973 55.9444L36.5406 55.8196L36.6763 55.6298L36.8038 55.5005L36.9124 55.3692L37.002 55.2043L37.0929 55.0699L37.1642 54.9341L37.2128 54.7867L37.2648 54.649L37.2969 54.5106L37.3114 54.3721L37.3237 54.2332L37.3159 54.0943L37.3014 53.9558L37.2737 53.8172L37.2247 53.6687L37.1773 53.5317L37.1104 53.3957L37.0195 53.2289L36.9341 53.0956L36.7938 52.9006L36.6911 52.7713L36.5749 52.6286L36.445 52.455L36.3894 52.3546L36.3737 52.2935L36.3815 52.2105L36.4295 52.0758L36.3647 52.1993L36.3537 52.2157L36.3479 52.1934L36.438 52.0182L36.5893 51.7514L36.6998 51.5294L36.7871 51.4001L36.8556 51.2134L36.9249 51.0817L36.975 50.9488L37.0078 50.7858L37.0389 50.6517L37.0507 50.5173L37.0535 50.3675L37.0461 50.233L37.0238 50.0858L36.9969 49.952L36.9473 49.8003L36.9016 49.668L36.8369 49.5365L36.7563 49.3755L36.6737 49.2466L36.5584 49.0697L36.4728 48.9481L36.4403 48.8829L36.4041 48.713L36.4181 48.3177L36.5453 47.7431L36.4978 47.8687L36.8048 46.9884L36.7367 47.1182L37.1748 46.1522L37.083 46.288L37.6402 45.2901L37.5215 45.4335L38.1797 44.4479L38.0298 44.6001L38.7533 43.6349L39.5181 42.6749L40.2885 41.7154L41.0311 40.7527L41.2318 40.5498L41.9353 39.5691L42.5663 38.5807L42.7549 38.3522L43.3005 37.3448L43.4622 37.1043L43.9017 36.0798L44.0328 35.8295L44.3691 34.7922L44.6126 33.75L44.7121 33.4879L44.8757 32.4387L44.9686 31.387L45.0309 31.1194L45.0494 30.0648L44.9872 29.0086ZM21.6413 52.4134L21.6028 52.5631L21.6316 52.4391L21.6413 52.4134ZM36.3111 52.4076L36.3329 52.3462L36.3337 52.3474L36.3111 52.4076ZM36.282 52.3214L36.2952 52.2957L36.2974 52.2986L36.282 52.3214ZM36.3253 56.3266L36.2791 56.4485L36.3394 56.2139L36.3477 56.2299L36.3253 56.3266ZM36.3504 52.3036L36.3429 52.3232L36.3416 52.3217L36.349 52.3012L36.3504 52.3036ZM36.3093 52.281L36.3054 52.276L36.3053 52.2759L36.3197 52.2481L36.325 52.2577L36.3093 52.281ZM36.3581 56.1537L36.3562 56.1484L36.3598 56.1346L36.3581 56.1537ZM36.3579 56.1562L36.3537 56.2039L36.3506 56.217L36.342 56.2036L36.3558 56.1502L36.3579 56.1562ZM36.3297 56.1842L36.3018 56.1409L36.3269 56.1896L36.2993 56.242L36.2175 56.3631L36.1184 56.483L36.2813 56.1864L36.1625 56.307L36.3315 56.0799L36.3526 56.1408L36.3297 56.1842ZM36.3573 52.285L36.3548 52.2919L36.3533 52.2892L36.3585 52.2745L36.3587 52.2788L36.3573 52.285ZM21.5547 49.1743L21.5658 49.0494L21.5948 48.9248L21.602 48.9056L21.6166 48.884L21.5547 49.1743ZM21.6249 48.8449L21.6172 48.881L21.6044 48.8992L21.6249 48.8449ZM21.5946 52.467L21.5096 52.6207L21.5754 52.4954L21.5946 52.467ZM36.3645 56.081L36.3605 56.1254L36.3531 56.1397L36.3316 56.0796L36.3571 56.0456L36.3284 56.0705L36.3228 56.0549L36.3282 56.0705L36.2172 56.1672L36.3594 55.991L36.3645 56.081ZM36.35 52.2207L36.3309 52.249L36.3248 52.238L36.3454 52.1979L36.35 52.2207ZM36.4099 48.36L36.3813 48.4836L36.4107 48.3505L36.4099 48.36Z" fill="white"/>
<path d="M29.0508 64.2336C29.5692 63.7728 30.0251 63.3706 30.4763 62.9631C30.556 62.8903 30.6247 62.8065 30.6803 62.7142C31.0094 62.1703 30.9378 61.9658 30.2037 61.5782C30.7487 61.4396 31.2086 61.3275 31.6656 61.2047C31.9325 61.1424 32.1945 61.0606 32.4494 60.9601C32.5564 60.9295 32.656 60.8776 32.7424 60.8076C32.8288 60.7376 32.9001 60.6508 32.9519 60.5525C33.0038 60.4542 33.0352 60.3465 33.0442 60.2359C33.0532 60.1252 33.0396 60.0138 33.0043 59.9085C33.0017 59.528 32.9028 59.1543 32.7165 58.8223C32.5304 58.4901 32.2631 58.2103 31.9395 58.0088C31.8438 57.958 31.7423 57.918 31.6435 57.873L31.7103 57.7047C32.0805 57.4782 32.4392 57.2289 32.8246 57.0321C32.8885 57.0094 32.9467 56.9731 32.9952 56.9259C33.0436 56.8786 33.0813 56.8214 33.1055 56.7582C33.1296 56.695 33.1398 56.6274 33.1353 56.5599C33.1307 56.4924 33.1116 56.4267 33.0792 56.3673C32.9574 55.9792 32.9193 55.5642 32.7882 55.1801C32.6925 54.8788 32.5404 54.5983 32.34 54.3534C32.2746 54.2976 32.2237 54.2268 32.1917 54.1471C32.1598 54.0675 32.1477 53.9811 32.1564 53.8957C32.1652 53.8104 32.1947 53.7284 32.2422 53.6568C32.2897 53.5853 32.354 53.5263 32.4294 53.4849C32.6506 53.3532 32.8157 53.1451 32.8935 52.9001C32.9713 52.655 32.9563 52.3901 32.8514 52.1554C32.6245 51.3734 32.4954 50.5665 32.4673 49.7529C32.4866 48.9115 32.5566 48.072 32.6771 47.2389C32.8684 45.1744 33.9133 43.4301 34.792 41.6227C35.5794 40.0747 36.0439 38.3834 36.157 36.6512C36.2442 35.5463 36.2706 34.4375 36.236 33.3298C36.084 31.6731 35.698 30.0463 35.0898 28.4974C34.1125 26.0482 32.7212 23.7844 30.9765 21.8047C30.3698 21.0561 29.8204 20.2616 29.2263 19.5026C28.6067 18.7108 27.9267 17.9633 27.3459 17.1451C26.9788 16.5912 26.6669 16.0027 26.415 15.3882C26.2604 15.0413 26.5623 14.824 26.8426 14.7869C27.6903 14.6434 28.5481 14.5668 29.408 14.5576C32.2067 14.6564 34.935 15.4586 37.3399 16.8899C39.3068 17.9674 41.006 19.4718 42.3118 21.2921C43.6178 23.1123 44.4971 25.202 44.8849 27.4066C45.6742 31.1727 44.9642 35.0973 42.905 38.3507C42.0052 39.7354 41.0313 41.0709 39.9877 42.3513C39.5447 42.9164 38.9162 43.3324 38.4235 43.8636C36.8537 45.4714 35.6205 47.3748 34.7955 49.4628C33.9705 51.5508 33.5705 53.7816 33.6185 56.0254C33.6556 57.6652 34.0033 59.2831 34.6432 60.7939C34.6961 60.9213 34.721 61.1477 34.6484 61.2263C33.5228 62.5543 32.0379 63.5309 30.3709 64.0397C29.9351 64.1306 29.4944 64.1955 29.0508 64.2336Z" fill="#8FB8E2"/>
<path d="M29.0026 64.5417C28.348 64.5439 27.6983 64.4285 27.0845 64.2013C25.1665 63.4693 23.4752 62.2468 22.1808 60.6566C20.8671 59.1739 20.0805 58.0452 21.2027 56.1849C21.1369 56.0893 21.0658 55.9974 20.9898 55.9096C20.8543 55.7567 20.7349 55.5903 20.6334 55.4132C19.9859 54.4584 20.7216 52.9929 21.1813 52.2547L21.1211 52.1311C20.5832 51.0295 20.1544 50.1527 21.1576 48.7659C21.1798 47.0394 19.9508 45.3628 18.8631 43.8794L18.6035 43.5247L18.0621 42.8523C16.5 41.0594 15.1475 39.0949 14.0309 36.9968C12.2312 33.091 12.0516 28.6342 13.5311 24.5969C15.7913 18.4008 22.17 14.0193 29.0399 13.9492C35.9206 14.0415 42.2879 18.4445 44.5365 24.6584C45.425 27.0857 45.715 29.6907 45.3823 32.2533C45.0496 34.816 44.1039 37.2612 42.6249 39.3828C41.9555 40.3746 41.2325 41.3293 40.4595 42.243C38.9293 44.122 37.3468 46.0644 36.8484 48.4154C36.8237 48.5081 36.8239 48.6057 36.8492 48.6982C36.8743 48.7908 36.9235 48.8751 36.9919 48.9426C37.0091 48.9604 37.0247 48.9797 37.0384 49.0005C37.8595 50.2136 37.4041 51.1405 36.9639 52.0367C36.9237 52.1189 36.8829 52.2025 36.842 52.2877C37.1898 52.5895 37.4513 52.9778 37.6 53.413C37.7487 53.8483 37.7794 54.3151 37.6889 54.7659C37.5633 55.182 37.3498 55.5663 37.0628 55.8932C36.9868 55.9911 36.9116 56.0891 36.8427 56.1892C36.9048 56.3328 36.9759 56.4723 37.0557 56.607C37.2104 56.8577 37.3301 57.1285 37.4113 57.4116C37.81 58.7155 36.8384 59.8484 35.8834 60.4155C35.5361 60.7096 35.2133 61.0313 34.9182 61.3775C33.7971 62.6646 32.376 63.6571 30.7802 64.2677C30.2049 64.4477 29.6056 64.5401 29.0026 64.5417ZM22.0194 52.578C21.5075 53.3569 21.0378 54.4427 21.3877 54.9612C21.4679 55.0992 21.5618 55.2288 21.6681 55.3481C21.8639 55.5591 22.0184 55.8048 22.1234 56.0726C22.1449 56.1359 22.1517 56.2032 22.143 56.2694C22.1345 56.3355 22.1108 56.3989 22.0739 56.4546C21.1159 57.9022 21.4996 58.5609 22.8405 60.0743C24.0401 61.5531 25.6079 62.6918 27.3872 63.3766C28.3911 63.7383 29.4868 63.7585 30.5034 63.4338C31.9547 62.8704 33.2459 61.962 34.265 60.7874C34.6065 60.3883 34.9833 60.0207 35.3907 59.6888C36.1142 59.2561 36.8183 58.4851 36.5616 57.644C36.4976 57.4299 36.4049 57.2255 36.2863 57.0361C36.1488 56.8104 36.0378 56.5697 35.9558 56.3187C35.9265 56.2562 35.9125 56.1877 35.915 56.1188C35.9176 56.05 35.9364 55.9826 35.9701 55.9225C36.0883 55.7261 36.2196 55.5378 36.363 55.3588C36.5743 55.1237 36.7351 54.848 36.8356 54.5485C36.8839 54.2213 36.8423 53.8871 36.7151 53.5816C36.588 53.2761 36.38 53.0108 36.1135 52.8141C36.0322 52.745 35.9788 52.649 35.9629 52.5437C35.9579 52.5187 35.9507 52.4851 35.9464 52.4443C35.9252 52.3905 35.9149 52.3329 35.9161 52.2752C35.9174 52.2173 35.9301 52.1603 35.9536 52.1074C36.0253 51.9493 36.0999 51.7977 36.173 51.6497C36.5868 50.8078 36.8384 50.2958 36.3272 49.5204C36.1738 49.353 36.0625 49.1516 36.0024 48.9329C35.9424 48.7142 35.9352 48.4844 35.9816 48.2624C36.5287 45.6746 38.1793 43.6484 39.7761 41.6887C40.5316 40.7948 41.2386 39.8612 41.8943 38.8922C43.2795 36.8793 44.1665 34.5674 44.4822 32.1463C44.7979 29.7252 44.5334 27.2639 43.7105 24.9645L43.7083 24.9588C41.583 19.0817 35.5499 14.9156 29.0384 14.8276C22.641 14.8934 16.4624 19.1312 14.3564 24.9045C12.9583 28.7198 13.1279 32.9316 14.8282 36.6228C15.9167 38.6569 17.2319 40.562 18.749 42.3017L19.5743 43.361C20.7158 44.9181 22.137 46.8555 22.0337 48.939C22.029 49.0279 21.9978 49.1133 21.9441 49.1844C21.1611 50.2071 21.3813 50.6577 21.9132 51.7456L22.086 52.1025C22.1104 52.1545 22.1248 52.2105 22.1284 52.2677C22.1327 52.3812 22.0937 52.4921 22.0194 52.5781V52.578Z" fill="#0055BA"/>
<path d="M60.0814 25.6801L60.0792 25.6362L60.0762 25.5908L60.0726 25.5461L60.0667 25.4999L60.0615 25.4545L60.0549 25.4084L60.0469 25.363L60.0388 25.3176L60.0285 25.2722L60.019 25.2268L60.0072 25.1828L59.9955 25.1389L59.983 25.0957L59.9698 25.0532L59.9558 25.0122L59.9411 24.9712L59.9257 24.9323L59.8831 24.8891L59.8655 24.8466L59.8471 24.8056L59.8288 24.7668L59.8097 24.7287L59.7899 24.6928L59.7253 24.635L59.7032 24.5976L59.6805 24.5617L59.657 24.5288L59.6342 24.498L59.5461 24.4328L59.5211 24.4014L59.4947 24.3728L59.3853 24.3091L59.3574 24.2812L59.3295 24.2556L59.2003 24.1963L59.1702 24.1728L59.1401 24.1531L58.994 24.104L58.9631 24.0864L58.8045 24.0535L58.7722 24.0388L58.7406 24.0278L58.5644 24.0161L58.5321 24.0081L58.4998 24.0044L58.2685 24.0183L57.9352 24.0623H57.9029L57.4197 24.1392L56.7552 24.2519L55.9424 24.3918L55.0312 24.5508L54.0701 24.7192L53.1082 24.8877L52.197 25.0481L51.385 25.1923L50.7219 25.3125L50.241 25.404L49.9121 25.4765L49.8812 25.4802L49.6573 25.5461L49.6272 25.5541L49.4634 25.6259L49.4355 25.6369L49.4069 25.6515L49.2666 25.7387L49.2409 25.7563L49.1169 25.8552L49.0919 25.8757L48.9854 25.9819L48.9641 26.0038L48.9171 26.0617L48.8577 26.1349L48.8401 26.1613L48.7732 26.2646L48.7571 26.2909L48.7431 26.3195L48.6954 26.4176L48.6822 26.4462L48.6704 26.477L48.6499 26.537L48.6286 26.5993L48.6198 26.63L48.6117 26.6623L48.6044 26.6967L48.5875 26.778L48.5823 26.8087L48.5765 26.8417L48.5728 26.8754L48.5698 26.9098L48.564 26.975L48.5618 27.0057L48.5603 27.038L48.5596 27.0702V27.1024L48.561 27.1361L48.5625 27.1698L48.5654 27.2042L48.5684 27.2386L48.5706 27.2606L48.5713 27.265L48.5721 27.2738L48.5765 27.3082L48.5816 27.3434L48.5823 27.3485L48.5867 27.3778L48.5904 27.3968L48.5933 27.413L48.6014 27.4474L48.6044 27.462L48.6051 27.465L48.6088 27.4818L48.6176 27.5155L48.6264 27.5492L48.6359 27.5821L48.6462 27.6144L48.6572 27.6459L48.6675 27.6766L48.68 27.7066L48.6917 27.7359L48.7042 27.7638L48.7321 27.8238L48.7475 27.8553L48.763 27.8854L48.7784 27.9139L48.7945 27.941L48.8386 28.0128L48.8569 28.0421L48.876 28.0692L48.8951 28.0948L48.9553 28.1695L48.9766 28.1959L48.9979 28.2201L49.0199 28.242L49.0985 28.3182L49.1227 28.3402L49.1462 28.3585L49.2446 28.4339L49.2703 28.4515L49.3878 28.5225L49.415 28.5386L49.5501 28.6016L49.5802 28.6148L49.6088 28.6251L49.7601 28.6763L49.7909 28.6837L49.9524 28.7174L49.9833 28.721L50.161 28.7335H50.1925L50.4246 28.7188L50.4561 28.7152L50.7902 28.6712L51.2733 28.5943L51.9386 28.4815L52.7507 28.3416L53.6626 28.1827L54.6237 28.0143L55.5848 27.8458L56.4953 27.6854L57.3081 27.5411L57.9711 27.421L58.4513 27.3295L58.7803 27.257L58.8119 27.2489L59.0336 27.1837L59.0637 27.172L59.226 27.101L59.2546 27.0856L59.281 27.0673L59.4205 26.9816L59.4455 26.9603L59.4705 26.9354L59.5924 26.8388L59.6137 26.8117L59.7179 26.7084L59.737 26.6806L59.7561 26.6498L59.8383 26.548L59.8545 26.5165L59.8699 26.4828L59.8846 26.4469L59.9463 26.3539L59.958 26.318L59.969 26.2807L59.9786 26.2419L60.0212 26.1584L60.0292 26.121L60.0366 26.0815L60.0425 26.0405L60.0476 25.9987L60.0513 25.9548L60.0777 25.8918L60.0799 25.8508L60.0814 25.8097L60.0821 25.7673V25.7241L60.0814 25.6801Z" fill="white"/>
<path d="M51.1112 28.581C51.7179 28.4484 52.3223 28.3031 52.9321 28.1856C54.6789 27.8488 56.4309 27.5379 58.1736 27.1817C58.552 27.1044 58.9822 26.9848 59.1103 26.5166C59.2417 26.0361 59.0056 25.6948 58.5054 25.7136C57.8635 25.7394 57.2233 25.7988 56.5875 25.8914C55.5578 26.0391 54.5352 26.2363 53.5059 26.3875C52.8243 26.5054 52.1355 26.578 51.4442 26.6048C51.1921 26.5767 50.9495 26.4925 50.7342 26.3587C50.5189 26.2248 50.3364 26.0446 50.2001 25.8312C50.0596 25.6652 50.2377 25.5767 50.4121 25.5455C51.1761 25.4087 51.938 25.2595 52.7026 25.1265C54.5832 24.7993 56.4614 24.4561 58.3474 24.1632C58.6199 24.1172 58.8998 24.1433 59.159 24.239C59.4182 24.3345 59.6477 24.4963 59.8246 24.7081C60.0015 24.92 60.1195 25.1743 60.167 25.4459C60.2144 25.7175 60.1897 25.9968 60.0949 26.2558C60.0218 26.5221 59.8743 26.7623 59.6696 26.9484C59.4651 27.1346 59.2116 27.2589 58.939 27.3071C57.5784 27.5789 56.2122 27.8238 54.8466 28.0696C53.7189 28.2725 52.5888 28.462 51.4595 28.6555C51.3514 28.674 51.2408 28.6774 51.1313 28.6879L51.1112 28.581Z" fill="#8FB8E2"/>
<path d="M50.1961 29.1754C49.7625 29.1786 49.339 29.0438 48.9874 28.7905C48.6358 28.5372 48.3742 28.1787 48.2408 27.7671C48.2443 27.7765 48.205 27.7528 48.1332 27.1914L48.1311 27.1778C48.1039 26.6886 48.2533 26.2058 48.5522 25.8169C48.851 25.4281 49.2795 25.1588 49.7602 25.0579C50.6658 24.8634 51.6503 24.6932 52.6018 24.5293C53.0628 24.4499 53.5189 24.3713 53.9577 24.2912C54.4037 24.216 54.8583 24.1352 55.318 24.0537C56.2695 23.8841 57.2532 23.7097 58.1768 23.583C58.6548 23.5133 59.142 23.6144 59.5526 23.8682C59.9631 24.1221 60.2705 24.5125 60.4203 24.9706C60.4239 24.9816 60.4268 24.9928 60.429 25.0043C60.4427 25.0376 60.4535 25.072 60.4613 25.1072C60.498 25.1989 60.517 25.2967 60.5172 25.3954C60.5326 25.4557 60.5376 25.5181 60.5322 25.58C60.5529 26.0657 60.4005 26.5429 60.1021 26.9272C59.8036 27.3115 59.3783 27.5779 58.9016 27.6792C57.9939 27.8752 57.0087 28.0447 56.0551 28.2092C55.5954 28.2886 55.1416 28.3672 54.7034 28.4466C54.2574 28.5218 53.8029 28.6026 53.3432 28.6841C52.3917 28.8536 51.4079 29.0281 50.4844 29.1547C50.3889 29.1684 50.2926 29.1753 50.1961 29.1754ZM49.008 27.0876C49.022 27.225 49.0453 27.3612 49.0775 27.4954C49.1685 27.7538 49.3457 27.9732 49.5795 28.1168C49.8132 28.2605 50.0895 28.3196 50.3617 28.2843C51.2703 28.1598 52.2454 27.9867 53.189 27.8194C53.6508 27.7371 54.1083 27.6556 54.5507 27.5812C54.9852 27.5018 55.4427 27.4231 55.9052 27.343C56.8495 27.1807 57.8261 27.0118 58.7181 26.8195C58.9777 26.7647 59.2114 26.6244 59.3816 26.4213C59.5517 26.2182 59.6487 25.964 59.6567 25.6994C59.6511 25.6771 59.6473 25.6543 59.6453 25.6315C59.6417 25.6215 59.6381 25.6114 59.6352 25.6007C59.6144 25.5323 59.6107 25.4599 59.6244 25.3897C59.6136 25.3624 59.6055 25.3342 59.6001 25.3054C59.5818 25.2615 59.5672 25.2163 59.5563 25.1701L59.5542 25.1544C59.4491 24.9179 59.2701 24.7218 59.0438 24.5955C58.8176 24.4691 58.5564 24.4193 58.2994 24.4535C57.3908 24.5779 56.4157 24.751 55.4721 24.9184C55.0103 25.0007 54.5528 25.0822 54.1104 25.1566C53.6745 25.236 53.2156 25.3153 52.7516 25.3954C51.8087 25.5579 50.8343 25.7259 49.943 25.9183C49.6746 25.9732 49.434 26.1203 49.2631 26.334C49.0923 26.5477 49.002 26.8145 49.008 27.0876Z" fill="#0055BA"/>
<path d="M53.3035 9.39056L53.2969 9.37884L53.2962 9.23749L53.2866 9.22504L53.2727 9.09541L53.2639 9.08223L53.2389 8.96138L53.2286 8.9482L53.2169 8.93428L53.1846 8.82076L53.1728 8.80684L53.1596 8.79146L53.1221 8.68453L53.1097 8.67062L53.0957 8.65597L53.0575 8.56076L53.0436 8.54611L53.0289 8.53073L53.0157 8.51755L53.0017 8.50363L52.9687 8.43186L52.9525 8.41355L52.9356 8.39524L52.9672 8.46921L52.9511 8.4531L52.9246 8.38572L52.9129 8.37693L52.896 8.35862L52.8776 8.33958L52.863 8.32713L52.8497 8.31614L52.8395 8.28465L52.8233 8.26341L52.8321 8.29783L52.8123 8.27879L52.7954 8.26487L52.78 8.25169L52.7631 8.23411L52.7447 8.2158L52.7242 8.20042L52.7066 8.18577L52.6911 8.17039L52.6743 8.15355L52.653 8.13744L52.6794 8.13377L52.6588 8.12279L52.6331 8.12206L52.6199 8.10814L52.6045 8.09349L52.5839 8.07665L52.5626 8.06127L52.5516 8.05028L52.5391 8.03783L52.5186 8.02245L52.4988 8.0078L52.4305 7.98876L52.4136 7.97484L52.3974 7.96166L52.4804 7.98949L52.4606 7.97484L52.3784 7.94701L52.3607 7.9331L52.3468 7.92211L52.2499 7.89648L52.233 7.88256L52.2161 7.87011L52.1999 7.85839L52.0905 7.83423L52.0736 7.82251L52.0575 7.81152L51.9415 7.79248L51.9253 7.78149L51.8042 7.77197L51.788 7.76172L51.7741 7.75293L51.6434 7.75366L51.6294 7.74561L51.4884 7.76025L51.476 7.75366L51.3232 7.78369L51.1632 7.83056L51.1507 7.82544L50.9884 7.89062L50.9774 7.88769L50.8181 7.97265L50.6609 8.08397L50.6536 8.08324L50.4708 8.2473L50.2292 8.49411L50.2241 8.49631L49.8885 8.85811L49.4362 9.35541L48.8877 9.96183L48.2761 10.6415L47.6329 11.3578L46.9882 12.0741L46.3781 12.7544L45.8333 13.3638L45.3869 13.8662L45.0623 14.2383L44.8428 14.5049L44.6996 14.7034L44.6049 14.8718L44.6027 14.8762L44.5351 15.0439L44.4881 15.2131L44.4595 15.3786L44.4463 15.5354L44.4492 15.665V15.6848L44.4646 15.8181L44.4925 15.944L44.53 16.0663L44.5608 16.144L44.5785 16.1901L44.6122 16.2612L44.6218 16.2824L44.6343 16.308L44.6467 16.33L44.6901 16.4069L44.7363 16.475L44.7605 16.5072L44.7701 16.5197H44.7708L44.7789 16.5299L44.7811 16.5329L44.8318 16.5937L44.8494 16.6127L44.8509 16.6142L44.8729 16.6383L44.878 16.6435L44.8912 16.6574L44.9067 16.672L44.9147 16.6808L45.0124 16.776L45.1012 16.8493L45.1071 16.8537L45.1299 16.872L45.1394 16.8793L45.1534 16.891L45.1695 16.9027L45.1717 16.9042L45.2018 16.9262L45.2106 16.932L45.2217 16.9401L45.2951 16.9892L45.3017 16.9928L45.3039 16.9943L45.3303 17.0104L45.3406 17.0163L45.3487 17.0206L45.4228 17.0595L45.5256 17.1034L45.6424 17.1422L45.6468 17.1437L45.7709 17.1766L45.8964 17.2008L46.0242 17.214L46.0293 17.2147L46.1644 17.2155L46.3083 17.2023L46.4633 17.173L46.6255 17.1268L46.6299 17.1246L46.7937 17.0595L46.953 16.9745L47.1109 16.8632L47.2937 16.6991L47.5353 16.4516L47.8708 16.0898L48.3231 15.5925L48.8701 14.9861L49.4825 14.3064L50.1264 13.5901L50.7696 12.8738L51.3812 12.1934L51.9253 11.5841L52.3725 11.0817L52.6963 10.7096L52.9166 10.443L52.9188 10.4386L53.0619 10.2401L53.1559 10.0717V10.0651L53.2235 9.89811L53.2191 9.88859L53.2668 9.72014L53.2962 9.55535L53.2903 9.54583L53.3035 9.39056Z" fill="white"/>
<path d="M51.37 7.96837C52.0901 7.59275 53.2934 8.32487 53.3758 9.30271C53.3994 9.5379 53.3727 9.77538 53.2972 9.99949C53.2219 10.2236 53.0996 10.4291 52.9386 10.6025C51.1359 12.6132 49.3297 14.6209 47.5201 16.6255C47.2915 16.8476 47.0499 17.0562 46.7969 17.2502C46.949 16.5929 47.2811 15.9906 47.7561 15.5104C48.7087 14.4626 49.6318 13.3883 50.5703 12.3277C51.0232 11.8159 51.4746 11.3021 51.9428 10.8045C52.1192 10.6727 52.2621 10.5014 52.36 10.3043C52.4577 10.1073 52.5078 9.89009 52.5058 9.67018C52.5039 9.45028 52.4502 9.23395 52.349 9.03868C52.2478 8.84331 52.1019 8.67449 51.9232 8.54578C51.7473 8.36524 51.5744 8.18187 51.37 7.96837Z" fill="#8FB8E2"/>
<path d="M45.2688 17.3946C45.1775 17.3945 45.0882 17.3676 45.0121 17.3175C44.9929 17.3093 44.9744 17.2998 44.9568 17.2888C44.9398 17.2782 44.9235 17.2665 44.9081 17.2537C44.8713 17.2287 44.8384 17.1984 44.8105 17.1637C44.7597 17.1306 44.7119 17.0931 44.6679 17.0514C44.6152 16.9574 44.54 16.8777 44.4492 16.8196L44.4047 16.7581C44.3683 16.7228 44.3389 16.6811 44.3179 16.6351C44.3072 16.6192 44.2974 16.6027 44.2886 16.5857L44.2835 16.5778C44.0535 16.1472 43.9747 15.6521 44.0597 15.1715C44.1446 14.691 44.3886 14.2527 44.7525 13.9265C45.3698 13.217 46.0933 12.4131 46.7745 11.655L47.8766 10.4297C48.5456 9.68454 49.2526 8.89776 49.9016 8.19823C50.1964 7.78681 50.6284 7.4934 51.1202 7.37054C51.612 7.24759 52.1317 7.30325 52.5862 7.52736C52.6033 7.53597 52.6191 7.54457 52.6335 7.55309L52.6622 7.5681C52.6874 7.58055 52.7115 7.59547 52.7339 7.6125C52.7828 7.63896 52.8281 7.67164 52.8687 7.70973C52.8847 7.72401 52.8996 7.73957 52.9131 7.75623C52.9872 7.80952 53.044 7.8834 53.0764 7.96854C53.1088 8.05377 53.1153 8.1466 53.0952 8.23549C53.0766 8.30443 53.0414 8.36778 52.9929 8.42024C52.9442 8.4727 52.8836 8.51261 52.8162 8.5366C52.7487 8.56059 52.6764 8.56791 52.6056 8.55793C52.5346 8.54795 52.4672 8.52095 52.409 8.47938C52.3239 8.45183 52.2483 8.40074 52.1911 8.33199C52.1817 8.32338 52.1724 8.31487 52.1638 8.30626C52.1558 8.3004 52.1482 8.29427 52.1409 8.28768L52.1279 8.2798C51.8515 8.17406 51.5472 8.16482 51.2648 8.25335C50.9823 8.34187 50.7382 8.52314 50.572 8.76758C49.9022 9.49137 49.1988 10.2746 48.5328 11.0162L47.4307 12.2421C46.7516 12.9967 46.0317 13.797 45.395 14.5266C45.178 14.7092 45.0233 14.9547 44.9524 15.2289C44.8815 15.5031 44.8978 15.7926 44.9991 16.0572C45.0239 16.0685 45.0469 16.0835 45.0673 16.1015C45.0912 16.1228 45.113 16.1463 45.1325 16.1716C45.1481 16.1818 45.163 16.1931 45.177 16.2052C45.2246 16.2287 45.268 16.2599 45.3053 16.2975C45.3242 16.3158 45.3413 16.336 45.3562 16.3576C45.394 16.3816 45.4287 16.4102 45.4595 16.4427C45.498 16.4697 45.532 16.5028 45.5599 16.5407C45.5711 16.5549 45.5811 16.57 45.59 16.5857C45.6027 16.6023 45.6141 16.6198 45.6244 16.6379C45.6643 16.6804 45.6946 16.7307 45.7135 16.7857C45.7325 16.8407 45.7394 16.8991 45.7341 16.9569C45.7326 16.9712 45.7298 16.9849 45.7269 16.9991C45.72 17.0764 45.6919 17.1504 45.6459 17.213C45.6101 17.2601 45.5653 17.2997 45.5141 17.3295C45.4629 17.3593 45.4064 17.3788 45.3476 17.3868C45.3217 17.3925 45.2952 17.3952 45.2688 17.3946Z" fill="#0055BA"/>
<path d="M46.0837 17.66C45.8112 17.6609 45.5424 17.5974 45.2992 17.4747C45.2235 17.4539 45.1533 17.4167 45.0935 17.366C45.06 17.3538 45.0282 17.3374 44.9988 17.3174L44.9881 17.3095C44.9635 17.2959 44.9402 17.2801 44.9185 17.2623C44.9013 17.2509 44.8848 17.2385 44.8691 17.2251L44.8591 17.218L44.8483 17.2094C44.8315 17.1969 44.8155 17.1835 44.8002 17.1693C44.7879 17.1608 44.7762 17.1515 44.7651 17.1414C44.7508 17.1292 44.7378 17.1178 44.7257 17.1056C44.7008 17.0884 44.6784 17.068 44.659 17.0448C44.6451 17.0325 44.632 17.0194 44.6195 17.0056C44.6016 16.9905 44.5851 16.974 44.57 16.9561C44.5565 16.9429 44.5438 16.9288 44.532 16.9139C44.5048 16.8854 44.4754 16.8539 44.4474 16.8181C44.4331 16.8024 44.42 16.7857 44.408 16.7681L44.4044 16.7623C44.392 16.747 44.3805 16.7311 44.37 16.7144C44.3217 16.6542 44.29 16.5825 44.2779 16.5064C44.2659 16.4303 44.2739 16.3524 44.3011 16.2802C44.3391 16.1896 44.4033 16.1121 44.4854 16.0578C44.5766 15.9949 44.6883 15.9686 44.7981 15.9841C44.8847 15.9971 44.966 16.0334 45.0333 16.0893C45.1147 16.1374 45.1844 16.2029 45.2377 16.281C45.2471 16.2986 45.255 16.317 45.2613 16.3361C45.2734 16.3503 45.2857 16.3654 45.2979 16.3818C45.3058 16.389 45.3136 16.3969 45.3215 16.4047C45.3366 16.4213 45.3507 16.4387 45.3639 16.4569C45.4462 16.4731 45.5235 16.5089 45.589 16.5614C45.6129 16.5832 45.6345 16.6073 45.6535 16.6336C45.6859 16.6554 45.7156 16.6811 45.7417 16.7101C46.0087 16.7825 46.2916 16.7702 46.5512 16.675C46.8109 16.5798 47.0344 16.4063 47.1908 16.1787C47.8254 15.4935 48.4887 14.7546 49.1239 14.0473L50.4928 12.5246C51.1224 11.8244 51.7799 11.0949 52.3642 10.4218C52.59 10.2381 52.7489 9.98547 52.8165 9.70286C52.8842 9.42016 52.8567 9.12317 52.7385 8.85758C52.6591 8.81355 52.5886 8.75505 52.5306 8.6852C52.5038 8.65279 52.4818 8.61672 52.4654 8.57799C52.4199 8.55163 52.3793 8.51748 52.3456 8.47711C52.3261 8.46923 52.3072 8.4599 52.289 8.44918C52.1993 8.40451 52.1199 8.3417 52.056 8.26462C52.0118 8.20722 51.9827 8.13984 51.9711 8.06843C51.9594 7.99711 51.9656 7.92397 51.9892 7.85558C52.003 7.78902 52.0317 7.72649 52.0734 7.67275C52.1151 7.61911 52.1685 7.57553 52.2296 7.54559C52.2907 7.51566 52.3578 7.5 52.4259 7.5C52.494 7.49991 52.5612 7.51529 52.6224 7.54513C52.6339 7.55154 52.6769 7.57379 52.6877 7.58093C52.6967 7.58597 52.7053 7.59164 52.7135 7.59805C52.7223 7.60309 52.7306 7.60885 52.7385 7.61526C52.7629 7.63156 52.7862 7.64941 52.8081 7.66891C52.817 7.67614 52.8254 7.68401 52.8332 7.69244C52.8705 7.71468 52.9059 7.73986 52.9393 7.7676C52.9595 7.78197 52.9789 7.79744 52.9974 7.81401C53.0637 7.84569 53.1192 7.89586 53.1573 7.95857C53.1737 7.97496 53.1888 7.99272 53.2025 8.01149C53.2111 8.01936 53.2196 8.02861 53.2275 8.03721C53.252 8.06019 53.2747 8.08482 53.2957 8.11091L53.3043 8.12309C53.31 8.12876 53.315 8.13517 53.3201 8.14094C53.3253 8.14652 53.3301 8.15256 53.3344 8.15879C53.3813 8.19944 53.4156 8.25254 53.4334 8.31186L53.4362 8.31763C53.6892 8.74901 53.7845 9.25454 53.7058 9.74818C53.6271 10.2417 53.3792 10.6929 53.0046 11.0247C52.4417 11.6742 51.7821 12.408 51.1489 13.1118L49.7808 14.6338C49.1419 15.3447 48.475 16.0871 47.8591 16.7501C47.6476 17.0218 47.3791 17.244 47.0724 17.4011C46.7657 17.5583 46.4282 17.6466 46.0837 17.66Z" fill="#0055BA"/>
<path d="M40.1877 2.6618L40.1833 2.48676L40.1628 2.32051L40.1283 2.1667L40.0835 2.02975L40.0798 2.03561L40.0262 1.91183L39.9638 1.79831L39.9579 1.80197L39.8867 1.69504L39.8081 1.59251L39.7244 1.4973L39.6378 1.41307L39.6488 1.41746L39.5835 1.364L39.5512 1.34203L39.5284 1.33031L39.6268 1.40941L39.7178 1.4973L39.7127 1.49949L39.7083 1.50169L39.6305 1.42186L39.5688 1.36766L39.535 1.34423L39.4601 1.2871L39.4072 1.25707L39.5093 1.33031L39.6003 1.40941L39.5981 1.4138L39.5959 1.4182L39.5401 1.364L39.5064 1.33983L39.4403 1.2849L39.3881 1.25341L39.4792 1.32445L39.4821 1.3347L39.4116 1.27831L39.3625 1.24608L39.3757 1.26659L39.3309 1.23583L39.3345 1.25194L39.2956 1.22192L39.2876 1.2329L39.2567 1.2058L39.2384 1.21239L39.2156 1.18823L39.1884 1.18896L39.176 1.16918L39.1385 1.16479L39.137 1.14941L39.0922 1.14135L39.1018 1.13037L39.0504 1.11792L38.977 1.11059L38.9784 1.10254L39.0702 1.11279L39.0152 1.09668L38.9307 1.08203L38.9381 1.0769L39.0453 1.09668L38.988 1.07837L38.908 1.06665L38.8683 1.05713L38.7941 1.05127L38.7934 1.04541V1.04028L38.908 1.05566L38.8793 1.04468L38.8397 1.03442L38.7604 1.02417L38.6517 1.01831L38.6466 1.01245L38.5225 1.01318L38.5159 1.00586L38.3881 1.01465L38.3815 1.00659L38.2552 1.02344L38.1289 1.05054L38.1238 1.04175L37.9945 1.08203L37.8609 1.13769L37.7207 1.21239L37.717 1.20214L37.576 1.29442L37.4387 1.40428L37.311 1.53245L37.1935 1.68332L37.0709 1.884L37.0701 1.87301L36.9218 2.15645L36.7272 2.55561L36.4725 3.09245L36.1677 3.73989L35.83 4.46276L35.4754 5.22152L35.1207 5.98101L34.7844 6.70389L34.4834 7.35352L34.2359 7.8933L34.0546 8.29904L33.9327 8.59493L33.8578 8.81684L33.8182 9.00287L33.8027 9.18231L33.8071 9.35662L33.8086 9.36614L33.8292 9.53166L33.8637 9.684L33.9085 9.81949L33.9121 9.82901L33.9657 9.94986L34.0289 10.0605L34.0333 10.0692L34.1045 10.1718L34.1104 10.1798L34.189 10.2772L34.1956 10.2846L34.2594 10.3534L34.2829 10.3783L34.3608 10.4508L34.3747 10.4618H34.3754L34.3872 10.4713L34.3938 10.4779L34.4511 10.5219L34.4841 10.5446L34.4893 10.5475L34.4915 10.5497L34.5076 10.5599L34.5135 10.5636L34.5238 10.5702L34.5517 10.587L34.5539 10.5885L34.6141 10.6244L34.6368 10.6361L34.6552 10.6478L34.6941 10.6661L34.7022 10.6713L34.7338 10.6866L34.7514 10.6954L34.7741 10.7057L34.8013 10.7181L34.8145 10.7233L34.8505 10.7394L34.8637 10.7438L34.8975 10.7584L34.9276 10.7687L34.9394 10.7731L34.993 10.7914L34.9952 10.7921L35.012 10.798L35.0172 10.7994L35.0429 10.8075L35.0803 10.8185L35.1009 10.8229L35.1222 10.8287L35.1963 10.8448L35.2859 10.8558L35.3072 10.8588L35.316 10.8595L35.3285 10.861L35.3395 10.8617L35.4262 10.8661L35.4489 10.8668L35.4599 10.8675L35.584 10.8639H35.5943L35.7191 10.8514L35.7287 10.85L35.8535 10.8265L35.9812 10.7899L35.9908 10.787L36.1237 10.7335L36.2625 10.6617L36.4027 10.5709L36.4108 10.5658L36.5481 10.4567L36.6758 10.33L36.7926 10.1798L36.7985 10.1725L36.9211 9.97183L37.0694 9.68839L37.2632 9.28851L37.5188 8.75239L37.8227 8.10423L38.1612 7.38208L38.5159 6.62332L38.8698 5.86383L39.2068 5.14096L39.5071 4.49132L39.7553 3.95155L39.9359 3.5458L40.0585 3.24992L40.1327 3.02727L40.1349 3.01775L40.1745 2.83172L40.1723 2.84124L40.1877 2.6618Z" fill="white"/>
<path d="M38.8653 1.02832L38.8264 1.0166L38.7441 1.00342L38.7559 1.01001L38.8653 1.02832Z" fill="white"/>
<path d="M38.117 1.23351C38.3335 1.14752 38.5666 1.11119 38.799 1.12723C39.0315 1.14326 39.2575 1.21124 39.46 1.32615C39.6626 1.44105 39.8367 1.59992 39.9693 1.79101C40.1021 1.9821 40.19 2.20051 40.2266 2.43007C40.2648 2.75661 40.2208 3.0875 40.0988 3.3929C39.095 5.60003 38.0699 7.79743 37.0234 9.98509C36.8269 10.2963 36.594 10.5831 36.3295 10.8393L36.1465 10.7258C36.4811 9.92458 36.7978 9.11537 37.1541 8.32393C37.8558 6.76475 38.5809 5.21608 39.2936 3.66191C39.4154 3.38193 39.445 3.07076 39.3785 2.77293C39.312 2.47511 39.1528 2.2059 38.9235 2.00387C38.6915 1.74191 38.417 1.51729 38.117 1.23351Z" fill="#8FB8E2"/>
<path d="M35.4508 11.3057C35.4407 11.3057 35.43 11.3057 35.42 11.305C35.3282 11.3007 35.2364 11.2913 35.2163 11.287L35.2077 11.2849C35.1477 11.2821 35.0884 11.271 35.0314 11.252C34.9784 11.2449 34.9268 11.2305 34.8779 11.2091C34.8523 11.2035 34.8271 11.1961 34.8026 11.187L34.7589 11.1718C34.7412 11.166 34.7239 11.1588 34.7072 11.1504C34.6681 11.1395 34.6305 11.1237 34.5954 11.1032L34.5538 11.0832C34.5311 11.0749 34.5091 11.0648 34.4879 11.0532C34.4785 11.0482 34.4699 11.0431 34.4614 11.0375L34.4426 11.0275L34.4398 11.026C34.4183 11.0161 34.3974 11.005 34.3774 10.9923L34.3702 10.9881C34.3485 10.9773 34.3276 10.9649 34.3078 10.9508L34.3006 10.9459C34.2771 10.9337 34.2548 10.9194 34.2339 10.903C34.1995 10.8815 34.1673 10.8566 34.1379 10.8285C34.1065 10.8061 34.0773 10.781 34.0504 10.7535C34.0113 10.7269 33.9782 10.6923 33.9536 10.6519C33.6304 10.3138 33.4274 9.87917 33.3761 9.41483C33.3248 8.9505 33.428 8.48222 33.6696 8.08206C33.9858 7.36825 34.3659 6.55438 34.728 5.77905L35.4293 4.27707C35.7913 3.50033 36.1714 2.68569 36.5292 1.95401C36.6925 1.49725 37.0071 1.10967 37.4209 0.855213C37.8348 0.600752 38.3233 0.494619 38.8057 0.5543C38.8158 0.555032 38.8258 0.555728 38.8351 0.557165C38.8626 0.560644 38.8898 0.566631 38.9161 0.575045C38.9312 0.576473 38.9462 0.57791 38.962 0.580767L38.9656 0.581499C39.001 0.585042 39.036 0.592732 39.0696 0.604386C39.1101 0.616407 39.1497 0.631467 39.1879 0.649438C39.24 0.661605 39.2904 0.680354 39.3378 0.705237L39.3822 0.722394C39.4248 0.737069 39.465 0.758052 39.5012 0.784647C39.5477 0.803708 39.5925 0.82643 39.6353 0.852595C39.6803 0.877139 39.7239 0.904119 39.7658 0.933414C39.7773 0.942002 39.7916 0.952008 39.8053 0.963443C39.8614 0.999513 39.9125 1.0428 39.9573 1.09219C40.0093 1.13304 40.0573 1.17879 40.1006 1.22879C40.1802 1.31518 40.2236 1.42864 40.222 1.54592C40.2204 1.66319 40.1739 1.77542 40.0921 1.85963C40.0532 1.89967 40.0067 1.93161 39.9554 1.9536C39.904 1.97559 39.8487 1.98719 39.7928 1.98772C39.7369 1.98826 39.6815 1.97771 39.6297 1.95671C39.578 1.9357 39.5309 1.90464 39.4912 1.86535L39.5277 1.80026C39.4952 1.79383 39.4634 1.78376 39.4331 1.77023L39.4173 1.78668C39.4412 1.80567 39.4681 1.82043 39.4969 1.8303C39.4179 1.80206 39.3485 1.75195 39.2969 1.68583C39.2839 1.67597 39.2715 1.66545 39.2596 1.65434C39.2395 1.64218 39.1936 1.61286 39.19 1.61071L39.1864 1.60856C39.1157 1.59502 39.0495 1.56432 38.9936 1.51916C38.9753 1.51238 38.9575 1.50425 38.9405 1.49484C38.9081 1.4868 38.8765 1.47604 38.8458 1.46266C38.823 1.46054 38.8002 1.45695 38.7777 1.45193C38.7701 1.44973 38.762 1.44876 38.754 1.44907C38.6891 1.449 38.6251 1.43485 38.5663 1.40758C38.2921 1.41065 38.0259 1.4993 37.8049 1.66107C37.584 1.82283 37.4194 2.0496 37.3344 2.30949C36.9658 3.0662 36.5879 3.87585 36.228 4.64829L35.5267 6.15027C35.1668 6.92131 34.7896 7.7295 34.4612 8.46693C34.3018 8.70203 34.2269 8.98409 34.2488 9.26707C34.2707 9.55014 34.388 9.81738 34.5817 10.0254C34.6024 10.0408 34.6223 10.0576 34.6412 10.0755C34.6662 10.0992 34.6886 10.1255 34.7079 10.1541L34.725 10.1655C34.7583 10.1771 34.7899 10.193 34.8189 10.2128C34.8419 10.2226 34.864 10.2343 34.8849 10.2478C34.9058 10.2564 34.9265 10.265 34.9387 10.2707C34.9643 10.2827 34.9888 10.2971 35.0119 10.3136C35.0409 10.3237 35.0689 10.3365 35.0957 10.3515L35.1101 10.3558C35.1399 10.3622 35.1692 10.3711 35.1975 10.3822C35.2213 10.3879 35.2445 10.3953 35.2671 10.4045V10.4059C35.2901 10.4111 35.3126 10.418 35.3346 10.4266C35.3546 10.4302 35.3775 10.4345 35.4012 10.4395L35.404 10.4288C35.4277 10.4274 35.4514 10.4271 35.4751 10.4281H35.4822C35.5959 10.4363 35.702 10.4882 35.7781 10.5729C35.8543 10.6575 35.8946 10.7684 35.8905 10.882C35.8864 10.9957 35.8383 11.1034 35.7563 11.1824C35.6742 11.2614 35.5647 11.3055 35.4507 11.3057H35.4508Z" fill="#0055BA"/>
<path d="M35.5065 11.3149C35.3552 11.3146 35.2045 11.2961 35.0576 11.2599C35.0284 11.2563 34.9995 11.2498 34.9716 11.2406C34.9428 11.2341 34.9149 11.227 34.889 11.2191C34.8611 11.2107 34.834 11.1997 34.8081 11.1862L34.788 11.1776C34.7301 11.1663 34.6751 11.1436 34.6259 11.1111C34.5685 11.074 34.5194 11.0251 34.4822 10.9678C34.4448 10.9105 34.42 10.846 34.4094 10.7785C34.3986 10.7138 34.4022 10.6475 34.4202 10.5845C34.4382 10.5214 34.4701 10.4631 34.5134 10.4138C34.5754 10.3508 34.6547 10.3075 34.7414 10.2895C34.828 10.2715 34.918 10.2793 35.0002 10.3122L35.0117 10.3172C35.0813 10.3235 35.1486 10.3458 35.2082 10.3823C35.238 10.3895 35.2671 10.3994 35.2949 10.4124C35.5895 10.4432 35.8857 10.3723 36.134 10.2113C36.3825 10.0504 36.5679 9.80932 36.6594 9.52835C37.0323 8.76089 37.4138 7.94272 37.7773 7.16455L38.4835 5.65039C38.8392 4.88938 39.2106 4.09405 39.5341 3.36737C39.6783 3.1366 39.7498 2.86791 39.7392 2.59615C39.7286 2.32437 39.6364 2.06205 39.4746 1.84316C39.3958 1.81738 39.3261 1.77004 39.273 1.70655C39.2589 1.68962 39.246 1.67169 39.2343 1.6529C39.2094 1.63952 39.1859 1.62371 39.1641 1.6057C39.1364 1.59236 39.11 1.57657 39.0852 1.5585C39.0586 1.54938 39.0327 1.53814 39.0078 1.52488C38.9767 1.51627 38.9466 1.50427 38.9181 1.48912L38.8895 1.48054L38.8751 1.4777C38.7862 1.49743 38.6934 1.4882 38.6101 1.45139C38.5269 1.41457 38.4577 1.35209 38.4126 1.27314C38.3591 1.18831 38.3358 1.08797 38.3464 0.988312C38.3572 0.888661 38.4011 0.795491 38.4714 0.723844C38.5598 0.635408 38.6789 0.584195 38.8041 0.580789C38.8707 0.569575 38.9389 0.572742 39.0041 0.590091C39.0433 0.5992 39.0815 0.612136 39.1182 0.628715C39.1789 0.637111 39.2377 0.656244 39.2917 0.68522C39.3374 0.699694 39.3814 0.71912 39.4229 0.743152C39.4793 0.764446 39.5325 0.793065 39.5813 0.828265C39.6134 0.840597 39.6435 0.857195 39.671 0.87762C39.6883 0.884742 39.7048 0.893357 39.7205 0.903363C39.7356 0.913278 39.7502 0.924026 39.7643 0.935552C39.7846 0.948845 39.8038 0.963923 39.8216 0.980604C39.8431 0.99787 39.8637 1.01625 39.8833 1.03568C39.9091 1.05118 39.9336 1.06888 39.9564 1.0886C40.3132 1.4242 40.5443 1.8713 40.6115 2.35585C40.6786 2.84039 40.5778 3.33328 40.3257 3.75284C40.0138 4.4552 39.6402 5.25625 39.2824 6.02155L38.5761 7.53496C38.2104 8.31816 37.8268 9.14137 37.4669 9.88017C37.3167 10.2845 37.051 10.636 36.7025 10.8911C36.354 11.1461 35.9381 11.2935 35.5065 11.3149Z" fill="#0055BA"/>
<path d="M11.0761 32.3234L11.0753 32.289L11.0739 32.2539L11.0709 32.2187L11.068 32.1835L11.0643 32.1484L11.0592 32.1132L11.0541 32.0788L11.0482 32.0437L11.0416 32.01L11.0342 31.9763L11.0262 31.9433L11.0173 31.9104L11.0085 31.8789L10.999 31.8481L10.9814 31.7968L10.9696 31.7617L10.9571 31.728L10.9439 31.695L10.9307 31.6635L10.916 31.6335L10.8822 31.5647L10.8654 31.5317L10.8485 31.5009L10.8308 31.4717L10.8125 31.4446L10.7611 31.3662L10.7405 31.3384L10.72 31.312L10.651 31.2329L10.6282 31.2065L10.6047 31.1831L10.5812 31.1611L10.4909 31.0806L10.4652 31.06L10.3558 30.9817L10.3272 30.9634L10.2992 30.9473L10.17 30.8748L10.1399 30.8608L9.99527 30.8L9.9637 30.7891L9.80657 30.7451L9.77353 30.7378L9.60098 30.7136L9.56794 30.71L9.34766 30.707L9.04075 30.7261L8.60828 30.7649H8.5745L7.99004 30.8242L7.2815 30.8982L6.49071 30.9831L5.65808 31.0725L4.82544 31.1618L4.03466 31.2483L3.32684 31.3266L2.74312 31.3933L2.31212 31.4468L2.00814 31.4944L1.79227 31.5434L1.62633 31.6042L1.59476 31.6086L1.44791 31.6862L1.4178 31.6936L1.2849 31.7859L1.16742 31.8884L1.14173 31.8979L1.0426 32.0041L0.961836 32.111L0.939808 32.122L0.876663 32.2282L0.856838 32.2414L0.808378 32.3491L0.79149 32.3622L0.754778 32.4728L0.740093 32.4868L0.71366 32.5988L0.701178 32.6127L0.688696 32.6274L0.674745 32.7336L0.669605 32.8324L0.663731 32.8522L0.656389 32.8727V32.7673L0.647578 32.7819L0.638767 32.7973L0.640235 32.8844L0.647578 32.9504L0.649781 32.9892L0.648312 33.0221L0.63069 32.9306L0.623348 32.9416L0.616739 32.9518L0.627753 33.0068L0.632893 33.0426L0.634361 33.0749L0.6116 33.0016L0.605726 33.0177L0.600586 33.0317L0.614537 33.0734L0.621145 33.1049L0.625551 33.1357L0.617474 33.1474L0.607194 33.1481L0.616005 33.1737L0.621879 33.2016L0.616005 33.2191L0.60646 33.2279L0.616739 33.247L0.624816 33.2711L0.620411 33.2931L0.613068 33.3092L0.624082 33.3209L0.632893 33.3407L0.631425 33.3671L0.626285 33.3898L0.637298 33.3935L0.646844 33.4081L0.647578 33.4374L0.645375 33.466L0.655654 33.4616L0.646109 33.5158L0.654186 33.5326L0.665934 33.4704L0.669605 33.5011L0.67034 33.5348L0.667403 33.5824L0.675479 33.5941L0.685024 33.6066L0.688696 33.5253L0.695304 33.5568L0.698975 33.5934L0.701912 33.6535L0.710723 33.66L0.724674 33.7465L0.736422 33.7626L0.720268 33.6674L0.730548 33.6893L0.723939 33.6015L0.731282 33.6403L0.740093 33.7091L0.759918 33.7985L0.771665 33.8095L0.804707 33.9091L0.819391 33.9237L0.834077 33.9369L0.880334 34.038L0.897956 34.0519L0.953024 34.1493L0.972849 34.1625L0.992674 34.1735L1.06096 34.2679L1.08299 34.2775L1.16596 34.3683L1.26434 34.454L1.29078 34.4628L1.40826 34.5448L1.43616 34.5514L1.57126 34.6261L1.71958 34.6876L1.75042 34.6913L1.90975 34.7359L2.08376 34.7601H2.11681L2.33781 34.7623L2.64399 34.744L3.07647 34.7052L3.66093 34.6459L4.36947 34.5719L5.16099 34.4877L5.99289 34.3976L6.82553 34.3082L7.61705 34.2218L8.32486 34.1434L8.90859 34.0768L8.99156 34.0665L9.37263 34.0189L9.67661 33.972L9.89174 33.9222L9.92405 33.9142L10.0878 33.8541L10.1186 33.8424L10.1487 33.8278L10.2926 33.7509L10.3205 33.7326L10.449 33.6425L10.4747 33.622L10.5856 33.5238L10.6098 33.5011L10.6326 33.4762L10.7222 33.3773L10.7435 33.351L10.8132 33.2528L10.8316 33.2265L10.8492 33.1972L10.9006 33.1042L10.916 33.0756L10.93 33.0448L10.9439 33.0119L10.9777 32.9262L10.9887 32.8947L10.9997 32.8617L11.0093 32.828L11.0188 32.7922L11.0364 32.7189L11.0438 32.686L11.0504 32.6515L11.0555 32.6164L11.0607 32.5805L11.0643 32.5439L11.0702 32.4919L11.0731 32.4589L11.0746 32.426L11.0761 32.3923L11.0768 32.3578L11.0761 32.3234Z" fill="white"/>
<path d="M9.645 32.3125C10.0842 32.2873 10.3098 32.5499 10.3339 32.9879C10.366 33.5706 10.0143 33.8425 9.531 34.0282C9.90905 34.0368 10.2779 33.9109 10.5714 33.6731C10.865 33.4352 11.064 33.1008 11.1329 32.73C11.2019 32.359 11.1362 31.9757 10.9476 31.6487C10.759 31.3217 10.4599 31.0723 10.1039 30.9452C9.70998 30.8479 9.30128 30.8254 8.89909 30.8789C7.07311 31.0572 5.24998 31.2637 3.42639 31.4648C2.96831 31.5154 2.51215 31.5836 1.99316 31.6519C2.56646 32.3892 3.15728 32.8809 4.06683 32.7653C4.27885 32.7383 4.49068 32.708 4.70352 32.6899C5.3569 32.6346 6.01057 32.582 6.6645 32.5325L9.645 32.3125Z" fill="#8FB8E2"/>
<path d="M2.25405 35.201C2.01091 35.207 1.76857 35.1709 1.53773 35.0945C1.1777 34.977 0.858388 34.7602 0.616766 34.4693C0.375153 34.1782 0.221118 33.8248 0.172501 33.4501C0.166297 33.4307 0.161506 33.411 0.158165 33.3908C0.116487 33.1292 0.128345 32.8617 0.193042 32.6047C0.257738 32.3476 0.373923 32.1064 0.534604 31.8953C0.697882 31.6719 0.904178 31.4832 1.14142 31.3402C1.37868 31.1973 1.64211 31.1029 1.91634 31.0627C2.73376 30.9411 3.62006 30.8481 4.47684 30.758C4.86122 30.718 5.24119 30.6779 5.60831 30.6365C6.05079 30.5965 6.49528 30.5449 6.94345 30.4927C7.80967 30.3918 8.70527 30.2882 9.55993 30.271C10.0292 30.2945 10.4758 30.4791 10.8242 30.7935C11.1726 31.1078 11.4013 31.5327 11.4715 31.9961C11.4766 32.0085 11.4809 32.0211 11.4845 32.0341C11.504 32.1051 11.5083 32.1794 11.4967 32.2522C11.5044 32.2804 11.509 32.3094 11.5103 32.3387C11.5214 32.5914 11.482 32.8437 11.3945 33.081C11.307 33.3184 11.1731 33.536 11.0004 33.7213C10.583 34.1688 10.0052 34.4336 9.39289 34.4579C8.60771 34.5588 7.6999 34.656 6.83524 34.749L5.20971 34.9235C4.36789 35.0143 3.48524 35.1096 2.68428 35.1818C2.54588 35.1925 2.40105 35.201 2.25405 35.201ZM1.1957 33.7749C1.34792 34.001 1.56883 34.1725 1.82598 34.2641C2.08275 34.3271 2.34913 34.3411 2.61114 34.3056C3.40135 34.2348 4.27822 34.1404 5.11499 34.0502L6.74052 33.875C7.60032 33.7827 8.50235 33.6862 9.31828 33.5825C9.70871 33.5723 10.0794 33.4091 10.3502 33.1283C10.5255 32.943 10.6256 32.6993 10.6312 32.4446C10.605 32.3857 10.5929 32.3215 10.596 32.2572C10.5961 32.2484 10.5969 32.2395 10.5983 32.2307L10.5939 32.2064C10.5848 32.1653 10.5807 32.1233 10.5817 32.0812C10.5794 32.0546 10.5797 32.0277 10.5825 32.0011C10.5175 31.7695 10.3826 31.5633 10.196 31.4108C10.0095 31.2583 9.78039 31.1667 9.53993 31.1486C8.76548 31.1657 7.89072 31.2673 7.04532 31.366C6.58927 31.4189 6.13752 31.4711 5.69798 31.5105C5.33875 31.5512 4.95658 31.5921 4.56935 31.6321C3.72185 31.7215 2.84488 31.8137 2.04037 31.9332C1.88197 31.9567 1.72989 32.0116 1.59308 32.0947C1.45627 32.1777 1.33748 32.2872 1.24371 32.4166C1.11438 32.5874 1.03564 32.7908 1.01641 33.0038C1.05168 33.0765 1.06584 33.1575 1.05729 33.2377C1.06696 33.2637 1.07416 33.2906 1.0788 33.3178L1.08524 33.34C1.11855 33.3941 1.14005 33.4545 1.14835 33.5174C1.18859 33.5941 1.2053 33.6809 1.19639 33.767L1.1957 33.7749Z" fill="#0055BA"/>
<path d="M21.6195 10.5342L21.6173 10.4924L21.6114 10.4529L21.5835 10.302L21.5747 10.2625L21.5622 10.2251L21.5086 10.0691L21.4932 10.0317L21.4022 9.84865L21.3823 9.81349L21.2399 9.574L21.0306 9.24735L20.7465 8.81451L20.4014 8.29377L20.0159 7.71518L19.6099 7.1073L19.2038 6.49941L18.8169 5.92155L18.4681 5.40301L18.1773 4.97456L17.9556 4.65597L17.7889 4.43186L17.7662 4.3989L17.6311 4.24437L17.5062 4.13377L17.4813 4.10448L17.3491 4.01806L17.3219 3.99169L17.1846 3.92504L17.156 3.90234L17.018 3.854L16.9893 3.83496L16.8572 3.80493L16.8278 3.78882L16.7052 3.77563L16.6758 3.76318L16.562 3.76465L16.5341 3.75439L16.504 3.74561L16.3997 3.76172L16.3711 3.75586L16.3417 3.75073L16.2455 3.77856L16.2176 3.77637L16.189 3.7749L16.1016 3.81225H16.0759L16.0495 3.81372L16.0223 3.81592L15.9526 3.85839L15.9276 3.86352L15.9026 3.86865L15.8792 3.87231L15.8549 3.8767L15.8109 3.92065L15.7881 3.93163L15.7639 3.94262L15.8028 3.89428L15.7778 3.90234L15.7521 3.91039L15.7264 3.94848L15.7051 3.96093L15.6816 3.97484L15.6603 3.98144L15.6405 3.98803L15.6207 4.00194L15.5994 4.01806L15.5766 4.02758L15.5561 4.0371L15.5385 4.05248L15.5208 4.06932L15.4981 4.08251L15.4768 4.09423L15.4628 4.11034L15.4482 4.12792L15.4261 4.1433L15.4056 4.15794L15.363 4.16527L15.3446 4.18504L15.3277 4.20555L15.3843 4.1909L15.3644 4.20848L15.3454 4.22532L15.2896 4.24656L15.2756 4.26634L15.2624 4.28685L15.247 4.30808L15.233 4.32859L15.1677 4.374L15.1537 4.39817L15.142 4.42234L15.131 4.44651L15.1214 4.46994L15.0524 4.53732L15.0436 4.56442L15.0362 4.59006L14.9731 4.66916L14.9665 4.69845L14.9621 4.72628L14.907 4.81783L14.9041 4.84786L14.8586 4.95039L14.8578 4.98262L14.8593 5.01411L14.8248 5.13276L14.8292 5.16572L14.8057 5.29975L14.7969 5.4433L14.805 5.47918L14.8138 5.63079L14.8255 5.66668L14.8541 5.82048L14.8696 5.85637L14.9232 6.01383L14.943 6.04825L15.034 6.23208L15.1765 6.47158L15.3857 6.79823L15.6699 7.23107L16.015 7.7518L16.4005 8.33039L16.8065 8.93828L17.2125 9.54617L17.5995 10.1248L17.9483 10.6426L18.239 11.071L18.2625 11.1047L18.4314 11.3479L18.46 11.3896L18.4835 11.4233L18.6502 11.6467L18.6766 11.6774L18.811 11.8312L18.8396 11.8598L18.9637 11.9682L18.9946 11.9938L19.0291 12.0165L19.1568 12.1L19.1928 12.1191L19.325 12.1828L19.3617 12.1989L19.4006 12.2128L19.5291 12.2568L19.5673 12.2677L19.6084 12.2765L19.7273 12.3014L19.767 12.3073L19.8081 12.3117L19.9131 12.3205L19.9528 12.3219H19.9939L20.0357 12.3197L20.1238 12.3146L20.1635 12.311L20.2039 12.3058L20.2457 12.2985L20.2883 12.2897L20.3551 12.2751L20.394 12.2655L20.4337 12.2546L20.4733 12.2421L20.5137 12.2282L20.5541 12.2128L20.5952 12.1967L20.6356 12.1784L20.6664 12.1645L20.7024 12.1476L20.7384 12.1293L20.7744 12.1103L20.8096 12.0898L20.8449 12.0685L20.8794 12.0466L20.9139 12.0239L20.9469 12.0004L20.98 11.9755L21.0123 11.9506L21.0431 11.925L21.0732 11.8986L21.096 11.8781L21.129 11.8474L21.1606 11.8166L21.1914 11.7851L21.2208 11.7536L21.2487 11.7221L21.2751 11.6899L21.2994 11.6577L21.3229 11.6254L21.3632 11.569L21.3867 11.5332L21.4088 11.4973L21.4286 11.4621L21.4469 11.427L21.4859 11.3471L21.5035 11.309L21.5182 11.2717L21.5314 11.2351L21.5637 11.1333L21.5747 11.0945L21.5835 11.0556L21.6063 10.9355L21.6129 10.8952L21.6166 10.8557L21.6261 10.7195L21.6268 10.6792L21.6195 10.5342Z" fill="white"/>
<path d="M20.7531 12.1863C20.8841 11.9419 20.9341 11.6624 20.8958 11.3878C20.8577 11.1134 20.7332 10.8579 20.5404 10.6585C19.567 9.22919 18.6154 7.78509 17.6708 6.33671C17.4865 6.05414 17.4025 5.7067 17.2188 5.42361C16.9869 5.08606 16.7338 4.76346 16.4611 4.45774C16.3158 4.30246 16.1621 4.15508 16.001 4.01623C16.2658 3.88019 16.5675 3.83286 16.8615 3.88126C17.1554 3.92964 17.4259 4.07118 17.6328 4.2849C17.8561 4.52741 18.0596 4.78716 18.2417 5.06171C19.2427 6.54945 20.2388 8.04051 21.2299 9.53487C21.4246 9.76338 21.5633 10.034 21.635 10.3252C21.7068 10.6164 21.7097 10.9203 21.6434 11.2128C21.5866 11.4355 21.4757 11.6409 21.3204 11.8107C21.1651 11.9805 20.9703 12.1095 20.7531 12.1863Z" fill="#8FB8E2"/>
<path d="M19.972 12.7606C19.7957 12.7609 19.62 12.7372 19.45 12.6906C18.6659 12.3851 18.0307 11.789 17.6774 11.0269C17.5468 10.8091 17.4051 10.5981 17.253 10.3946L16.5245 9.30744C15.9451 8.44202 15.3543 7.56086 14.8065 6.70909C14.5465 6.37132 14.3914 5.96505 14.3603 5.5404C14.3292 5.11574 14.4235 4.69129 14.6315 4.31948C14.8399 3.96508 15.1482 3.67972 15.5182 3.49898C15.8881 3.31825 16.3031 3.25012 16.7116 3.30313C17.0479 3.356 17.368 3.48385 17.6479 3.67715C17.9279 3.87044 18.1605 4.12423 18.3285 4.41961C18.7165 4.97677 19.1431 5.61547 19.5511 6.22627L19.9763 6.86216L19.987 6.87928L20.2659 7.29702C20.7156 7.96935 21.1931 8.6838 21.6111 9.33683C21.9215 9.73534 22.081 10.2303 22.0615 10.7347C22.0422 11.239 21.845 11.7203 21.505 12.094C21.3085 12.3035 21.0711 12.4706 20.8075 12.5853C20.5439 12.6999 20.2596 12.7596 19.972 12.7606ZM16.4456 4.16357C16.2319 4.16635 16.0225 4.22361 15.8372 4.32988C15.652 4.43617 15.4971 4.58795 15.3872 4.7708C15.27 5.0003 15.2217 5.25863 15.2478 5.51486C15.2741 5.77109 15.3738 6.01435 15.5349 6.21555C16.0928 7.08169 16.6808 7.95855 17.2573 8.81902L17.9671 9.88109C18.1312 10.0998 18.2839 10.3268 18.4245 10.5613C18.7888 11.1427 19.133 11.692 19.6844 11.8437C19.8959 11.8947 20.1172 11.8885 20.3254 11.8256C20.5337 11.7628 20.7214 11.6455 20.8689 11.4861C21.0655 11.2568 21.1749 10.9659 21.1781 10.6642C21.1813 10.3625 21.0779 10.0694 20.8861 9.83604C20.4531 9.1616 19.9791 8.45209 19.5331 7.78479L19.2197 7.31633L19.2105 7.30132L18.8175 6.71339C18.4131 6.10757 17.99 5.47388 17.5949 4.9067C17.4921 4.72022 17.3499 4.55819 17.1782 4.43176C17.0065 4.30533 16.8094 4.2175 16.6004 4.17431C16.5491 4.16717 16.4974 4.16359 16.4456 4.16357Z" fill="#0055BA"/>
<path d="M12.6452 19.018L12.6423 18.8979L12.6394 18.8555L12.6342 18.8152L12.6144 18.6826L12.6063 18.6416L12.5681 18.5046L12.5564 18.4629L12.5417 18.4233L12.483 18.2849L12.4653 18.2468L12.4441 18.2102L12.3581 18.0711L12.3339 18.0366L12.1966 17.8711L12.1694 17.8396L11.9528 17.6155L11.922 17.5855L11.6797 17.3497L11.6276 17.2991L11.5967 17.2698L11.1452 16.8384L10.5901 16.3126L9.9667 15.7245L9.30882 15.1041L8.65093 14.4845L8.02609 13.8971L7.4688 13.3742L7.01136 12.9487L6.67654 12.6433L6.44012 12.4404L6.40708 12.414L6.23379 12.2866L6.19855 12.2632L6.0539 12.1848L6.01719 12.1658L5.87328 12.1138L5.83583 12.0977L5.69192 12.0662L5.54948 12.0522L5.51497 12.0405L5.38207 12.0435L5.34829 12.0347L5.22935 12.0508L5.19557 12.0457L5.16179 12.042L5.05753 12.0713L5.02449 12.0706L4.99072 12.0713L4.89967 12.1116L4.8681 12.1145L4.83579 12.1189L4.75649 12.168L4.72712 12.1738L4.69702 12.1811L4.62873 12.2368L4.6023 12.2449L4.57513 12.2537L4.5487 12.2632L4.49877 12.3203L4.47527 12.3313L4.45104 12.3437L4.42828 12.354L4.40552 12.3657L4.38202 12.3811L4.35853 12.3972L4.33503 12.4119L4.31227 12.4265L4.30419 12.466L4.28657 12.4844L4.26822 12.5034L4.26748 12.4646L4.24472 12.4829L4.24839 12.5159L4.23004 12.5276L4.21535 12.5466L4.1992 12.5671L4.18011 12.5825L4.16175 12.5979L4.15 12.6169L4.13752 12.6374L4.11843 12.6565L4.10081 12.6733L4.09273 12.6924L4.05088 12.7019L4.03619 12.726L4.08392 12.7121L4.06703 12.7334L4.05088 12.7524L4.00536 12.7744L3.99361 12.7978L3.98333 12.8213L3.97085 12.8462L3.9591 12.8703L3.95249 12.893L3.94588 12.915L3.93781 12.9392L3.8798 13L3.87319 13.0271L3.86805 13.0527L3.86438 13.0783L3.81078 13.1567L3.80784 13.186L3.80637 13.2138L3.76159 13.3024V13.3332L3.76379 13.3625L3.72928 13.4614L3.73368 13.4929L3.73956 13.5229L3.7168 13.6335L3.72561 13.665L3.7168 13.7866L3.72855 13.8188L3.74323 13.8495L3.74984 13.985L3.76746 14.0158L3.79096 14.1601L3.83207 14.3051L3.85484 14.3373L3.91651 14.4801L3.94294 14.5109L4.03032 14.6522L4.06042 14.6808L4.19846 14.8471L4.41507 15.0712L4.44811 15.0983L4.77338 15.4139L5.22567 15.8453L5.78003 16.3712L6.40341 16.96L7.06202 17.5796L7.71991 18.1992L8.34402 18.7866L8.90205 19.3095L9.35875 19.7351L9.69356 20.0405L9.92999 20.2433L9.96597 20.2668L10.1385 20.3935L10.176 20.414L10.3199 20.4916L10.3588 20.5085L10.5012 20.559L10.5402 20.5722L10.582 20.5824L10.7222 20.6132L10.7634 20.6198L10.8067 20.6242L10.9381 20.6359L10.98 20.6374L11.0233 20.6359L11.1415 20.6322L11.1826 20.6286L11.2252 20.622L11.3258 20.6059L11.3662 20.5978L11.4073 20.5876L11.4491 20.5759L11.5299 20.5502L11.5681 20.537L11.6077 20.5217L11.6474 20.5048L11.6878 20.4858L11.7282 20.4653L11.781 20.4374L11.8177 20.4169L11.8545 20.3957L11.8904 20.3722L11.9271 20.3481L11.9631 20.3217L11.9984 20.2946L12.0336 20.266L12.0689 20.2368L12.1034 20.206L12.1364 20.1738L12.1694 20.1415L12.2017 20.1079L12.2326 20.0734L12.2634 20.0383L12.2921 20.0024L12.3207 19.9665L12.3471 19.9299L12.3728 19.8925L12.3978 19.8552L12.4206 19.8178L12.4418 19.7805L12.4624 19.7424L12.4808 19.705L12.505 19.6523L12.5241 19.6106L12.541 19.5695L12.5564 19.5285L12.5703 19.4882L12.5821 19.4487L12.6026 19.3689L12.6129 19.3264L12.6217 19.2839L12.6283 19.2436L12.6386 19.1433L12.643 19.1001L12.6452 19.0583V19.018Z" fill="white"/>
<path d="M8.63206 16.3973C8.4384 16.2131 8.25135 16.0218 8.0621 15.833C7.5071 15.2791 6.95238 14.7247 6.39811 14.17C6.35773 14.1387 6.32496 14.0987 6.30211 14.0531C6.0498 13.4055 5.62945 12.8364 5.08409 12.4042C5.04609 12.3475 5.0158 12.2859 4.99414 12.2211C5.26333 12.1352 5.55088 12.1237 5.82613 12.1879C6.10138 12.2521 6.35406 12.3895 6.55717 12.5856C7.61549 13.5582 8.66877 14.5363 9.71681 15.52C10.5691 16.323 11.4128 17.1349 12.2482 17.9555C12.4383 18.1371 12.5784 18.3645 12.6552 18.6156C12.7319 18.8667 12.7426 19.1333 12.6864 19.3897C12.635 19.6652 12.5136 19.9228 12.3339 20.1381C12.1541 20.3534 11.9219 20.519 11.6595 20.6191C11.7359 20.4634 11.7745 20.3797 11.8173 20.2982C11.9319 20.1508 11.9833 19.9641 11.9599 19.779C11.9367 19.5939 11.8408 19.4256 11.6933 19.3109" fill="#8FB8E2"/>
<path d="M11.0078 21.0787C10.5058 21.0807 10.02 20.9014 9.64044 20.5737C8.84736 19.8821 8.04217 19.1175 7.26341 18.378C6.86196 17.9968 6.46326 17.6184 6.07026 17.2544L5.60282 16.8123C5.1016 16.3396 4.56092 15.8289 4.10707 15.3854C3.78951 15.1096 3.54014 14.7642 3.37851 14.3763C3.22111 13.9443 3.21138 13.4724 3.35098 13.0343C3.49058 12.5962 3.7717 12.2165 4.1503 11.9544C4.52898 11.6923 4.98394 11.5627 5.44422 11.5856C5.9045 11.6085 6.34422 11.7828 6.69483 12.0811C7.37033 12.6648 8.06291 13.3214 8.73264 13.9572C9.02166 14.2311 9.30774 14.5022 9.58739 14.7633C9.59694 14.7705 9.60602 14.7784 9.61465 14.7868C9.92579 15.0858 10.2521 15.3905 10.5812 15.6987C11.2351 16.3103 11.9113 16.9432 12.5136 17.5662C12.7032 17.7649 12.8509 17.9994 12.9483 18.2558C13.0458 18.5122 13.0908 18.7856 13.0808 19.0596C13.0746 19.3305 13.0141 19.5973 12.903 19.8444C12.7917 20.0916 12.632 20.314 12.4333 20.4987C12.2464 20.6851 12.024 20.8325 11.7792 20.9321C11.5344 21.0317 11.2722 21.0815 11.0078 21.0787ZM5.32885 12.463C5.09298 12.4599 4.86196 12.5307 4.66849 12.6654C4.44556 12.8157 4.27906 13.0358 4.19527 13.2909C4.11156 13.546 4.11533 13.8217 4.20601 14.0745C4.32789 14.3373 4.50494 14.5709 4.72512 14.7596C5.17402 15.198 5.71103 15.7051 6.20866 16.1743L6.67399 16.6135C7.06553 16.9776 7.46634 17.3581 7.87072 17.7414C8.64306 18.4745 9.44183 19.2326 10.2198 19.9121C10.4467 20.1003 10.7347 20.1996 11.0297 20.1911C11.3248 20.1827 11.6066 20.0673 11.8223 19.8663C12.053 19.6493 12.1885 19.3504 12.1995 19.0344C12.2105 18.7184 12.0961 18.4108 11.8812 18.1783C11.2925 17.569 10.6241 16.9439 9.9781 16.3396C9.66192 16.0434 9.34858 15.7502 9.04745 15.4626L9.03955 15.4547C8.74053 15.1773 8.43508 14.8869 8.12532 14.5936C7.46276 13.965 6.77798 13.3155 6.11909 12.7455C5.89744 12.5611 5.6175 12.4611 5.32885 12.463Z" fill="#0055BA"/>
<path d="M55.5061 48.149L55.4614 47.5291L55.387 46.917L55.2827 46.3142L55.1494 45.7219L54.9871 45.1419L54.7967 44.5752L54.5781 44.0235L54.3314 43.4879L54.0582 42.9698L53.7585 42.4705L53.434 41.9911L53.0838 41.5327L52.7095 41.0967L52.6806 41.0546L52.2832 40.6413L51.8635 40.2521L51.4222 39.8882L50.9619 39.5505L50.8808 39.4838L50.4006 39.1727L50.2548 39.065L50.0379 38.9061L49.7804 38.7178L49.5229 38.5293L49.3061 38.3705L49.1578 38.2658L48.6603 37.9823L48.1461 37.7273L48.0534 37.6822L47.5244 37.4564L46.9814 37.2601L46.425 37.0937L45.8579 36.9576L45.2808 36.8523L44.6946 36.7778L44.1019 36.7343L43.5025 36.7222L42.8989 36.7412L42.293 36.7914L41.6853 36.8726L41.0768 36.9847L40.4708 37.1275L39.8672 37.3005L39.2686 37.5032L38.675 37.7354L38.0889 37.9964L38.0615 38.0099L37.4862 38.2978L36.9215 38.6132L36.3677 38.9551L35.8262 39.3229L35.2997 39.7155L34.7873 40.132L34.2922 40.5716L33.8153 41.033L33.3562 41.5151L32.9175 42.0168L32.4999 42.537L32.1042 43.0743L31.7316 43.6275L31.3828 44.1951L31.0588 44.7759L30.7602 45.3684L30.4878 45.9714L30.2424 46.5831L30.0244 47.2024L29.8344 47.8274L29.6728 48.4569L29.5401 49.0891L29.4365 49.7229L29.4319 49.7532L29.3575 50.389L29.3127 51.0233L29.2979 51.6543L29.3127 52.2805L29.3575 52.9005L29.4319 53.5128L29.5358 54.1158L29.6691 54.708L29.8313 55.2883L30.0219 55.8551L30.2407 56.4069L30.4871 56.9425L30.7605 57.4607L31.0602 57.9601L31.1297 58.0331L31.4554 58.5133L31.806 58.9723L31.9502 59.0811L32.1673 59.2398L32.4249 59.4283L32.6825 59.6167L32.8996 59.7756L33.0464 59.8818L33.421 60.3187L33.5096 60.3759L33.9073 60.7893L34.327 61.1784L34.7674 61.5423L34.8187 61.5589L35.279 61.8964L35.7584 62.2068L36.2551 62.4898L36.7693 62.7444L37.2975 62.9702L37.8405 63.1665L38.3969 63.3328L38.964 63.4688L39.541 63.5742L40.1263 63.6486L40.72 63.6921L41.3186 63.7043L41.9221 63.6853L42.5281 63.6351L43.1357 63.5539L43.7434 63.4417L44.3503 63.299L44.953 63.1261L45.5524 62.9234L46.1451 62.6912L46.1551 62.6746L46.7388 62.4144L47.315 62.1261L47.8804 61.8103L48.4352 61.4679L48.9766 61.0998L49.5048 60.7067L50.0164 60.2898L50.5123 59.8497L50.9908 59.3878L51.4495 58.9052L51.8891 58.4029L52.3072 57.8821L52.703 57.3443L53.0763 56.7905L53.4257 56.2222L53.7503 55.6407L54.0491 55.0475L54.3215 54.444L54.5674 53.8314L54.7851 53.2117L54.9756 52.5858L54.9871 52.578L55.1494 51.9464L55.2827 51.3117L55.387 50.6758L55.4615 50.04L55.5062 49.406L55.5211 48.7751L55.5061 48.149Z" fill="white"/>
<path d="M44.3599 38.7481C31.0629 41.3082 27.3514 61.113 42.9606 62.7158C26.0336 65.1673 29.7956 38.7906 44.361 38.7031L44.3599 38.7481Z" fill="#8FB8E2"/>
<path d="M41.4097 64.0361C38.7665 63.9934 36.2013 63.1368 34.0651 61.5836C32.7121 60.6645 31.5686 59.4711 30.7091 58.0815C29.8496 56.6919 29.2933 55.1372 29.0766 53.5187C28.5885 49.5243 29.6839 45.4978 32.1292 42.2973C34.5745 39.0969 38.1763 36.9758 42.1669 36.3861C43.7 36.1775 45.2599 36.2914 46.7461 36.7206C48.2324 37.1498 49.6122 37.8847 50.7964 38.8779C52.175 40.0009 53.3096 41.3923 54.1307 42.9674C54.952 44.5425 55.4426 46.2681 55.5726 48.0386C55.7597 49.9485 55.5596 51.8766 54.9845 53.7078C54.4093 55.5391 53.4708 57.2362 52.2247 58.6984C52.1717 58.7627 47.7447 64.0361 41.4097 64.0361ZM43.6396 37.1779C43.1819 37.178 42.7247 37.2051 42.2701 37.2587C38.5164 37.8203 35.1298 39.8189 32.8292 42.8302C30.5286 45.8416 29.495 49.6288 29.9479 53.3879C30.1478 54.8868 30.6622 56.327 31.4577 57.6143C32.253 58.9016 33.3115 60.0072 34.5642 60.8591C43.8992 67.2512 51.2431 58.506 51.5522 58.1312C52.7227 56.7576 53.6043 55.1631 54.1441 53.4426C54.6841 51.7221 54.8714 49.9108 54.695 48.1166C54.575 46.4634 54.1182 44.8521 53.3525 43.3811C52.587 41.91 51.5286 40.6101 50.2422 39.561L50.2343 39.5546C48.392 38.0007 46.0522 37.1574 43.6396 37.1779Z" fill="#0055BA"/>
<path d="M48.7325 50.0208L47.8144 50.1147L47.7999 49.4701L48.7836 49.3899L48.7379 47.805L47.7836 47.8864C47.7836 47.8864 47.8107 45.4273 47.8055 44.4289L47.8165 43.7212L44.9813 44.132C44.9813 44.132 44.9332 46.9832 44.9858 48.1377C44.3487 48.2407 43.6956 48.3336 43.0616 48.4572C42.9425 48.3331 42.879 48.1603 42.7823 48.0455L42.7824 48.0454L42.775 48.0354L42.6884 47.9162L42.6088 47.8066L42.6076 47.8069L42.5981 47.7939L42.4981 47.6574C42.0185 47.0037 41.4923 46.2995 41.0034 45.6556L40.9998 45.6047C40.9568 45.5557 40.8924 45.4808 40.853 45.427L40.8532 45.42L40.4835 44.919C40.409 44.9183 40.2941 44.8053 40.227 44.7729L39.8395 44.858L37.9547 45.1697L37.9716 45.626C37.981 46.7966 38.0338 48.2461 38.0666 49.3934C37.8201 49.4169 36.9648 49.4834 36.9648 49.4834L37.0398 51.3423L37.9747 51.2472L37.977 51.6437C37.748 51.6779 37.2439 51.7183 37.0945 51.7448L37.0898 53.7348L37.977 53.6149C37.9811 54.712 37.9836 56.037 37.9697 57.1468H38.8368L40.4983 56.8759L40.8324 56.8384L40.8317 56.4832L40.8254 54.9918C40.8254 54.987 40.8246 54.813 40.8247 54.8086L40.8177 53.1604L41.3897 53.0644L41.9229 52.9701C41.9229 52.9701 42.6331 52.8456 42.9845 52.7964C43.216 53.1352 43.4593 53.4186 43.698 53.7372L43.7904 53.8579C43.8497 53.935 43.9076 54.0115 43.9673 54.0888L43.966 54.0919C44.3417 54.5912 44.7964 55.1677 45.1533 55.6784L45.169 55.6676C45.2617 55.8203 45.3755 55.9592 45.5068 56.0803L47.7925 55.7062L47.7839 53.2624C47.7838 53.2377 47.7831 53.0773 47.7831 53.0498L47.783 53.0497C47.7831 52.7104 47.7742 52.3593 47.7861 52.0222C47.9924 51.9872 48.1937 51.9559 48.3845 51.9357L48.7235 51.8767C48.7235 51.8767 48.7306 50.0578 48.7325 50.0208ZM40.8323 49.9677V49.9402L40.8417 49.9661L40.8323 49.9677ZM44.8882 53.9884V53.9884L44.888 53.9882L44.8882 53.9884ZM45.8573 54.6872L45.8613 54.6896L45.8575 54.7005L45.8573 54.6872Z" fill="#8FB8E2"/>
</svg>
