<svg width="61" height="64" viewBox="0 0 61 64" fill="none" xmlns="http://www.w3.org/2000/svg">
<path d="M53.8574 49.6407L53.7398 49.1655L53.7318 49.0543L53.7166 48.9479L53.6942 48.8455L53.4462 48.2823L53.4158 48.1775L53.3782 48.0783L52.9678 47.4263L52.9206 47.3279L52.8678 47.2351L52.2166 46.4303L52.1534 46.3407L51.0022 45.1119L50.9294 45.0263L48.967 43.0423L45.8862 39.9727L41.5502 35.6631L36.5246 30.6703L31.551 25.7287L27.3678 21.5735L24.531 18.7615L22.8614 17.1319L21.9926 16.3487L21.867 16.2271L21.4358 15.9535L21.3862 15.9135L21.3886 15.8303L21.3646 15.3383L21.283 14.5871L21.2006 14.0999L21.0182 13.3447L20.871 12.8799L20.5934 12.1415L20.3782 11.7143L20.0086 11.0151L19.547 10.3887L19.2566 10.0079L18.6846 9.4695L17.9838 9.0359L17.6294 8.7239L16.7806 8.4055L16.3838 8.1623L15.4014 7.9567L14.9782 7.7775L13.887 7.6807L12.6982 7.7031L12.295 7.5711L11.0726 7.7031L10.6846 7.6079L9.48458 7.8127L9.11979 7.7463L7.98938 7.9863L6.93818 8.2047L6.00858 8.3295L6.27898 8.4023L5.46378 8.4095L5.70218 8.4911L5.93178 8.5943L5.21258 8.4567L5.40538 8.5575L5.58538 8.6767L4.94618 8.3679L4.53738 8.0279L4.08938 7.6119L4.01898 7.5511L3.66938 7.3399L3.43498 7.2871L3.34138 7.2703L3.61018 7.3071L3.55498 7.2799L3.35978 7.2479L3.26858 7.2447L3.26778 7.2255L3.18618 7.2327L3.16858 7.2207L3.10218 7.2351L3.01978 7.3639L2.80218 7.3583L2.71898 7.4047L2.74298 7.4095L2.65178 7.4703L2.69258 7.4647L2.59658 7.5399L2.65258 7.5223L2.55418 7.6111L2.21178 7.9359L2.19098 7.9935L2.62378 7.5807L2.52698 7.6815L2.16218 8.0631L2.15658 8.1175L1.58858 8.9111L1.57658 9.0143L1.01658 10.0935L1.01738 10.2407L0.599785 11.4327L0.626985 11.6191L0.458984 12.7655L0.526184 12.9807L0.602984 14.0711L0.721384 14.3023L1.00058 15.3575L1.17898 15.5887L1.60298 16.6119L2.08618 17.5839L2.58298 18.5143L3.06378 19.4079L3.54538 20.2583L4.05098 21.0551L4.58138 21.7895L4.92298 22.0935L5.48058 22.7663L6.05898 23.3623L6.66218 23.8783L7.06938 24.1215L7.70698 24.5559L8.38858 24.9119L8.83498 25.0791L9.54618 25.3455L10.2918 25.5223L10.7494 25.6111L11.4966 25.6887L11.9654 25.7095L12.2102 25.7023L12.2918 25.8175L12.4046 25.9503L12.5278 26.0711L12.8542 26.4631L12.991 26.5727L13.8806 27.3327L15.7134 28.7767L15.8566 28.8719L19.0102 31.3151L23.667 34.9175L29.2054 39.2015L34.8014 43.5287L39.6318 47.2623L43.0702 49.9151L45.2902 51.5999L46.659 52.5815L46.7542 52.6335L47.6374 53.1751L47.7358 53.2167L47.839 53.2511L48.5406 53.5743L48.643 53.5991L48.7494 53.6167L49.3406 53.7895L49.4446 53.7991L49.5526 53.8007L49.663 53.7967L50.151 53.8511L50.255 53.8407L50.3622 53.8239L50.471 53.8007L50.583 53.7711L50.6958 53.7359L51.0686 53.7151L51.1718 53.6783L51.275 53.6359L51.3798 53.5879L51.4854 53.5359L51.5918 53.4783L51.8542 53.4295L51.947 53.3751L52.039 53.3175L52.131 53.2551L52.2238 53.1895L52.3142 53.1207L52.4046 53.0479L52.4942 52.9719L52.5822 52.8927L52.6678 52.8111L52.7526 52.7263L52.8358 52.6399L52.9166 52.5503L52.9942 52.4591L53.0702 52.3655L53.1438 52.2711L53.2142 52.1751L53.2814 52.0775L53.3454 51.9791L53.4062 51.8807L53.4638 51.7807L53.5166 51.6815L53.567 51.5823L53.6134 51.4831L53.6558 51.3839L53.6694 51.1199L53.7118 51.0071L53.7518 50.8951L53.7854 50.7847L53.8142 50.6759L53.839 50.5695L53.8102 50.1983L53.831 50.0807L53.8462 49.9663L53.8566 49.8543L53.8598 49.7463L53.8574 49.6407Z" fill="white"/>
<path d="M39.1903 33.2915C39.5206 33.625 40.188 34.3157 40.5144 34.6424C44.2179 38.3499 47.9201 42.0585 51.6212 45.7683C52.5132 46.5909 53.2296 47.5854 53.7272 48.6921C54.0493 49.4627 54.117 50.316 53.9204 51.1278C53.7238 51.9396 53.2731 52.6674 52.6341 53.2053C51.8976 53.7013 51.0292 53.9647 50.1413 53.9613C50.4677 53.8051 50.7187 53.5258 50.8391 53.1846C50.9596 52.8434 50.9397 52.4684 50.7837 52.1419C50.6262 51.7108 50.3843 51.3154 50.0721 50.979C48.9764 49.8792 47.8404 48.8189 46.7044 47.76C45.844 46.958 44.967 46.1733 44.085 45.3947C43.0261 44.46 41.9504 43.5442 40.8891 42.6122C40.0791 41.9009 39.2826 41.1744 38.4757 40.4596C37.5393 39.6299 36.4209 38.6524 35.4561 37.8025L39.1903 33.2915Z" fill="#F5A2C5"/>
<path d="M29.5909 23.8129L25.3675 28.8619C24.9905 28.5452 24.6099 28.2517 24.2592 27.926C23.2515 26.9902 22.218 26.0772 21.2748 25.0794C19.5128 23.618 20.3212 22.7425 20.4436 22.3769C20.7352 21.506 21.5113 20.7861 21.7469 19.9005C22.0101 19.0545 22.0621 18.1569 21.8981 17.2862C21.8419 17.0388 21.7729 17.3041 21.6577 17.0756C20.6594 21.8643 18.4731 26.9206 13.7169 25.7538C13.9218 25.4937 14.1513 25.2541 14.4024 25.0383C15.1265 24.3292 15.589 23.3957 15.7144 22.39C15.8387 21.5895 15.8984 20.7803 15.893 19.9702C15.8977 18.0957 15.1621 16.2951 13.8462 14.9601C12.6021 13.7406 11.0282 12.9121 9.31859 12.5769C7.92619 12.3115 6.62189 11.7032 5.52359 10.807C5.15669 10.4426 4.84059 10.0303 4.58399 9.58127C4.16029 8.87737 3.79519 8.13817 3.33789 7.28857C3.69449 7.47697 4.04909 7.55587 4.22519 7.77687C4.83459 8.54197 5.57739 8.50897 6.43539 8.36317C8.09779 8.08057 9.76849 7.80097 11.4474 7.67427C13.2348 7.52007 15.0344 7.75907 16.7196 8.37447C17.658 8.72567 18.5095 9.27538 19.2159 9.98598C19.9224 10.6967 20.467 11.5514 20.8127 12.4919C21.2345 13.5367 21.4753 14.6458 21.5245 15.7715C21.5317 15.9048 21.5854 16.0313 21.6761 16.1293C22.6618 17.052 23.6788 17.9422 24.6466 18.883C26.2319 20.4243 27.7872 21.9965 29.3546 23.5562C29.4236 23.6249 29.4868 23.6995 29.5909 23.8129Z" fill="#F5A2C5"/>
<path d="M50.1143 54.3627C48.7523 54.2602 47.4482 53.7694 46.3565 52.9486C35.2877 44.5955 23.6393 35.5924 12.6471 26.8974C12.5816 26.8456 12.5307 26.7776 12.4994 26.7002C12.3235 26.5575 12.1649 26.3948 12.0267 26.2154C12.001 26.2158 11.9748 26.2158 11.949 26.2158C7.10804 26.2162 3.86154 22.0224 1.97644 18.4576C0.324841 15.3357 -1.07868 11.9744 1.41664 8.23099C1.98894 7.41539 2.49754 6.86339 3.13814 6.79269C3.81004 6.71419 4.38034 7.18729 5.12874 7.86459C5.68814 7.76769 6.25724 7.65679 6.83264 7.54469C9.97994 6.93139 13.2346 6.29659 16.19 7.57199C17.7957 8.27569 19.178 9.40559 20.187 10.8391C21.196 12.2727 21.7932 13.9551 21.9139 15.704C27.585 20.9228 33.3041 26.6814 38.8361 32.2525C42.2697 35.7104 45.8205 39.2861 49.2736 42.6424C49.6338 43.026 50.0268 43.4119 50.4377 43.815C52.8166 46.1525 56.0744 49.3533 53.4877 52.8791C53.0626 53.3512 52.542 53.7277 51.9604 53.9834C51.3789 54.2392 50.7496 54.3685 50.1143 54.3627ZM14.0525 26.785C24.8006 35.2768 36.1432 44.0377 46.9119 52.1666C47.8331 52.8815 48.9433 53.3114 50.1057 53.4033C50.5976 53.4081 51.0852 53.3111 51.5379 53.1184C51.9906 52.9257 52.3985 52.6416 52.7361 52.2838C54.8088 49.4557 52.1291 46.8228 49.765 44.5002C49.3439 44.0869 48.9416 43.6916 48.5893 43.315C45.1455 39.9682 41.5916 36.39 38.1549 32.9291C32.976 27.7139 27.6334 22.3342 22.3267 17.3947C22.3959 18.059 22.3319 18.7304 22.1385 19.3697C21.1738 22.1121 19.2806 24.4308 16.7865 25.9244C15.9569 26.4253 15.0195 26.7204 14.0525 26.785ZM12.4365 25.244C12.5582 25.244 12.6754 25.2902 12.7643 25.3733C13.6928 26.2408 15.2174 25.6912 16.3326 25.0784C18.5967 23.7078 20.3205 21.6002 21.2147 19.1092C21.3677 18.6806 21.4296 18.2247 21.3965 17.7708C21.3634 17.3169 21.236 16.8748 21.0225 16.4729C20.9749 16.3934 20.9513 16.3018 20.9545 16.2092C20.9402 14.5571 20.4464 12.9447 19.5332 11.5678C18.6199 10.191 17.3265 9.10899 15.81 8.45339C13.1256 7.29709 10.0193 7.90179 7.01624 8.48729C6.35334 8.61619 5.69904 8.74399 5.05804 8.85059C4.98644 8.86229 4.91314 8.85769 4.84364 8.83719C4.77404 8.81669 4.70994 8.78079 4.65604 8.73229C4.08034 8.20839 3.51704 7.71709 3.24394 7.74669C2.90254 7.78459 2.38034 8.52869 2.20874 8.77329C0.218941 11.7584 0.927141 14.4213 2.82474 18.0088C4.62394 21.4104 7.71774 25.4342 12.2443 25.2498H12.2498L12.4213 25.2444L12.4365 25.244Z" fill="#EF1870"/>
<path d="M58.8084 8.27538L58.7732 7.92579L58.3964 7.53938L57.7308 6.91938L56.83 6.11779L56.7484 5.87459L55.762 5.02019L54.6924 4.11378L53.6044 3.21218L52.5676 2.37218L52.3276 2.34659L51.3428 1.56901L50.566 0.979405L50.062 0.629005L49.714 0.657805L49.4884 0.549805L49.138 0.762605L48.7324 1.1706L48.214 1.78181L47.5444 2.58179L46.7996 3.47379L46.0756 4.33858L45.4732 5.05939L45.4532 5.08578L44.8036 4.57858L44.666 4.49858L44.514 4.58819L44.4756 4.59538L42.3972 7.08259L42.342 7.30099L42.4684 7.47538L42.654 7.71058L42.6212 7.97299L9.37482 47.7458L9.40842 47.7578L4.93082 62.001L4.82202 62.4746L4.80762 62.6882L4.96522 62.9762L5.12682 63.1026L5.32042 63.2682L5.60602 63.385L5.91242 63.3474L5.92762 63.3674L6.33882 63.1946L19.462 56.3818L52.7084 16.609L52.9596 16.541L53.2004 16.7002L53.4036 16.7842H53.4212L53.49 16.7434L53.6116 16.6874L55.69 14.201L55.766 13.9786L55.1356 13.2034L55.1612 13.1754L55.7644 12.4546L56.4876 11.589L57.2332 10.6978L57.902 9.89779L58.4108 9.27778L58.7404 8.80659L58.6588 8.65458L58.8084 8.27538Z" fill="white"/>
<path d="M52.059 10.453C52.5438 9.79997 53.0153 9.16547 53.486 8.53037C54.0829 7.90717 54.5591 7.17867 54.8903 6.38177C54.9322 6.25327 54.9334 6.11487 54.8938 5.98567C54.4796 5.04507 53.8488 4.21567 53.053 3.56537C52.4325 3.02267 51.8061 2.48667 51.1885 1.94069C50.7612 1.56295 50.3444 1.17333 49.9229 0.789032L49.9835 0.678223C50.2854 0.788713 50.5748 0.930552 50.8471 1.10142C52.4562 2.35367 54.065 3.60747 55.6392 4.90287C56.5507 5.65287 57.398 6.48087 58.2724 7.27577C58.3649 7.36237 58.4521 7.45467 58.5334 7.55187C59.0795 8.18687 59.5802 8.92517 59.0638 9.57537C58.0577 10.8423 57.208 11.9299 56.177 13.1771C56.0799 13.2946 55.8597 13.4486 55.7724 13.5548C55.795 13.6105 55.276 13.3691 55.2921 13.3906C55.8801 14.1734 55.8801 14.1731 55.2353 14.9449C54.7134 15.5695 54.1919 16.1945 53.5984 16.9053C53.2912 16.555 53.0238 16.1717 52.8011 15.7625C52.7171 15.5601 52.2207 15.7445 52.3325 15.3489C50.9853 13.6345 49.1207 12.7053 47.6787 10.8704C47.8245 10.6358 49.1327 8.96857 49.3001 8.69767C49.4351 8.47927 49.384 8.33367 49.1733 8.16967L52.059 10.453Z" fill="#F5A2C5"/>
<path d="M35.2954 37.6548C34.8164 38.2236 34.3459 38.7786 33.8794 39.3369C30.0783 43.8856 26.2776 48.4347 22.4773 52.9841C21.5835 54.0539 20.6946 55.1277 19.7911 56.1892C19.6368 56.3694 19.45 56.519 19.2404 56.63C15.0627 58.8065 10.882 60.9773 6.69841 63.1424C6.45601 63.268 5.33301 62.871 5.33301 62.871L16.7958 54.3738L20.2325 51.0596C20.2325 51.0596 24.3692 47.1027 35.4564 33.6493C47.6788 18.075 50.6161 14.4585 50.6161 14.4585C50.6161 14.4585 52.1287 15.6875 52.3366 15.9214C52.5217 16.1297 52.6893 16.3535 52.888 16.5994L39.0446 33.1611L35.2954 37.6548Z" fill="#F5A2C5"/>
<path d="M4.80176 62.9934L21.4823 45.3493L49.0166 11.0054L52.211 13.6494C52.211 13.6494 33.1691 36.4774 27.2297 44.4051C21.9139 51.5005 5.33276 63.56 5.33276 63.56L4.80176 62.9934Z" fill="#F5A2C5"/>
<path d="M4.80331 63.1946C4.68851 63.1966 4.57701 63.1563 4.49001 63.0814C4.40301 63.0065 4.34661 62.9022 4.33151 62.7884C4.32671 62.4833 4.36001 62.1789 4.43071 61.8821L8.91781 47.6017C8.93661 47.5416 8.96701 47.4859 9.00731 47.4376L42.1651 7.75831L42.1252 7.70671C42.0866 7.65691 42.0582 7.59991 42.0416 7.53911C42.025 7.47821 42.0206 7.41471 42.0286 7.35221C42.0366 7.28961 42.0568 7.22931 42.0882 7.17451C42.1195 7.11981 42.1613 7.07181 42.2112 7.03321C42.2611 6.99471 42.3181 6.96631 42.379 6.94981C42.4398 6.93331 42.5033 6.92901 42.5659 6.93701C42.6284 6.94511 42.6888 6.96541 42.7434 6.99681C42.7981 7.02821 42.8461 7.07011 42.8846 7.12001L43.0463 7.32941C43.0857 7.38021 43.1145 7.43851 43.1309 7.50071C43.1472 7.56301 43.1509 7.62781 43.1416 7.69151L43.0971 8.03681C43.0849 8.12661 43.0475 8.21111 42.9893 8.28061L9.80491 47.9806L5.35651 62.1329C5.31781 62.3103 5.29361 62.4906 5.28421 62.672C5.29271 62.7975 5.25271 62.9215 5.17231 63.0184C5.09201 63.1152 4.97751 63.1775 4.85261 63.1923C4.83581 63.1939 4.81941 63.1946 4.80331 63.1946Z" fill="#EF1870"/>
<path d="M5.63747 63.8944L5.61567 63.8936C5.52197 63.8911 5.43117 63.861 5.35467 63.8069C5.27567 63.7929 5.19917 63.7676 5.12737 63.7319C5.06177 63.6968 5.00507 63.6471 4.96177 63.5866C4.90967 63.5214 4.85137 63.4614 4.78757 63.4077C4.62387 63.2699 4.48637 63.1037 4.38167 62.9171C4.30087 62.6002 4.32317 62.2657 4.44537 61.9624C4.44767 61.9522 4.47077 61.8663 4.47387 61.8569L8.95077 47.6132C8.96967 47.5528 9.00037 47.4968 9.04097 47.4484L42.2031 7.90931L42.1383 7.82801C42.0988 7.77621 42.0667 7.71921 42.043 7.65851C42.0078 7.61321 41.9719 7.56551 41.9531 7.53701C41.9142 7.47861 41.8884 7.41241 41.8778 7.34311C41.8671 7.27371 41.8718 7.20281 41.8914 7.13541L41.9438 6.95691C41.9626 6.89431 41.9937 6.83601 42.0352 6.78541L44.1063 4.28851C44.1773 4.20341 44.2755 4.14531 44.3844 4.12411C44.4605 4.10891 44.5389 4.10971 44.6146 4.12651C44.6904 4.14331 44.7618 4.17581 44.8242 4.22171C45.8016 5.04991 46.9649 5.94521 48.1969 6.89281C51.0063 9.05421 54.1906 11.5042 56.0688 13.9046C56.1472 14.0048 56.1826 14.1322 56.1671 14.2585C56.1517 14.3849 56.0866 14.5 55.9864 14.5784C55.8861 14.6568 55.7587 14.6922 55.6324 14.6767C55.506 14.6613 55.3909 14.5963 55.3125 14.496C53.5094 12.1909 50.3758 9.78031 47.611 7.65381C46.5141 6.80961 45.4703 6.00691 44.5563 5.24951L42.9149 7.22881C42.9264 7.25131 42.936 7.27471 42.9438 7.29871C42.9656 7.32601 42.9844 7.34911 43.0008 7.36671C43.0597 7.41021 43.1079 7.46651 43.1418 7.53141C43.1756 7.59631 43.1942 7.66811 43.1961 7.74131L43.2031 8.02371C43.2062 8.14071 43.1665 8.25471 43.0914 8.34441L9.83787 47.9921L5.37147 62.2147C5.35387 62.2788 5.30857 62.446 5.28987 62.5546C5.33277 62.603 5.39257 62.6585 5.44417 62.7069C5.51287 62.7717 5.58007 62.8366 5.63987 62.9022C5.66137 62.9085 5.68247 62.9155 5.70277 62.9226C5.85177 62.8796 5.99717 62.8247 6.13747 62.7585L19.1559 55.9999L52.3407 16.3011C52.4036 16.2253 52.4885 16.171 52.5836 16.1456L52.8352 16.0776C52.9088 16.0575 52.9862 16.0553 53.0608 16.0713C53.1355 16.0873 53.2052 16.1209 53.2641 16.1694C53.3075 16.2 53.3535 16.2266 53.4016 16.2491C53.4865 16.2148 53.5785 16.2017 53.6696 16.2108C53.7818 16.2244 53.8856 16.2772 53.9627 16.3598C54.0398 16.4424 54.0853 16.5495 54.0912 16.6624C54.0971 16.7752 54.063 16.8866 53.9949 16.9767C53.9267 17.0669 53.829 17.1301 53.7188 17.1553C53.6884 17.1678 53.6501 17.1862 53.6251 17.1971C53.4953 17.2577 53.3469 17.265 53.2118 17.2174C53.129 17.1827 53.0306 17.1389 52.9337 17.0882L19.8309 56.6897C19.79 56.7383 19.74 56.7784 19.6836 56.8077L6.56057 63.6194C6.27337 63.7695 5.95997 63.8629 5.63747 63.8944Z" fill="#EF1870"/>
<path d="M53.4172 17.264L53.4102 17.2636C53.2736 17.2608 53.1436 17.2042 53.0485 17.1062C50.7151 14.7369 48.2109 12.5421 45.5563 10.5394C44.2821 9.52336 43.0782 8.56396 42.0297 7.66476C41.9753 7.61806 41.932 7.55986 41.9031 7.49426C41.8742 7.42866 41.8603 7.35746 41.8625 7.28586C41.8766 6.81586 44.1758 4.15806 44.5375 4.04166C44.6102 4.01876 44.6873 4.01316 44.7625 4.02526C44.9579 4.05726 45.1368 4.18856 45.6118 4.59246C45.6704 4.64246 45.7172 4.68306 45.7414 4.70146C45.7918 4.73946 45.8341 4.78696 45.8661 4.84126C45.8981 4.89556 45.919 4.95566 45.9277 5.01806C45.9365 5.08056 45.9328 5.14406 45.917 5.20506C45.9012 5.26606 45.8735 5.32336 45.8356 5.37376C45.7976 5.42406 45.7501 5.46636 45.6958 5.49836C45.6415 5.53036 45.5814 5.55126 45.519 5.56006C45.4565 5.56876 45.393 5.56516 45.332 5.54926C45.271 5.53346 45.2136 5.50586 45.1633 5.46786C45.1321 5.44446 45.0688 5.39126 44.9899 5.32376C44.9329 5.27526 44.8258 5.18426 44.725 5.10266C44.2774 5.56786 43.3532 6.66746 42.9625 7.19796C43.925 8.01086 45.011 8.87686 46.1547 9.78856C48.7237 11.7399 51.1615 13.858 53.4524 16.1292L55.3227 13.8925C55.4043 13.7949 55.5214 13.7337 55.6481 13.7225C55.7749 13.7112 55.9009 13.7507 55.9985 13.8323C56.0961 13.914 56.1572 14.031 56.1685 14.1578C56.1798 14.2845 56.1403 14.4105 56.0586 14.5081L53.9797 16.9952C53.9186 17.0685 53.837 17.1219 53.7453 17.1484C53.7383 17.1531 53.7125 17.1694 53.6906 17.1828C53.6073 17.2312 53.5135 17.2591 53.4172 17.264Z" fill="#EF1870"/>
<path d="M55.3883 15.0416C55.2971 15.0416 55.2078 15.0157 55.1309 14.9668C55.0539 14.9179 54.9924 14.8481 54.9537 14.7656C54.9149 14.6831 54.9004 14.5912 54.912 14.5008C54.9235 14.4103 54.9605 14.325 55.0188 14.2549L58.9352 9.53969C59.022 9.43709 59.0667 9.30559 59.0605 9.17139C59.0543 9.03719 58.9975 8.91029 58.9016 8.81629C57.8813 7.80839 55.3961 5.37129 54.3594 4.51159C53.3852 3.70409 52.6219 3.02049 52.0094 2.47129C50.9445 1.51859 50.2664 0.889678 49.8485 0.921318C49.4422 0.954518 48.8485 1.69398 47.8649 2.91899C47.3367 3.57639 46.6797 4.39479 45.8375 5.37249C45.7544 5.46909 45.6364 5.52869 45.5094 5.53819C45.3823 5.54769 45.2567 5.50639 45.1602 5.42329C45.0636 5.34019 45.004 5.22219 44.9945 5.09509C44.985 4.96809 45.0263 4.84249 45.1094 4.74589C45.9414 3.78069 46.593 2.96979 47.1156 2.31819C48.3383 0.795538 48.9524 0.031478 49.7703 -0.035712C50.5781 -0.102112 51.2687 0.519358 52.65 1.75648C53.2563 2.30019 54.0117 2.97679 54.9719 3.77249C56 4.62439 58.2977 6.87049 59.5766 8.13339C59.8446 8.39579 60.0035 8.74969 60.0215 9.12439C60.0394 9.49899 59.9151 9.86649 59.6735 10.1533L55.7578 14.8682C55.7128 14.9225 55.6563 14.9662 55.5924 14.9962C55.5286 15.0261 55.4589 15.0417 55.3883 15.0416Z" fill="#EF1870"/>
</svg>
