<svg width="71" height="66" viewBox="0 0 71 66" fill="none" xmlns="http://www.w3.org/2000/svg">
<path d="M11.2744 64.2637C11.7798 64.179 12.2854 64.0956 12.7906 64.0095C14.6264 63.6967 16.4615 63.3794 18.2981 63.0708C19.6208 62.8486 20.9469 62.6459 22.2689 62.4194C23.5315 62.2031 24.7905 61.9653 26.0518 61.7411C26.9243 61.586 27.7991 61.4431 28.6712 61.2856C30.0888 61.0296 31.5056 60.7692 32.9216 60.5045C33.9645 60.3088 35.0037 60.0936 36.0472 59.9008C37.5487 59.6233 39.0525 59.3583 40.5552 59.0878C40.7162 59.0588 40.8783 59.0341 41.0374 58.997C41.6143 58.8627 41.7857 58.9292 42.1451 59.452L11.2929 64.3722L11.2744 64.2637Z" fill="#90B8E2"/>
<path d="M24.2617 55.6888L28.7262 54.9844L28.7905 55.0892C28.64 55.1937 28.501 55.3629 28.337 55.3923C27.2479 55.5871 26.1555 55.7624 25.0596 55.9182C24.9184 55.9582 24.7689 55.9579 24.6279 55.9173C24.4869 55.8768 24.3601 55.7977 24.2617 55.6888Z" fill="#90B8E2"/>
<path d="M47.3397 27.5976L47.2738 27.1739L46.829 26.5264L46.0302 25.9164L44.4283 24.7346L43.799 24.2764L43.8217 17.9945L43.5344 14.935L43.6281 14.5915L43.0038 12.2189L42.0603 10.0083L40.8159 8.00087L39.2935 6.23407L39.1715 5.79307L37.3739 4.27837L35.3563 3.06917L33.1564 2.18807L32.8754 1.82061L30.5187 1.28075L28.0635 1.09844L25.5557 1.27579L25.2189 1.04736L22.7077 1.58083L20.2374 2.46197L17.854 3.67287L17.5859 3.57347L15.3531 5.07937L13.2922 6.86237L11.4414 8.88937L9.83533 11.1225L8.50383 13.5201L7.47163 16.0376L6.75823 18.6281L6.37663 21.3678L6.37903 24.4198L6.39533 28.9985L4.45243 29.3084L2.90733 29.9237L2.26003 30.6242L1.60643 31.7819L1.37413 32.6185L1.36133 60.0497L1.62363 60.8994L3.23183 62.0806L4.83943 63.2562L5.39533 64.0508L6.12153 64.5964L6.81133 64.6156L7.73873 64.5184L9.50903 64.4449L10.5958 64.131L43.6224 58.8637L45.403 58.4101L45.8322 58.4431L46.7389 57.592L47.1695 56.8974L47.4689 55.8312L47.5065 29.1725L47.6271 28.5449L47.3397 27.5976ZM30.2257 47.1851L29.5908 47.8266L30.7876 53.5781L30.7493 54.2052L30.3932 54.7165L29.815 54.9751L24.8418 55.7681L24.264 55.694L23.9102 55.2961L23.875 54.6811L25.1091 48.5414L24.4741 48.1023L23.9684 47.544L23.5926 46.8749L23.3612 46.1208L23.2831 45.3107L23.3613 44.4756L23.5928 43.6477L23.9686 42.8588L24.4743 42.1392L25.0907 41.5166L25.7938 41.0148L26.5567 40.6531L27.3501 40.4456L28.1435 40.4002L28.9062 40.5184L29.6093 40.7959L30.2257 41.222L30.7316 41.7803L31.1076 42.4494L31.3388 43.2034L31.4169 44.0136L31.3388 44.8486L31.1076 45.6765L30.7316 46.4655L30.2257 47.1851ZM23.0263 9.81977L24.5039 9.29287L25.8461 9.00747L27.3817 8.89887L28.8304 9.00687L29.9349 9.25987L31.2721 9.79537L32.2444 10.378L33.2422 11.2186L34.0921 12.2051L34.7241 13.2245L35.3108 14.6006L35.6519 15.8962L35.8273 17.9644L35.811 24.3075L14.3976 27.7224L14.3892 24.2225L14.4183 21.9128L14.6602 20.1297L15.1128 18.4867L15.7674 16.8899L16.6119 15.3692L17.6306 13.9529L18.8044 12.6673L20.1115 11.5364L21.5276 10.5813L23.0263 9.81977Z" fill="white"/>
<path d="M37.834 60.0556C37.834 60.0556 33.581 49.9575 34.6818 42.3992C35.4647 37.5441 36.7607 34.1615 36.3265 34.1494C35.4319 34.1243 33.318 34.3475 30.0235 34.1211C27.1886 33.9263 21.9945 33.7128 21.9945 33.7128C21.1021 33.7337 20.2115 33.8037 19.3268 33.9226C18.3821 34.0626 17.4321 34.1665 16.4852 34.292C15.5851 34.4113 14.6891 34.5832 13.7853 34.6441C13.2305 34.6615 12.6757 34.6083 12.1343 34.4858C9.13443 34.3785 6.63453 32.3448 5.77223 31.7203C5.09933 31.2331 4.30583 30.532 3.59863 29.977C4.51813 29.6192 5.46153 29.3264 6.42203 29.1009C6.43193 29.3 6.43083 29.4994 6.41873 29.6984C6.38003 29.9118 6.42013 30.132 6.53163 30.3181C6.64313 30.5041 6.81843 30.6434 7.02493 30.7099C7.61493 30.9756 8.23713 31.163 8.87573 31.2676C9.92763 31.3791 10.9946 31.3477 12.0553 31.3768C12.3905 31.386 12.5168 31.2536 12.514 30.8909C12.4966 28.562 12.5009 26.2328 12.5062 23.9037C12.53 21.7378 12.9783 19.5976 13.8256 17.6042C14.5152 16.0069 15.4377 14.5206 16.5632 13.1939C17.5747 11.8868 18.8608 10.8176 20.3306 10.0619C20.8919 9.80098 21.4869 9.61988 22.0984 9.52388C22.4951 9.50708 22.892 9.55028 23.2758 9.65188C23.3251 9.65908 23.4063 9.74648 23.3987 9.77958C23.378 9.85028 23.3317 9.91078 23.2687 9.94908C22.3406 10.485 21.366 10.9529 20.4881 11.5607C18.5272 12.976 16.9501 14.8578 15.8995 17.0359C15.4203 17.9942 15.0683 19.0109 14.8525 20.0604C14.6822 20.7684 14.5779 21.4906 14.5409 22.2178C14.4942 24.0374 14.5205 25.8588 14.5185 27.6795C14.5237 27.7302 14.5322 27.7805 14.5438 27.8301L35.9463 24.4877C35.9561 24.6902 35.9548 24.8931 35.9424 25.0955C35.923 25.2607 35.9548 25.428 36.0334 25.5746C36.1121 25.7212 36.2339 25.8401 36.3824 25.9152C37.0621 26.3285 37.8343 26.5652 38.6289 26.6037C39.5332 26.6801 40.445 26.6719 41.3538 26.6889C41.5296 26.6759 41.704 26.6478 41.8749 26.6049V26.1707C41.8749 23.9598 41.9251 21.7474 41.8591 19.5385C41.865 17.7594 41.5564 15.9932 40.9473 14.3216C40.4099 12.9434 39.6572 11.6591 38.7173 10.5167C37.6932 9.28968 36.4335 8.28058 35.0125 7.54908C33.7299 6.86468 32.3293 6.42928 30.8847 6.26558C28.7562 6.07798 26.6137 6.12188 24.4947 6.39648C21.9846 6.43388 19.4888 6.01228 17.1303 5.15228C17.0379 5.12848 16.9544 5.07868 16.8895 5.00868C16.8247 4.93868 16.7814 4.85158 16.7647 4.75768C16.748 4.66378 16.7587 4.56698 16.7955 4.47898C16.8324 4.39098 16.8937 4.31548 16.9723 4.26138C17.6884 3.69188 18.4888 3.23718 19.3446 2.91338C20.1403 2.56088 20.954 2.25008 21.7821 1.98233C23.244 1.47711 24.7684 1.17496 26.3125 1.08435C28.4331 0.952783 30.5603 1.19767 32.5956 1.80767C33.5244 2.09148 34.4205 2.47338 35.2685 2.94688C37.0453 3.97268 38.6507 5.27018 40.0267 6.79208C41.4654 8.50748 42.5438 10.4952 43.1976 12.6365C43.8934 15.265 44.1753 17.986 44.033 20.7013C44.0222 21.8835 44.0283 23.0658 44.0078 24.2478C44.001 24.3458 44.0215 24.4438 44.067 24.5309C44.1126 24.618 44.1813 24.6907 44.2657 24.7411C44.9833 25.2605 45.6733 25.8203 46.4104 26.3096C46.7407 26.5362 47.0208 26.8283 47.2334 27.1678C47.4459 27.5073 47.5864 27.8869 47.646 28.283C47.6986 28.5357 47.7255 28.7931 47.7262 29.0513C47.7278 37.0507 47.7288 45.0501 47.7292 53.0495C47.7293 53.2434 46.8352 57.8811 46.8353 58.0749L37.834 60.0556Z" fill="#B6DBA8"/>
<path d="M14.5155 28.2099L14.3623 27.2615L35.7764 23.8467C35.8388 23.8364 35.9026 23.8387 35.9641 23.8532C36.0256 23.8677 36.0837 23.8942 36.135 23.9312C36.1862 23.9681 36.2297 24.0149 36.2628 24.0687C36.296 24.1225 36.3182 24.1824 36.3282 24.2448C36.3382 24.3072 36.3357 24.371 36.321 24.4325C36.3063 24.494 36.2795 24.5519 36.2423 24.6031C36.2052 24.6542 36.1582 24.6975 36.1043 24.7304C36.0503 24.7634 35.9904 24.7854 35.928 24.7951L14.5155 28.2099Z" fill="#5DA845"/>
<path d="M27.3908 40.5454C27.3908 40.5454 20.1208 42.6727 25.149 48.4488C25.1547 50.3325 23.8487 55.9377 23.8487 55.9377L31.005 54.3898L29.6971 48.2415C29.6971 48.2415 34.5899 40.9015 27.3908 40.5454Z" fill="#B6DBA8"/>
<path d="M24.7744 56.3467L24.1705 56.2717C24.0445 56.2637 23.9268 56.2061 23.8432 56.1115L23.5854 55.8217C23.5377 55.7681 23.5024 55.7046 23.4823 55.6357L23.458 55.5513C23.4462 55.5091 23.4402 55.4655 23.4401 55.4217L23.4362 54.7842C23.4354 54.7514 23.4385 54.7186 23.4455 54.6866L24.6166 48.856L24.2416 48.5967C24.2118 48.5757 24.1843 48.5516 24.1596 48.5248L23.6533 47.9662C23.6291 47.9394 23.6079 47.9101 23.59 47.8787L23.2143 47.2099C23.1975 47.18 23.1841 47.1483 23.1744 47.1154L22.9432 46.3615C22.9335 46.3307 22.927 46.2991 22.9236 46.267L22.8455 45.4568C22.8432 45.4267 22.8432 45.3964 22.8455 45.3662L22.9236 44.531C22.9264 44.5025 22.9317 44.4742 22.9393 44.4466L23.1705 43.6185C23.1781 43.5916 23.188 43.5655 23.2002 43.5404L23.5768 42.7513C23.588 42.7273 23.6014 42.7043 23.6166 42.6826L24.1221 41.9631C24.1375 41.9411 24.1548 41.9205 24.1736 41.9013L24.79 41.2787C24.8094 41.2593 24.8303 41.2415 24.8525 41.2256L25.5557 40.724C25.5788 40.7074 25.6034 40.693 25.6291 40.681L26.3916 40.3193C26.4186 40.3061 26.4469 40.2956 26.476 40.288L27.2697 40.081C27.3002 40.0732 27.3313 40.0685 27.3627 40.0669L28.1557 40.0209C28.1896 40.0181 28.2237 40.0197 28.2573 40.0255L29.0205 40.1443C29.0555 40.1498 29.0898 40.159 29.1229 40.1716L29.826 40.449C29.8604 40.4628 29.8931 40.4804 29.9237 40.5013L30.5393 40.9263C30.5691 40.9473 30.5966 40.9714 30.6213 40.9982L31.1291 41.5544C31.1533 41.5808 31.1743 41.6099 31.1916 41.6412L31.537 42.2498C31.5448 42.2623 31.5791 42.338 31.5854 42.3521L31.8377 43.163C31.8477 43.1937 31.8543 43.2254 31.8573 43.2576L31.9354 44.0677C31.9377 44.0979 31.9377 44.1282 31.9354 44.1583L31.8573 44.9927C31.8545 45.0213 31.8492 45.0495 31.8416 45.0771L31.6104 45.9053C31.6027 45.9317 31.5931 45.9576 31.5815 45.9826L31.2057 46.7717C31.1942 46.7959 31.1806 46.8192 31.1651 46.8412L30.6596 47.5607C30.6441 47.5827 30.6269 47.6033 30.6081 47.6224L30.1541 48.081L31.2987 53.5802C31.3074 53.6218 31.3103 53.6644 31.3073 53.7068L31.269 54.3341C31.2639 54.4222 31.2344 54.5072 31.1838 54.5794L30.8276 55.0904C30.7778 55.162 30.7095 55.2187 30.6299 55.2544L30.0518 55.513C30.0134 55.5301 29.9729 55.5421 29.9315 55.549L24.7744 56.3467ZM24.4369 55.3349L24.8455 55.392L24.8862 55.3881L29.7174 54.6107L30.1166 54.4326L30.3189 54.1412L30.3455 53.7131L29.1611 48.024C29.1451 47.9465 29.1485 47.8662 29.171 47.7903C29.1935 47.7144 29.2344 47.6452 29.29 47.5889L29.8971 46.9756L30.3564 46.3224L30.6963 45.6076L30.9049 44.8607L30.9752 44.1146L30.9057 43.3982L30.6893 42.6896L30.3846 42.1631L29.9494 41.6857L29.4228 41.3224L28.8205 41.0849L28.1603 40.9818L27.4658 41.0224L26.7619 41.206L26.0783 41.5303L25.4439 41.9834L24.8845 42.5474L24.4252 43.2013L24.0838 43.917L23.876 44.6631L23.8057 45.41L23.8752 46.1264L24.0768 46.785L24.401 47.3615L24.8338 47.8389L25.4229 48.2467C25.4999 48.3 25.5596 48.3748 25.5946 48.4617C25.6296 48.5486 25.6384 48.6439 25.6198 48.7358L24.3963 54.8272L24.4369 55.3349Z" fill="#5DA845"/>
<path d="M11.285 31.7947L10.6717 31.7674L10.4881 31.7736L9.27878 31.7189L8.12088 31.5392L7.16698 31.2525L6.45218 30.8697C6.43658 30.8588 6.38188 30.8197 6.36778 30.8064L6.23418 30.6877C6.20948 30.665 6.18618 30.6407 6.16468 30.615L6.06628 30.4924C6.04448 30.4654 6.02578 30.4361 6.01078 30.4049L5.94828 30.2791C5.94128 30.2595 5.90688 30.1689 5.90298 30.1486L5.87638 30.022C5.86948 29.9902 5.86608 29.9577 5.86628 29.9252L5.84668 24.2541L5.92098 21.2095L6.29988 18.4564L7.01548 15.8463L8.04988 13.3143L9.38428 10.9041L10.9945 8.65962L12.8506 6.62202L14.9194 4.82752L17.1624 3.31112L19.5389 2.09942L22.3217 1.133L24.8288 0.600199L27.3788 0.415039L29.8804 0.596289L30.314 0.681449L32.6796 1.22363L34.9632 2.13142L37.428 3.62442L39.2811 5.18222L40.8905 7.04002L41.1514 7.41112L42.4272 9.46812L43.4178 11.7752L44.0733 14.2478C44.0764 14.2587 44.0787 14.2697 44.0811 14.2814L44.1412 14.6025L44.4412 17.758L44.4147 25.2978C44.4147 25.3782 44.3943 25.4572 44.3553 25.5275L44.2873 25.6752C44.2642 25.7387 44.228 25.7968 44.1811 25.8455L43.9303 26.1048C43.9012 26.1344 43.8687 26.1604 43.8334 26.1822L43.4404 26.4197C43.4176 26.4336 43.3935 26.4454 43.3686 26.4549L42.9154 26.6455C42.8887 26.6613 42.8604 26.6744 42.8311 26.6846L42.2045 26.9057L41.4201 27.0525L40.5881 27.0869L40.2108 27.0565L39.7912 27.0682L38.9717 27.0315L38.1858 26.9393L37.4584 26.7947L36.8162 26.6026L36.2725 26.3619C36.2457 26.3499 36.2201 26.3355 36.1959 26.319L35.8436 26.0752C35.805 26.049 35.7705 26.0171 35.7412 25.9807L35.5319 25.7205C35.4841 25.6618 35.4514 25.5924 35.4366 25.5182L35.3803 25.2487C35.373 25.2158 35.3696 25.1823 35.3701 25.1487L35.3889 18.0627L35.2178 16.0775L34.8881 14.822L34.3241 13.5127L33.7257 12.5572L32.9202 11.6314L31.9749 10.8439L31.0663 10.3064L29.7975 9.80482L28.7647 9.57432L27.3866 9.47752L25.921 9.58612L24.6452 9.86182L23.228 10.3712L21.7858 11.1088L20.421 12.0338L19.1593 13.1299L18.0265 14.3759L17.0429 15.7494L16.228 17.222L15.5975 18.7681L15.1639 20.3564L14.935 22.0775L14.9123 30.0228C14.9108 30.073 14.9013 30.1225 14.8842 30.1697L14.8334 30.3111C14.8202 30.3477 14.8027 30.3826 14.7811 30.415L14.6944 30.5463C14.6778 30.5714 14.659 30.5949 14.6381 30.6166L14.2983 30.9174L13.7881 31.1994L12.874 31.5635L12.1053 31.7346L11.285 31.7947ZM10.7061 30.8095L11.2811 30.8353L11.9717 30.7845L12.5928 30.6463L13.0952 30.4416C13.1123 30.433 13.1522 30.4197 13.1702 30.4135L13.7584 30.1252L13.9553 29.9158L13.9584 29.8236L13.9795 22.0111L14.2256 20.1642L14.6912 18.4588L15.3647 16.8072L16.2334 15.2361L17.2818 13.772L18.4904 12.4431L19.8381 11.2728L21.2998 10.283L22.8498 9.49082L24.3842 8.94002L25.7874 8.63772L27.389 8.51972L28.9077 8.62752L30.0827 8.89162L31.4913 9.44942L32.5311 10.065L33.5929 10.951L34.4968 11.9908L35.1733 13.0713L35.7936 14.5119L36.1569 15.8736C36.1639 15.9003 36.1687 15.9274 36.171 15.9549L36.3468 18.0236L36.3304 25.101L36.3522 25.2088L36.5147 25.3721L36.7069 25.5049L37.1522 25.7057L37.6921 25.865L38.3366 25.9924L39.0507 26.0752L39.8038 26.1088L40.2444 26.0986L40.6147 26.1291L41.3186 26.1002L41.9608 25.9807L42.9757 25.5783L43.2835 25.3932L43.4233 25.2408C43.4324 25.2167 43.4431 25.1932 43.4553 25.1705L43.4835 17.8018L43.1413 14.4768L42.5124 12.0854L41.578 9.90962L40.1327 7.62682L38.6084 5.86272L36.853 4.39162L36.5491 4.19322L34.5382 2.98852L32.3944 2.13692L29.7483 1.54553L27.3764 1.37287L24.9624 1.54865L22.2835 2.13302L19.9179 2.97992L17.6483 4.13692L15.5022 5.58852L13.5194 7.30882L11.7389 9.26342L10.1936 11.4174L8.91308 13.7291L7.92168 16.1556L7.23808 18.6502L6.87638 21.2877L6.80608 24.2642L6.84748 29.9314L7.00528 30.0892L7.50138 30.3533L8.33108 30.6033L9.33808 30.7603L10.485 30.8142L10.7061 30.8095Z" fill="#5DA845"/>
<path d="M6.77602 65.2029H6.75492L6.14082 65.1756C6.04552 65.1712 5.95352 65.1386 5.87682 65.0818L5.16272 64.5537L1.35652 61.367C1.28532 61.3077 1.23292 61.229 1.20572 61.1404L0.943197 60.2912C0.929157 60.2459 0.922046 60.1987 0.922106 60.1513L0.840856 32.531C0.840306 32.4872 0.846096 32.4435 0.858046 32.4013L1.09002 31.5662C1.10102 31.5265 1.11702 31.4885 1.13772 31.4529L1.80572 30.306C1.82532 30.2719 1.84922 30.2404 1.87682 30.2123L2.55022 29.5216C2.58212 29.4891 2.61842 29.4612 2.65802 29.4388L2.76042 29.381C2.78962 29.3646 2.82052 29.3512 2.85262 29.3412L4.40652 28.8545L6.26662 28.5529C6.32892 28.5429 6.39252 28.5454 6.45392 28.56C6.51522 28.5746 6.57312 28.6012 6.62412 28.6382C6.67522 28.6752 6.71852 28.7219 6.75152 28.7756C6.78452 28.8294 6.80672 28.8891 6.81662 28.9513C6.82662 29.0136 6.82422 29.0772 6.80952 29.1386C6.79492 29.1999 6.76832 29.2578 6.73132 29.3089C6.69432 29.3599 6.64762 29.4032 6.59392 29.4362C6.54022 29.4693 6.48052 29.4914 6.41822 29.5013L4.62602 29.7865L3.18932 30.2412L2.60572 30.8404L1.99872 31.8826L1.80102 32.5943L1.88152 60.0763L2.08072 60.7216L5.75572 63.7998L6.32912 64.2232L6.75572 64.242L16.1135 63.0341L44.3088 58.5365L45.7627 58.0709L46.5408 57.292L46.8963 56.6951L47.1635 55.7451L47.1877 28.6443L47.1291 28.2943L46.8776 27.4857L46.5174 26.9615L43.6565 24.8365C43.5535 24.7617 43.4844 24.649 43.4645 24.5233C43.4446 24.3976 43.4754 24.2692 43.5502 24.1662C43.625 24.0632 43.7377 23.9942 43.8634 23.9742C43.9891 23.9543 44.1175 23.9851 44.2205 24.0599L47.1612 26.2451C47.2016 26.2758 47.237 26.3127 47.2658 26.3545L47.7104 27.0021C47.7376 27.0429 47.759 27.0873 47.7737 27.1341L48.0627 28.0826L48.1416 28.5732L48.1229 55.8122C48.123 55.8558 48.1172 55.8992 48.1057 55.9411L47.8041 57.0162C47.7922 57.0569 47.7754 57.0959 47.7541 57.1326L47.3354 57.8349C47.3147 57.8686 47.2904 57.8998 47.2627 57.9279L46.3877 58.8037C46.3459 58.8452 46.297 58.8788 46.2432 58.9029L46.0682 58.981L44.5338 59.4669L44.0268 59.5544L16.251 63.9842L6.83772 65.199C6.81732 65.2018 6.79662 65.2032 6.77602 65.2029Z" fill="#5DA845"/>
<path d="M68.2835 24.4127L68.3051 24.2383L68.3187 24.0639L68.3243 23.8903L68.2635 23.8551L68.2627 23.6839L68.2547 23.5135L68.2387 23.3447L68.1811 23.3111L68.1603 23.1471L68.1315 22.9847L68.0755 22.9519L68.0427 22.7951L68.0019 22.6423L67.9507 22.6111L67.9067 22.4639L67.8563 22.4335L67.8091 22.2927L67.7603 22.2631L67.7115 22.1303L67.6651 22.1015L67.6147 21.9767L67.5707 21.9503L67.5259 21.9215L67.4795 21.8095L67.4379 21.7839L67.3955 21.7567L67.3563 21.6583L67.3179 21.6343L67.2795 21.6103L67.2387 21.5847L67.2139 21.5063L67.1795 21.4839L67.1443 21.4615L67.1091 21.4391L67.0731 21.4159L67.0371 21.3919L67.0003 21.3679L67.0091 21.3231L66.9787 21.3039L66.9491 21.2839L66.9195 21.2639L66.8883 21.2439L66.8579 21.2239L66.8291 21.2047L66.8003 21.1847L66.7699 21.1647L66.7403 21.1455L66.7139 21.1271L66.6875 21.1087L66.6587 21.0895L66.6307 21.0711L66.6075 21.0551L66.5851 21.0383L66.5587 21.0207L66.5347 21.0047L66.4251 20.9823L66.4003 20.9647L66.3763 20.9471L66.3515 20.9303L66.3283 20.9135L66.3083 20.8991L66.2899 20.8855L66.2707 20.8719L66.1243 20.8343L66.1051 20.8199L66.0883 20.8071L65.9291 20.7719L65.9107 20.7583L65.8963 20.7455L65.8827 20.7351L65.7123 20.7023L65.7003 20.6919L65.5275 20.6655L65.5163 20.6559L65.5099 20.6487L65.3323 20.6295L65.3283 20.6231L65.1499 20.6127L65.1491 20.6087L64.9707 20.6055L64.7915 20.6119L64.7947 20.6103L64.6171 20.6247L64.4395 20.6487L64.2643 20.6815L64.0899 20.7223L63.9179 20.7719L63.7499 20.8295L63.5827 20.8959L63.4203 20.9695L63.2611 21.0519L63.1067 21.1415L62.9563 21.2391L62.9515 21.2423L62.8059 21.3471L62.6659 21.4583L62.5307 21.5767L62.4019 21.7015L62.2755 21.8383L62.1307 22.0167L61.9427 22.2703L61.6883 22.6359L61.3219 23.1767L60.7163 24.0823L59.7283 25.5703L58.2083 27.8591L56.0963 31.0391L54.2411 33.8223L53.6571 34.6991L51.2451 38.2879L49.2147 41.2639L47.8291 43.2191L47.2419 43.9791L46.9923 44.2991L46.6155 44.6863L46.5651 44.6471L45.9931 44.1727L45.0915 43.4199L43.9995 42.5055L42.8627 41.5487L41.8235 40.6671L40.9963 39.9567L40.3707 39.4119L39.9083 39.0063L39.5683 38.7111L39.3139 38.5007L39.2419 38.4423L39.0499 38.2959L38.8971 38.1943L38.8211 38.1439L38.6867 38.0687L38.6059 38.0255L38.4715 37.9615L38.3875 37.9255L38.2507 37.8703L38.1107 37.8223L38.0251 37.7943L37.8835 37.7551L37.7955 37.7335L37.6539 37.7039L37.5627 37.6895L37.4227 37.6679L37.2811 37.6559L37.1915 37.6479L37.0523 37.6439L36.9619 37.6423L36.8259 37.6479L36.7355 37.6519L36.6035 37.6655L36.5139 37.6751L36.4219 37.6903L36.2987 37.7111L36.2083 37.7311L36.0899 37.7591L36.0019 37.7831L35.8915 37.8183L35.8067 37.8455L35.7203 37.8775L35.6211 37.9183L35.5387 37.9527L35.4555 37.9911L35.3723 38.0335L35.2915 38.0751L35.2123 38.1191L35.1331 38.1663L35.0539 38.2175L34.9939 38.2567L34.9195 38.3071L34.8467 38.3615L34.7739 38.4183L34.7019 38.4775L34.6675 38.5071L34.6643 38.5103L34.6307 38.5399L34.6019 38.5647L34.5379 38.6247L34.4739 38.6863L34.4115 38.7503L34.3499 38.8167L34.2907 38.8839L34.2331 38.9527L34.1771 39.0231L34.1227 39.0951L34.0723 39.1679L34.0219 39.2407L33.9755 39.3151L33.9531 39.3503L33.9051 39.4311L33.8595 39.5119L33.8171 39.5935L33.7779 39.6743L33.7411 39.7551L33.7115 39.8247L33.6763 39.9103L33.6443 39.9959L33.6155 40.0807L33.5875 40.1703L33.5611 40.2591L33.5387 40.3463L33.5155 40.4487L33.4963 40.5399L33.4811 40.6287L33.4651 40.7423L33.4539 40.8335L33.4475 40.9231L33.4387 41.0463L33.4363 41.1367L33.4355 41.2647L33.4387 41.3559L33.4475 41.4871L33.4555 41.5783L33.4723 41.7119L33.4867 41.8031L33.5131 41.9383L33.5323 42.0279L33.5683 42.1639L33.5939 42.2511L33.6387 42.3871L33.6707 42.4719L33.7243 42.6071L33.7851 42.7383L33.8251 42.8215L33.8939 42.9511L33.9403 43.0303L34.0179 43.1559L34.0699 43.2303L34.1555 43.3527L34.2147 43.4223L34.3107 43.5439L34.3755 43.6071L34.4987 43.7463L34.6675 43.9271L34.9027 44.1711L35.2339 44.5071L35.3059 44.5655L35.8019 45.0479L36.5419 45.7335L36.6219 45.7871L37.6867 46.7359L39.1123 47.9655L40.7723 49.3327L40.8611 49.3815L42.5843 50.7015L42.6779 50.7423L42.7739 50.7743L44.3891 51.8631L44.4859 51.8863L44.5835 51.8991L45.9523 52.6079L46.0467 52.6111L46.1395 52.6039L46.2331 52.5863L46.3259 52.5591L47.4563 52.8943L47.5387 52.8575L47.6187 52.8111L47.6971 52.7543L47.7731 52.6887L48.7139 52.7023L48.7747 52.6287L48.8315 52.5463L48.8843 52.4551L49.7075 52.2063L49.7411 52.1119L49.7707 52.0087L50.5723 51.5111L50.5803 51.4095L51.5195 50.4927L52.7715 48.9319L54.4923 46.5111L54.5283 46.5775L56.8027 43.1983L59.3707 39.2855L61.9011 35.3775L64.0619 32.0151L65.6043 29.6071L66.5987 28.0479L67.1955 27.1047L67.5451 26.5415L67.7779 26.1567L67.9363 25.8815L68.0435 25.6775L68.1203 25.5071L68.1867 25.3407L68.2451 25.1719L68.1859 25.1391L68.2371 24.9679L68.2811 24.7951L68.3163 24.6215L68.3443 24.4471L68.2835 24.4127Z" fill="white"/>
<path d="M36.1458 38.0359C36.0199 38.212 38.247 39.4653 38.2858 41.8193C38.3175 42.1011 38.4136 42.3717 38.5668 42.6102C38.9445 43.0624 39.3598 43.4818 39.8084 43.8638C40.9809 44.8664 42.1593 45.8637 43.3685 46.8213C44.7328 47.9019 46.1372 48.9318 47.5152 49.9953C47.8995 50.2589 48.2486 50.5705 48.554 50.9225C48.7624 51.2432 48.8477 51.6284 48.7941 52.007C48.7405 52.3857 48.5516 52.7321 48.2624 52.9823C48.2917 52.9937 48.3223 53.0012 48.3536 53.0046C48.4085 52.9982 48.463 52.9867 48.5173 52.9755C49.7284 52.6915 50.8022 51.9931 51.553 51.0012C52.6995 49.6419 53.7755 48.2246 54.7767 46.7549C58.5558 41.0649 62.2844 35.3412 66.0208 29.6229C66.791 28.4443 67.5616 27.2615 68.2479 26.0335C68.4922 25.5946 68.6413 25.1091 68.6855 24.6087C68.7297 24.1083 68.668 23.6041 68.5044 23.1292C68.3408 22.6542 68.0789 22.219 67.736 21.852C67.393 21.4849 66.9765 21.1942 66.5137 20.9988C65.7636 20.6739 64.9234 20.6213 64.1386 20.8502C64.2548 21.0389 64.3509 21.1986 64.4505 21.356C65.1274 22.2803 65.6733 23.2937 66.0728 24.3674C66.187 24.657 66.1892 24.9787 66.0791 25.2699C65.984 25.497 65.8731 25.7172 65.7472 25.9288C64.9264 27.2493 63.09 28.859 59.0591 35.1198C54.7823 41.7625 53.8418 44.9256 51.1831 46.841C48.8664 48.51 44.2667 42.7685 43.0743 41.7524C43.0744 41.7524 37.4787 36.1713 36.1458 38.0359Z" fill="#B6DBA8"/>
<path d="M48.2093 53.4292L46.814 53.3737L45.3812 52.9354L43.7531 52.0776L42.1375 50.9893L40.3047 49.5847L38.6453 48.2167L33.6266 43.4331L33.1094 42.3026L32.957 41.2768L33.268 39.6424L33.3016 39.5651L33.4898 39.1932L33.5461 39.0963L33.5992 39.0143L34.2055 38.2791C34.2094 38.2744 34.2789 38.2111 34.2836 38.2064L34.3547 38.1439L34.7234 37.8603L34.793 37.815L35.9625 37.2963L36.9437 37.1627L37.9961 37.2877L39.3164 37.8955L40.2234 38.6439L46.582 44.0369L46.8133 43.7478L47.45 42.926L48.8242 40.9869L55.6976 30.7728L62.0507 21.3761L62.8421 20.7417L63.7624 20.3174L64.7562 20.1323L64.957 20.1245L65.9632 20.2354L66.5078 20.4034C66.514 20.4058 66.5789 20.4323 66.5859 20.4347C66.5945 20.4386 66.6663 20.4691 66.6749 20.4729C66.6859 20.4784 66.7257 20.4979 66.746 20.5089C66.7625 20.5145 66.7787 20.521 66.7945 20.5284L66.8718 20.5667C66.8888 20.5753 66.9053 20.5849 66.921 20.5956C66.9468 20.6073 66.9874 20.6276 66.9945 20.6308C67.0078 20.6378 67.0203 20.6456 67.0328 20.6534C67.0599 20.6666 67.0858 20.6823 67.1101 20.7003L67.2804 20.83L67.2913 20.8386L67.4187 20.9066C67.4533 20.9251 67.4855 20.9476 67.5148 20.9738C67.5249 20.9808 67.5351 20.9878 67.5453 20.9956C67.5539 21.0027 67.564 21.0113 67.5734 21.0199L67.6734 21.1011C67.6788 21.1066 67.7398 21.1628 67.7453 21.1691L67.8328 21.2465L68.3953 21.9121L68.7812 22.6183L69.0234 23.3933L69.1085 24.2011L68.9945 25.2011L68.7218 25.9777L68.2015 26.8964L66.2445 29.9871L59.9453 39.7378L57.3343 43.6949L54.9968 47.1331L53.2171 49.5917C53.2108 49.6003 53.1679 49.6589 53.1616 49.6667L51.8358 51.2737C51.8233 51.2893 51.7796 51.3409 51.7648 51.3542L50.7101 52.3479C50.6992 52.3581 50.6421 52.4042 50.6304 52.4135L49.6687 53.0018C49.6593 53.008 49.5866 53.0455 49.5757 53.051C49.5702 53.0526 49.4367 53.1041 49.4312 53.1057L48.5077 53.387C48.4929 53.3909 48.4007 53.4104 48.3859 53.4135C48.3726 53.4151 48.2226 53.4292 48.2093 53.4292ZM47.2163 52.4667L48.2124 52.4698L49.1515 52.187L50.0859 51.6245L51.107 50.6557L52.4211 49.0557L54.2109 46.5823L56.5367 43.1612L61.8148 35.0995L67.9734 25.2745L68.1468 24.3612L68.1492 24.205L68.0054 23.287L67.6015 22.4511L67.1656 21.937L67.1452 21.919C67.0762 21.8978 67.0132 21.8603 66.9617 21.8097C66.9078 21.7906 66.858 21.7617 66.8148 21.7245C66.7745 21.7035 66.7374 21.677 66.7046 21.6456C66.6703 21.628 66.6383 21.6062 66.6093 21.5807C66.596 21.5722 66.582 21.562 66.5679 21.5518C66.5205 21.5302 66.4755 21.5038 66.4335 21.4729C66.3796 21.4435 66.3321 21.4037 66.2937 21.3557L66.2569 21.3347L66.2616 21.3104C66.2419 21.2789 66.2262 21.245 66.2147 21.2096L66.1795 21.3049L65.2772 21.0956L64.9679 21.0839L64.0499 21.2331L63.2132 21.6456L62.6288 22.1644L62.0827 22.9105L49.6124 41.5347L48.221 43.4972L47.3812 44.5847L46.9757 45.0214C46.9274 45.071 46.8694 45.1101 46.8053 45.1361C46.7411 45.1622 46.6723 45.1747 46.6031 45.1729C46.5339 45.1711 46.4658 45.1549 46.4031 45.1255C46.3405 45.096 46.2846 45.0539 46.239 45.0018L38.1968 38.3651L37.2867 38.1378L36.9547 38.1222L35.3828 38.5776L35.0086 38.8479L34.632 38.5393L34.9226 38.9237L34.4218 39.5081L33.9757 39.3151L34.3617 39.6042L33.9312 39.3893L34.3195 39.6761L33.9257 40.9604L33.9163 41.2675L34.121 42.3034L34.6781 43.2339L35.5695 44.1636L36.7945 45.3222L39.264 47.4831L40.9867 48.9003L42.764 50.255L44.4343 51.3698L45.9218 52.119L47.1773 52.4675L47.2163 52.4667Z" fill="#5DA845"/>
</svg>
