<svg width="76" height="65" viewBox="0 0 76 65" fill="none" xmlns="http://www.w3.org/2000/svg">
<path d="M73.0638 42.6428C73.0477 41.8539 72.9894 41.0664 72.8894 40.2838L72.6329 40.0146C72.475 38.7583 72.1888 37.5213 71.7791 36.323L71.35 35.8183C71.274 35.605 71.1092 35.1824 71.0195 34.9748C70.8031 34.4727 70.5492 33.9875 70.26 33.5235C69.9467 33.2804 69.6725 32.9908 69.4467 32.6648C69.3403 32.5164 69.1092 32.2236 68.9876 32.0872L68.2976 31.644C68.0482 31.3464 67.7514 31.0919 67.4193 30.8907C67.5198 26.5366 67.1781 21.94 65.5097 17.8753C63.9617 14.1576 61.5838 10.8435 58.5578 8.18678C55.5318 5.53005 51.9383 3.60109 48.0521 2.54765C32.401 -1.65173 16.3848 8.38167 10.0328 22.6516C7.71606 27.5634 7.1389 33.1759 7.31106 38.5508C7.04627 38.7106 6.76397 38.8392 6.46966 38.9342L5.76374 39.4111C5.6373 39.5108 5.04736 40.0829 4.88302 40.0874L4.25432 40.8063C4.16962 40.914 3.70029 41.7624 3.53375 41.7586C3.46204 41.8808 3.11182 42.8352 2.94427 42.8515C2.89024 42.974 2.64586 43.9959 2.48898 44.0256C2.33575 44.7036 2.21979 45.3894 2.14163 46.0799L2.04347 46.2018L2.00434 47.1002C1.94668 47.1846 1.89433 47.2725 1.8476 47.3635C1.84264 47.4774 1.93269 48.2007 1.82617 48.2791C1.83021 48.3875 1.96049 49.0158 1.86548 49.0994C1.87665 49.2082 2.02673 49.7462 1.94336 49.8363C1.95808 49.9343 2.11223 50.4144 2.04178 50.5001C1.95922 50.667 2.20722 51.0462 2.13926 51.2143L2.28747 51.6385C2.27549 51.7339 2.26604 51.8656 2.26359 51.9618L2.42379 52.3076C2.42067 52.517 2.43216 52.7266 2.45815 52.9344L2.61906 53.1352C2.679 53.5884 2.79353 54.0327 2.96015 54.4584C3.0291 54.6349 3.10742 54.8076 3.19481 54.9758C3.25684 55.0252 3.23152 55.2761 3.23419 55.3434C3.33108 55.5196 3.44134 55.688 3.56404 55.8473L3.64632 56.2553C3.70282 56.3267 3.78455 56.4205 3.84821 56.4852L3.98633 56.9486C4.07985 56.9752 4.20332 57.4414 4.23735 57.5169C4.2802 57.5556 4.37129 57.6321 4.41788 57.6661L4.63993 58.2002L4.74127 58.2696L5.00683 58.8361C5.0793 58.8804 5.1542 58.9206 5.23108 58.9567L5.57484 59.5619L5.69733 59.6086L6.13031 60.2442L6.26402 60.2802L6.81056 60.9453L6.95573 60.9671L7.63279 61.6535L7.7892 61.6572L8.57828 62.3251L8.7446 62.3064C9.3103 62.7172 9.90662 63.0838 10.5285 63.4032L10.7151 63.3551C11.3152 63.5996 11.9367 63.7872 12.5717 63.9157L12.7674 63.8344L13.667 63.9249L14.518 63.9132C14.6333 63.7656 15.3319 63.7286 15.4998 63.7013C15.981 63.6256 16.4495 63.4836 16.8917 63.2794C16.9959 63.3082 17.1015 63.3317 17.2082 63.3496L17.4174 63.2629C17.6026 63.285 17.7888 63.2953 17.9753 63.2939L18.3041 63.2712L18.5073 63.1517L18.8037 63.1077C18.8356 63.221 19.6726 63.3808 19.765 63.4174C19.7964 63.4412 19.829 63.4631 19.8627 63.4833L20.8582 63.6259L20.898 63.6502L22.0719 63.6898L22.1009 63.7084C25.6688 63.4341 29.1986 62.7912 32.634 61.7898C34.5299 61.2239 36.6193 60.6927 38.4626 59.9564C38.4393 59.9736 38.4148 59.9887 38.3891 60.0018L38.5536 59.9832C38.514 60.0009 38.4719 60.0126 38.4289 60.0178L38.5814 60.0528C38.5503 60.0552 38.519 60.0552 38.4878 60.0528C38.5921 60.1068 38.7753 60.1455 38.8811 60.1985C38.9153 60.1736 39.1219 60.253 39.1588 60.2539C39.2862 60.2323 39.4163 60.2312 39.5442 60.2506C39.6781 60.224 39.8142 60.209 39.9507 60.2057C40.113 60.1599 40.2787 60.1272 40.4462 60.1081C40.876 60.0305 41.2998 59.923 41.7148 59.787C42.5905 59.5604 43.4531 59.2867 44.2993 58.967C44.435 58.88 44.5776 58.8045 44.7257 58.741C44.7945 58.6421 45.0784 58.5267 45.1143 58.4001C45.2413 58.2922 45.3394 58.1544 45.3998 57.9991C45.4978 57.8663 45.5652 57.7134 45.5972 57.5515C45.6647 57.4091 45.7054 57.2554 45.7171 57.0982C45.7568 56.9404 45.7725 56.7775 45.7638 56.6151C45.762 56.1046 45.6307 55.6029 45.3823 55.157C45.1338 54.711 44.7764 54.3355 44.3433 54.0653C43.8231 53.7681 43.2112 53.6746 42.6259 53.8026C41.7077 53.9832 40.8004 54.2155 39.9082 54.498C38.9011 54.849 37.6188 55.1275 37.0889 56.1572C32.8048 57.3106 28.4626 58.7612 24.0484 59.3714C25.5737 54.818 23.579 47.4353 21.5464 43.1928C20.2818 40.6505 18.4979 37.4203 15.6704 36.4405C15.7188 33.8971 16.1273 31.3735 16.8838 28.9447L16.9232 29.0456C18.7852 23.8024 22.0439 19.1677 26.3476 15.6421L26.2472 15.6287C29.8801 12.6428 34.2148 10.6333 38.8409 9.79063L38.5985 9.72585C39.9272 9.55696 41.2655 9.47687 42.6048 9.48579L42.2638 9.32164C43.1971 9.3429 44.128 9.42366 45.0509 9.56346L44.6121 9.29531C44.8843 9.33783 45.4291 9.43754 45.6986 9.49427L45.2113 9.15528C45.4789 9.21235 46.0141 9.34103 46.2784 9.41187C46.2784 9.41187 50.7377 10.8613 51.8596 11.7366L51.6904 11.4634C53.5605 12.932 55.1447 14.7321 56.3641 16.7736L56.3139 16.5421C56.9948 17.6759 57.5607 18.875 58.0031 20.1214C58.8409 23.058 59.1833 26.1139 59.0157 29.1631C58.3735 29.1998 57.6456 29.2419 57.01 29.3401C55.7991 29.5383 54.6765 30.0982 53.7894 30.946C50.5988 34.0779 49.9257 40.2244 50.1898 44.5004C50.4456 47.9586 51.2013 51.6674 53.4536 54.4065C53.9757 55.0328 54.6303 55.5354 55.3702 55.8779C55.663 56.0646 55.9902 56.1907 56.3325 56.2492C56.5664 56.348 56.8144 56.4098 57.0674 56.4324C57.319 56.5036 57.5796 56.5375 57.8409 56.5332C58.1021 56.5855 58.3698 56.5949 58.634 56.5614L59.1336 56.5969C59.3902 56.5336 59.656 56.5159 59.9188 56.5449L60.3858 56.5439L60.6801 56.4423L61.1154 56.4228L61.5092 56.3834L61.7992 56.2498C61.957 56.2385 62.1114 56.1968 62.2533 56.1268C62.4553 56.1242 62.6572 56.1362 62.8575 56.1628C63.1493 56.0992 63.4485 56.0771 63.7466 56.0975C64.0584 55.9986 64.3825 55.9442 64.7097 55.936C65.0312 55.7998 65.3697 55.7077 65.716 55.6623C65.9046 55.5567 66.087 55.4404 66.2623 55.3135L67.0016 55.0777L67.2633 54.862L67.5197 54.6176L68.2405 54.288L68.4846 54.0224L68.7225 53.7301L69.3913 53.3106C69.6265 52.9938 69.8417 52.6627 70.0354 52.3189L70.6073 51.8372C70.8776 51.337 71.1127 50.8186 71.3113 50.2859L71.4646 49.8507L71.8858 49.4011C72.2764 48.1922 72.5427 46.9467 72.6806 45.6837L72.9327 45.4861C73.0374 44.5422 73.0812 43.5925 73.0638 42.6428Z" fill="white"/>
<path d="M12.7119 41.3974C13.6664 41.2217 13.6741 41.2169 14.1217 41.9414C16.0204 45.1021 17.3913 48.5512 18.1802 52.1532C18.6956 54.2652 18.9567 56.4313 18.9578 58.6053C18.9572 58.6771 18.9692 58.749 18.9756 58.8235L19.921 59.1761C20.8175 52.3924 19.3031 45.5092 15.6423 39.7286C15.3924 39.939 15.1022 40.2013 14.7929 40.4386C14.48 40.6787 14.1481 40.8941 13.7739 41.1558C13.7588 41.0087 13.7364 40.8902 13.7362 40.7715C13.7338 39.3467 13.6791 37.919 13.7521 36.4979C13.8129 35.3134 14.0319 34.1374 14.168 32.9562C14.3645 31.3561 14.7422 29.7835 15.2938 28.2688C16.0779 26.016 17.1205 23.8617 18.4006 21.8489C19.3913 20.3098 20.4539 18.8111 21.5714 17.3613C22.3782 16.3619 23.2387 15.407 24.1488 14.5006C25.2372 13.3674 26.3764 12.2831 27.472 11.1567C27.971 10.6474 28.4384 10.1084 28.872 9.54231C29.0626 9.32781 29.1653 9.04931 29.1594 8.76231C29.1536 8.47543 29.0397 8.20133 28.8405 7.99476C28.6792 7.74754 28.5793 7.4654 28.5489 7.1718C28.4141 5.57996 29.3426 4.60308 30.5804 3.85834C32.5634 2.80203 34.7486 2.18024 36.9906 2.03426C38.5921 1.83574 40.2055 1.74782 41.819 1.77129C43.1529 1.84675 44.4815 1.99548 45.799 2.2167C48.2265 2.55426 50.5806 3.29482 52.7643 4.40775C55.8851 5.8968 58.6756 7.99686 60.9707 10.5836C63.2658 13.1703 65.0189 16.1913 66.1261 19.4676C67.0778 22.4362 67.5488 25.538 67.5211 28.6555C67.5367 29.3308 67.5114 30.0072 67.5314 30.6823C67.5322 30.7639 67.5495 30.8447 67.5824 30.9195C67.6152 30.9943 67.6629 31.0617 67.7224 31.1176C70.6084 33.0399 72.0533 35.8935 72.8463 39.1355C73.7842 42.7347 73.4596 46.5467 71.9269 49.9355C70.905 52.4556 68.9396 54.4769 66.4493 55.5687C65.3745 56.0054 64.2302 56.246 63.0705 56.2792C63.493 55.9741 63.9644 55.6825 64.3791 55.3251C65.5988 54.1915 66.4302 52.7024 66.7557 51.0693C67.1476 49.5057 67.3669 47.8987 67.6482 46.3083C67.6805 46.0678 67.6617 45.8231 67.5929 45.5904C67.4833 46.3792 67.3903 47.1708 67.261 47.9564C66.9846 49.7407 66.4479 51.4748 65.6678 53.1031C65.1941 54.1954 64.4077 55.1231 63.4079 55.7693C62.408 56.4155 61.2393 56.7514 60.049 56.7345C59.6551 56.7459 59.2607 56.7361 58.8951 56.7361C59.3724 56.4141 59.8804 56.1139 60.3403 55.7524C61.1528 55.0587 61.7833 54.1769 62.177 53.1838C62.7857 51.7202 63.2027 50.1841 63.4177 48.6136C63.5217 47.8499 63.5842 47.0812 63.6053 46.3108C63.6733 45.5535 63.7003 44.793 63.6862 44.0327C63.6361 41.6373 63.244 39.2614 62.5218 36.9771C62.0688 35.6725 61.6476 34.3506 61.0902 33.0906C60.5933 31.9024 59.8781 30.818 58.9816 29.8936C58.8108 29.7554 58.6484 29.6073 58.4953 29.4496C58.7199 29.3577 58.965 29.3279 59.2051 29.3635C59.4451 29.3989 59.6711 29.4985 59.8593 29.6517C60.5013 30.1137 61.1161 30.6123 61.7007 31.145C62.5747 31.9134 63.641 32.4298 64.7859 32.6387C64.7859 31.5108 64.808 30.4442 64.7811 29.379C64.7399 27.3284 64.4706 25.2887 63.9782 23.2976C63.4895 21.5204 62.7435 19.8242 61.7637 18.263C60.7344 16.5591 59.4476 15.0248 57.949 13.7147C55.612 11.6289 52.7968 10.1517 49.7529 9.41386C47.8105 8.95346 45.8104 8.78545 43.8184 8.91534C42.8399 8.99664 41.8708 9.16752 40.9234 9.42586C38.8685 9.9257 36.7845 10.3556 34.7879 11.0359C30.1062 12.6728 25.95 15.5372 22.7534 19.3299C20.0918 22.3403 18.0815 25.8688 16.8487 29.6936C16.2178 31.8047 15.8691 33.99 15.8115 36.1926C15.8083 36.2777 15.8245 36.3624 15.859 36.4402C15.8935 36.518 15.9452 36.5869 16.0103 36.6417C17.7228 37.481 19.1382 38.8235 20.0668 40.4896C22.2776 44.0476 23.737 48.0205 24.3554 52.1638C24.6609 53.8119 24.745 55.4936 24.6055 57.164C24.5103 57.8602 24.3752 58.5506 24.2005 59.2313C24.1759 59.2922 24.1372 59.3464 24.0878 59.3896C24.0383 59.4328 23.9794 59.4636 23.9157 59.4798C22.6179 59.7253 21.2828 59.6951 19.9974 59.391C19.684 59.3248 19.3847 59.2036 19.1134 59.0333C18.984 58.9375 18.8296 58.8811 18.6689 58.871C18.5082 58.861 18.3479 58.8976 18.2076 58.9766C17.4485 59.2725 16.8088 59.8117 16.3883 60.5098C16.2758 60.6385 16.1954 60.7921 16.1537 60.9579C16.1121 61.1237 16.1104 61.297 16.1488 61.4635C16.1872 61.6302 16.2645 61.7852 16.3746 61.9161C16.4846 62.047 16.624 62.1498 16.7815 62.2162C17.1113 62.4342 17.4516 62.6363 17.8739 62.8998C16.378 63.8726 14.5952 64.3064 12.8197 64.1295C14.8747 63.299 15.7345 61.5718 16.1868 59.5871C16.4074 58.5507 16.5553 57.5 16.6293 56.4429C16.7537 55.396 16.7785 54.3395 16.7033 53.288C16.5317 51.7496 16.2649 50.2234 15.9042 48.7181C15.3415 46.5042 14.4409 44.3902 13.2342 42.4507C13.0416 42.128 12.8979 41.776 12.7119 41.3974Z" fill="#8FB8E2"/>
<path d="M23.4053 63.7465C25.7896 63.0323 28.0561 61.9721 30.1328 60.5999C30.8972 60.1008 31.5622 59.4487 32.3282 58.9525C32.9306 58.5943 33.5622 58.2878 34.2163 58.0364C35.1134 57.6527 36.0334 57.3226 36.9297 56.9373C37.726 56.595 38.0386 56.6903 38.4782 57.4659C38.831 58.0892 39.0232 58.7906 39.0374 59.5069C39.0443 59.7794 39.0073 60.1855 38.511 60.125C38.3946 60.1267 38.2798 60.1537 38.1748 60.2041C33.8121 61.7567 29.3131 62.8959 24.7374 63.6065C24.2968 63.6751 23.8495 63.7009 23.4053 63.7465Z" fill="#8FB8E2"/>
<path d="M39.6426 60.3815C40.1941 59.4813 40.5219 58.462 40.5983 57.409C40.6208 56.888 40.7847 56.3829 41.0723 55.9479C41.3597 55.5129 41.7602 55.1644 42.2308 54.9397C42.6448 54.6848 43.0301 54.3861 43.3799 54.0486C43.5062 53.9626 43.6602 53.9269 43.8115 53.9486C44.3534 54.1141 44.8348 54.435 45.196 54.8717C45.5571 55.3083 45.7822 55.8414 45.8431 56.4048C45.9407 56.9372 45.8562 57.4869 45.6032 57.9653C45.3502 58.4437 44.9435 58.8229 44.4487 59.0418C42.9078 59.6842 41.2937 60.1342 39.6426 60.3815Z" fill="#8FB8E2"/>
<path d="M54.5134 44.2485C54.7403 45.719 55.2429 47.1333 55.9949 48.417C54.9246 48.1161 54.3162 45.6677 54.5134 44.2485Z" fill="black"/>
<path d="M17.5371 63.5722C18.011 63.0282 18.1704 63.0006 18.8648 63.3429L17.5371 63.5722Z" fill="black"/>
<path d="M62.2798 56.729C62.1563 56.7289 62.0367 56.6856 61.9416 56.6065C61.8467 56.5275 61.7823 56.4175 61.7599 56.296C61.7373 56.1745 61.7581 56.0489 61.8186 55.941C61.8789 55.8332 61.9752 55.7499 62.0906 55.7056C62.8454 55.4376 63.5168 54.9764 64.038 54.368C65.2877 52.6895 66.1257 50.7407 66.4844 48.6789C67.3638 44.3814 67.4405 38.0286 65.0112 33.1139C64.9497 32.9882 64.9405 32.8432 64.9856 32.7108C65.0307 32.5783 65.1265 32.4691 65.252 32.4072C65.3776 32.3452 65.5224 32.3356 65.655 32.3803C65.7876 32.4249 65.8971 32.5204 65.9595 32.6457C68.5066 37.7996 68.4352 44.4218 67.5187 48.9C67.128 51.1262 66.2165 53.2283 64.8589 55.0351C64.221 55.7875 63.3972 56.3593 62.4693 56.6937C62.4087 56.7166 62.3446 56.7286 62.2798 56.729Z" fill="#0055BA"/>
<path d="M13.2596 64.6126C12.7886 64.6132 12.3183 64.5784 11.8526 64.5083C8.79445 64.0333 5.8386 61.9013 3.74067 58.6591C1.64922 55.3313 0.689635 51.4163 1.0051 47.4984C1.37426 42.9892 3.42401 39.6867 6.78948 38.1589C6.78684 37.3576 6.78001 36.1776 6.7636 35.6525C6.80039 32.1669 7.34384 28.705 8.37711 25.3758C11.5535 16.3116 18.1069 8.82449 26.6698 4.4772C36.3031 -0.42536 47.5163 -0.031152 55.9338 5.50663C61.1088 8.93025 64.9458 14.0333 66.7986 19.956C67.7711 23.7243 68.1469 27.6218 67.9121 31.5066C67.9374 31.7386 67.9173 31.9734 67.8527 32.1977C67.831 32.2755 67.7918 32.3473 67.7383 32.4077L67.487 32.6917L67.4844 32.6892C67.4274 32.7504 67.3589 32.8001 67.2831 32.8355C66.8576 33.051 66.4058 33.2099 65.939 33.308L65.6275 33.3898C65.5571 33.4094 65.4835 33.4141 65.4111 33.4037C65.3389 33.3934 65.2696 33.3682 65.2076 33.3295C65.1594 33.3098 65.0113 33.2685 64.8134 33.2082C63.8375 32.9407 62.897 32.5579 62.0116 32.0677C60.8636 31.3418 59.7733 30.5283 58.7504 29.6345C58.6753 29.5766 58.6132 29.5036 58.5678 29.4203C58.5226 29.3371 58.495 29.2453 58.487 29.1509C58.6988 26.0388 58.3102 22.9152 57.3425 19.95C56.3237 17.2723 54.6536 14.891 52.4832 13.0213C48.9879 10.4763 43.7628 9.49245 38.5318 10.4108C30.3743 11.9799 22.8413 17.8739 18.8813 25.7924C18.2227 27.0932 17.6688 28.4445 17.2248 29.8334C16.7912 31.4025 16.4963 33.0067 16.3437 34.6275C16.2447 35.7628 16.2032 36.9024 16.2198 38.0419C16.2189 38.4275 16.218 38.8052 16.2119 39.1659C16.1027 39.8872 15.2947 40.5379 14.3284 41.26L14.3103 41.2738C15.9427 43.8905 17.1952 46.7258 18.0302 49.6948C18.6314 51.7112 19.0484 53.7778 19.2763 55.8695C19.3503 56.6063 19.3941 57.4317 19.3959 58.079L19.3941 58.307C19.52 58.3485 19.6427 58.3989 19.7616 58.4576C20.752 59.1238 21.9361 59.0722 23.2724 58.9439C26.4081 58.492 29.506 57.8087 32.5409 56.8998C32.9772 56.775 33.4281 56.6407 33.8834 56.5047C34.8291 56.2224 35.804 55.9307 36.7411 55.7069C37.158 55.1128 37.7565 54.6702 38.4466 54.4459C39.377 54.0974 40.3259 53.8003 41.2889 53.556L41.5229 53.4992C42.0209 53.3023 42.5544 53.2116 43.0895 53.2326C43.6245 53.2536 44.1492 53.3861 44.6302 53.6214C45.1775 53.9667 45.6214 54.4535 45.9149 55.0303C46.1475 55.4902 46.277 55.9953 46.2944 56.5104C46.3118 57.0255 46.2166 57.5381 46.0156 58.0126C45.9173 58.2268 45.7971 58.4302 45.6568 58.6195C45.5759 58.7182 45.4891 58.8118 45.3969 58.9001L45.3943 58.8983C45.3039 58.9958 45.1994 59.0793 45.0846 59.1462L44.9882 59.2107C44.9608 59.2346 44.9307 59.2555 44.8986 59.2728C44.2011 59.6182 43.4706 59.8928 42.7182 60.0921L42.028 60.2892C41.1769 60.5576 40.2988 60.7307 39.4095 60.8057C39.0936 60.8028 38.78 60.7505 38.4802 60.6506C38.4286 60.6328 38.3781 60.6122 38.3287 60.5887C35.0393 61.7524 31.6762 62.6961 28.2617 63.4135L27.5379 63.5529C24.4238 64.1555 20.9086 64.8371 17.8641 63.3791C17.793 63.447 17.7144 63.5067 17.6301 63.5573C17.3546 63.7163 17.0671 63.8539 16.7704 63.9687L16.6001 64.0401C15.5276 64.421 14.3976 64.6145 13.2596 64.6126ZM6.87209 39.2916C3.32675 41.093 2.29072 44.7536 2.05838 47.5871C1.76157 51.2745 2.6647 54.9591 4.63307 58.0911C6.56225 61.0742 9.25398 63.0349 12.0128 63.4635C13.4252 63.6691 14.8662 63.5294 16.2128 63.0564L16.3635 62.9927C16.6131 62.8965 16.8552 62.782 17.088 62.6501C17.1483 62.6037 17.2039 62.5515 17.2541 62.4943C17.3143 62.4324 17.3711 62.3756 17.4185 62.3343C17.4996 62.2639 17.6005 62.2199 17.7074 62.2084C17.8142 62.1969 17.9221 62.2183 18.0164 62.2697C20.8053 63.7802 24.2766 63.1072 27.3367 62.5142L28.0475 62.3773C31.4475 61.6648 34.7954 60.7225 38.068 59.5568C38.1903 59.49 38.3336 59.4727 38.4682 59.5086C38.5645 59.5205 38.6563 59.5567 38.7349 59.6136C38.7556 59.6213 38.8115 59.6463 38.8382 59.6558C39.0211 59.7143 39.2115 59.7457 39.4035 59.7487C40.1994 59.6728 40.985 59.512 41.7467 59.2692L42.4135 59.08C43.0796 58.9018 43.7279 58.6632 44.3506 58.3673C44.3911 58.3371 44.441 58.3045 44.5038 58.2623C44.5433 58.2364 44.5838 58.2106 44.613 58.19C44.7076 58.0927 44.7843 58.0153 44.8153 57.9791C44.9072 57.8543 44.9862 57.7206 45.0511 57.5798C45.1885 57.2498 45.2529 56.8939 45.2395 56.5367C45.2261 56.1794 45.1354 55.8294 44.9735 55.5106C44.7661 55.103 44.4521 54.7591 44.0648 54.5156C43.3305 54.2164 42.5076 54.2202 41.7759 54.526L41.5479 54.5811C40.6301 54.8144 39.7256 55.0971 38.8381 55.428C38.2993 55.5803 37.8393 55.9333 37.5525 56.4144C37.5173 56.4824 37.4676 56.5419 37.4069 56.5887C37.3463 56.6355 37.2762 56.6686 37.2015 56.6855C36.23 56.9075 35.1913 57.2174 34.1863 57.5178C33.7259 57.6555 33.2715 57.7915 32.8293 57.9171C29.7377 58.8424 26.582 59.5372 23.3878 59.9957C22.1814 60.1102 20.5498 60.2634 19.228 59.3692C19.1498 59.3389 19.07 59.3126 18.9889 59.2908C18.9716 59.2865 18.8856 59.259 18.8693 59.2529C18.7468 59.2523 18.6289 59.2069 18.5375 59.1252C18.4462 59.0435 18.388 58.9313 18.3736 58.8097C18.3526 58.7335 18.3399 58.6553 18.3358 58.5764H18.334L18.3392 58.0763C18.3374 57.4661 18.2943 56.6786 18.2246 55.9763C18.0032 53.9501 17.5986 51.9482 17.0157 49.9953C16.1934 47.054 14.9438 44.2495 13.3069 41.6714C12.0843 41.5435 10.874 41.3177 9.68762 40.9958C7.57669 40.4131 6.98213 39.5016 6.921 39.4001C6.90282 39.3692 6.88784 39.3366 6.87628 39.3028L6.87209 39.2916ZM7.84963 38.8837C8.43604 39.4447 9.17203 39.8242 9.96904 39.9767C11.1006 40.282 12.2543 40.4978 13.4197 40.6223C13.4971 40.5611 13.5909 40.4905 13.695 40.4131C14.0366 40.1575 15.0761 39.3802 15.163 39.0687C15.1605 38.7932 15.1613 38.4198 15.163 38.0385C15.1457 36.8619 15.1888 35.6851 15.2921 34.513C15.4524 32.8269 15.7605 31.1583 16.2128 29.5261C16.6738 28.0802 17.2499 26.6737 17.9356 25.3198C22.0401 17.1131 29.8588 11.0021 38.3408 9.37115C43.8583 8.40199 49.382 9.45455 53.133 12.1873C55.4543 14.1766 57.241 16.7154 58.3304 19.5721C59.3271 22.5844 59.7412 25.759 59.5506 28.9262C60.4901 29.7471 61.4924 30.4931 62.5486 31.1572C63.362 31.603 64.225 31.9517 65.1198 32.196C65.2979 32.2503 65.4261 32.2889 65.5243 32.3234L65.6775 32.2838C66.0527 32.2052 66.4172 32.0813 66.7625 31.9146L66.8564 31.8087C66.866 31.7583 66.8691 31.7067 66.8658 31.6555C66.8568 31.6081 66.8525 31.5599 66.8529 31.5117C67.0888 27.7244 66.7275 23.9237 65.7823 20.2486C64.0015 14.5672 60.3182 9.67291 55.3522 6.38964C47.2513 1.06107 36.4442 0.686712 27.1465 5.42136C18.8302 9.64305 12.4647 16.9135 9.37789 25.7158C8.38141 28.9345 7.85679 32.2807 7.82033 35.65C7.84357 36.3704 7.84787 38.4275 7.84875 38.881L7.84963 38.8837Z" fill="#0055BA"/>
<path d="M56.9844 49.2447C56.9264 49.2451 56.8687 49.2355 56.8141 49.2162C54.6387 48.4743 54.1138 44.6907 54.1396 42.7937C54.1378 42.5906 54.1276 37.5477 56.7031 36.6372C56.7819 36.609 56.8665 36.5999 56.9496 36.6111C57.0326 36.6222 57.1118 36.6529 57.1807 36.7009C57.8416 37.2452 58.2849 38.0092 58.4293 38.8535L58.5299 39.1986C59.1658 41.521 59.2157 43.9649 58.6753 46.3114C58.4887 47.3409 58.0316 48.3022 57.3509 49.0966C57.2527 49.1919 57.1212 49.245 56.9844 49.2447ZM56.7977 37.7612C55.6739 38.4799 55.1834 41.0585 55.1963 42.7963C55.1722 44.6175 55.6739 47.2943 56.851 48.0655C57.2306 47.4514 57.4996 46.7756 57.6461 46.0687C58.1459 43.9004 58.1009 41.6422 57.5154 39.4955C57.4827 39.3905 57.4473 39.2666 57.4121 39.14C57.3163 38.6392 57.106 38.1673 56.7977 37.7612Z" fill="#0055BA"/>
<path d="M24.0442 59.9107C23.9863 59.9104 23.9287 59.9009 23.8738 59.8822C23.7411 59.8369 23.6318 59.7407 23.5699 59.6149C23.508 59.489 23.4984 59.3437 23.5434 59.2109C24.0732 57.4371 24.213 55.5698 23.953 53.7369C23.5905 50.1568 22.6145 46.6659 21.0677 43.4171C19.6599 40.5906 18.0095 37.8406 15.5252 36.9472C15.4596 36.9239 15.3994 36.8878 15.3477 36.8412C15.2962 36.7945 15.2543 36.7381 15.2246 36.6752C15.1948 36.6122 15.1778 36.5441 15.1745 36.4745C15.171 36.405 15.1815 36.3355 15.2051 36.2701C15.2287 36.2046 15.2649 36.1444 15.3117 36.093C15.3586 36.0416 15.4151 35.9998 15.4781 35.9703C15.5411 35.9408 15.6093 35.924 15.6788 35.9209C15.7483 35.9178 15.8178 35.9284 15.8831 35.9522C18.7185 36.9713 20.5075 39.9217 22.0194 42.9575C23.6207 46.3184 24.6308 49.9303 25.0054 53.6344C25.282 55.6169 25.125 57.6359 24.545 59.5517C24.5095 59.6564 24.4421 59.7473 24.3522 59.8116C24.2624 59.876 24.1547 59.9107 24.0442 59.9107Z" fill="#0055BA"/>
<path d="M17.7619 63.2571C17.6738 63.2576 17.5867 63.2373 17.508 63.1977C16.9696 62.915 16.4548 62.5895 15.9685 62.2242C15.8 62.0753 15.672 61.8862 15.5962 61.6745C15.5205 61.4626 15.4997 61.2353 15.5357 61.0133C15.6666 60.292 16.0576 59.6439 16.6345 59.1919C16.9687 58.8623 17.3673 58.6052 17.8055 58.4367C18.2436 58.2684 18.7119 58.1923 19.1808 58.2134C19.2497 58.223 19.3159 58.2461 19.3758 58.2815C19.4357 58.3169 19.4881 58.3636 19.5298 58.4192C19.5717 58.4749 19.6021 58.5381 19.6194 58.6054C19.6367 58.6728 19.6404 58.7429 19.6306 58.8117C19.6208 58.8806 19.5974 58.9468 19.562 59.0066C19.5264 59.0665 19.4795 59.1187 19.4239 59.1603C19.3681 59.202 19.3048 59.2322 19.2374 59.2493C19.17 59.2664 19.0999 59.2701 19.0311 59.26C18.3948 59.2739 17.7882 59.5325 17.3376 59.9821C16.9529 60.2712 16.6849 60.6891 16.583 61.1596C16.5724 61.2029 16.5723 61.2481 16.5827 61.2914C16.5929 61.3349 16.6134 61.3752 16.6424 61.4091C17.0629 61.7219 17.5071 62.0016 17.9709 62.2457C18.0747 62.2898 18.1616 62.3659 18.2189 62.4631C18.2761 62.5602 18.3007 62.6731 18.289 62.7851C18.2774 62.8973 18.2301 63.0027 18.1541 63.0859C18.0781 63.1692 17.9774 63.2258 17.8668 63.2476C17.8321 63.2539 17.797 63.257 17.7619 63.2571Z" fill="#0055BA"/>
<path d="M59.3514 57.1814C59.0658 57.1814 58.787 57.1737 58.5168 57.1634C57.1111 57.1495 55.7342 56.7637 54.5258 56.0453C52.482 54.6992 51.458 52.3942 50.8652 50.7769C49.3439 46.0637 49.1876 41.0158 50.4143 36.2174C50.9745 34.2446 51.9812 31.4542 54.2848 29.8524C55.7144 28.9901 57.3651 28.5656 59.0331 28.6311H59.0391C59.1787 28.6312 59.3127 28.6864 59.4116 28.7849C59.5106 28.8834 59.5666 29.017 59.5674 29.1566C59.5682 29.2962 59.5137 29.4305 59.4159 29.5301C59.318 29.6297 59.1847 29.6865 59.0451 29.6881C57.5856 29.624 56.1389 29.9849 54.8803 30.727C52.8625 32.129 51.9468 34.6897 51.4348 36.4937C50.2613 41.0849 50.4096 45.9144 51.8625 50.4249C52.7186 52.7592 53.7496 54.268 55.1023 55.1588C56.1523 55.7726 57.3453 56.0994 58.5615 56.1064C59.7528 56.2114 60.953 56.0752 62.0904 55.7062C62.1589 55.6807 62.2317 55.6688 62.3048 55.671C64.4979 55.7634 66.6492 55.0504 68.3533 53.6663C69.5283 52.6687 70.4838 51.4381 71.1593 50.0523C72.9455 46.2832 73.2275 41.9747 71.9475 38.0051C71.4515 36.3927 70.6705 34.8823 69.6414 33.5458C69.2865 33.0729 68.8795 32.6416 68.428 32.2599L68.145 31.9991C67.9524 31.8373 67.7464 31.6924 67.5288 31.5661C67.3731 31.468 67.2243 31.3742 67.109 31.2898C66.9955 31.2074 66.9195 31.0834 66.8975 30.9449C66.8756 30.8064 66.9095 30.6648 66.9919 30.5514C67.0743 30.4379 67.1984 30.3619 67.3368 30.3399C67.4753 30.3179 67.6168 30.3519 67.7302 30.4344C67.8301 30.5066 67.9574 30.5866 68.0917 30.6701C68.37 30.8317 68.6319 31.0199 68.8738 31.2322L69.1415 31.4792C69.6458 31.9055 70.0992 32.3887 70.4925 32.9191C71.5902 34.3467 72.4237 35.9592 72.9536 37.6805C74.3177 41.9146 74.0138 46.5098 72.1042 50.5273C71.362 52.0456 70.3126 53.3932 69.0227 54.4848C67.1409 55.9983 64.7832 56.7947 62.3693 56.7321C61.3973 57.0569 60.3759 57.209 59.3514 57.1814Z" fill="#0055BA"/>
</svg>
