<svg width="70" height="66" viewBox="0 0 70 66" fill="none" xmlns="http://www.w3.org/2000/svg">
<path d="M68.4462 29.6659L67.6542 27.8099L66.3934 26.3083L64.7518 25.2635L62.8398 24.7475L57.7694 21.0283L55.7182 21.0755L35.6926 24.2691L33.6406 24.8763L31.7286 26.0027L30.087 27.5715L28.827 29.4747L28.035 31.5835L27.7646 33.7539V54.3243L28.035 56.4091L28.827 58.2651L30.087 59.7667L35.1574 63.4851L36.799 64.5299L38.711 65.0459L40.763 64.9987L60.7878 61.8051L62.8398 61.1979L64.7518 60.0715L66.3934 58.5035L67.6542 56.6003L68.4462 54.4915L68.7158 52.3203V31.7507L68.4462 29.6659Z" fill="white"/>
<path d="M38.9356 28.7706L33.8045 24.9974C35.1877 24.7102 36.3905 24.4133 37.6094 24.2153C43.3913 23.276 49.184 22.402 54.9592 21.424C56.1492 21.1644 57.382 21.1728 58.5683 21.4487C59.7546 21.7247 60.8646 22.2612 61.8178 23.0193C63.1059 24.0415 64.4601 24.9809 65.7913 25.9484C66.6385 26.5311 67.3437 27.2969 67.8548 28.1891C68.3659 29.0813 68.6698 30.077 68.7439 31.1025C68.8081 31.8424 68.852 32.5865 68.853 33.3289C68.8616 39.3767 68.8631 45.4245 68.8576 51.4724C68.921 53.1207 68.6168 54.7626 67.9669 56.2788C66.7993 58.7745 65.0319 60.7212 62.352 61.4784C60.0829 62.0494 57.7838 62.4944 55.4654 62.8112C50.7759 63.5884 46.0816 64.3367 41.3826 65.0561C40.3656 65.278 39.3122 65.2732 38.2972 65.042C37.2822 64.8108 36.3306 64.3589 35.5099 63.7185C34.3392 62.7736 33.5501 61.4368 33.2883 59.9553C33.1155 58.8418 33.0382 57.7156 33.0574 56.5889C33.0367 50.5637 33.0622 44.5383 33.0406 38.5131C32.9358 36.0581 33.7137 33.6466 35.2333 31.7155C35.9078 30.9631 36.6529 30.2772 37.4585 29.6672C37.9287 29.3333 38.4224 29.0337 38.9356 28.7706ZM40.6163 49.3711C39.8714 47.4847 40.2209 46.25 41.963 44.9846C41.8198 44.8686 41.6854 44.7536 41.5446 44.6468C40.7863 44.0721 40.7393 44.0756 40.0391 44.7335C38.479 46.1996 38.7276 48.1972 40.6163 49.3711Z" fill="#8FB8E2"/>
<path d="M35.1575 64.1527C34.9896 64.1529 34.8277 64.0896 34.7044 63.9756C33.1299 62.3999 32.2218 60.279 32.1681 58.0521H32.2268C32.167 57.5207 32.167 56.5612 32.167 54.829V37.4736C32.3009 35.072 33.1632 32.7681 34.6392 30.8688C36.2149 29.0814 38.319 27.8424 40.6464 27.3316L60.6826 24.1357C62.8697 23.8584 65.0778 24.4568 66.8256 25.8005C66.9605 25.9152 67.0443 26.0788 67.0585 26.2553C67.0728 26.4318 67.0164 26.6067 66.9017 26.7416C66.787 26.8765 66.6234 26.9602 66.4469 26.9745C66.2704 26.9888 66.0955 26.9323 65.9606 26.8176C64.5067 25.7244 62.6861 25.2365 60.8804 25.456L40.868 28.6487C38.8544 29.107 37.0344 30.1834 35.6628 31.7273C34.3762 33.3841 33.6225 35.3924 33.5014 37.4867C33.5014 37.4888 33.5014 57.825 33.5025 58.038C33.5548 59.8972 34.3078 61.668 35.6107 62.9954C35.7093 63.0865 35.7781 63.2052 35.8082 63.336C35.8383 63.4669 35.8282 63.6038 35.7792 63.7288C35.7303 63.8538 35.6448 63.9611 35.5339 64.0367C35.4229 64.1124 35.2918 64.1528 35.1575 64.1527V64.1527Z" fill="#0055BA"/>
<path d="M39.2036 65.5672C38.2528 65.6493 37.2971 65.4838 36.4293 65.0869C35.7914 64.6218 35.0905 64.1665 34.3602 63.6905C31.562 61.8671 28.3944 59.8024 27.4294 56.714C27.0969 56.0121 27.0045 53.3214 27.1001 40.1118C27.1219 37.0604 27.1425 34.1763 27.1012 33.8362C27.1738 31.8224 27.7955 29.8668 28.8991 28.1807C30.0027 26.4947 31.5462 25.1424 33.3627 24.2701C36.2293 23.3182 54.7627 20.3613 57.7434 20.3613H57.7749C60.0113 20.6754 62.0304 22.2185 63.8114 23.5812C64.3809 24.0158 64.9286 24.4364 65.4512 24.7906C66.6389 25.5254 67.6219 26.548 68.3092 27.7637C68.9964 28.9794 69.3657 30.349 69.3829 31.7454C69.3742 32.0182 69.3796 33.3569 69.3861 35.2695C69.4383 50.2918 69.3437 53.7333 69.0786 54.6613L69.0916 54.6646C68.5716 56.5889 67.5334 58.3336 66.0902 59.7087C64.6469 61.0837 62.854 62.0362 60.9067 62.4626C59.9863 62.5147 57.6456 62.9342 54.9344 63.4199C48.4034 64.5925 42.606 65.5672 39.2036 65.5672ZM28.6041 56.061C28.6347 56.1113 28.6588 56.1653 28.6758 56.2218C29.4582 58.9015 32.4498 60.851 35.0894 62.5712C35.8403 63.0613 36.5608 63.5308 37.1921 63.9915C38.6798 64.9782 49.1011 63.1102 54.6985 62.1061C57.5673 61.591 59.8342 61.1846 60.7546 61.1379C62.4378 60.7488 63.9832 59.9084 65.2246 58.707C66.466 57.5055 67.3566 55.9885 67.8006 54.319C67.8126 54.2754 67.829 54.2331 67.8495 54.1929C68.1114 52.8693 68.0691 40.567 68.0506 35.2749C68.0441 33.333 68.0397 31.9747 68.0484 31.728C68.0245 30.566 67.7119 29.4283 67.1388 28.4172C66.5657 27.4061 65.7502 26.5534 64.7655 25.936C64.7509 25.9281 64.7368 25.9194 64.7231 25.9099C64.1743 25.5393 63.5984 25.0992 63.0007 24.6417C61.349 23.379 59.4766 21.9468 57.6749 21.6892H57.6576C54.968 21.6892 36.4934 24.6374 33.8506 25.51C32.2874 26.2709 30.9587 27.4398 30.0048 28.8933C29.0509 30.3467 28.5073 32.0309 28.4313 33.7677C28.4759 34.0709 28.4639 36.1584 28.4357 40.1215C28.3976 45.2963 28.3292 54.8558 28.6041 56.061ZM28.3498 55.8197L28.3509 55.8208L28.3498 55.8197ZM28.3476 55.8186L28.3487 55.8197L28.3476 55.8186ZM28.3455 55.8175L28.3476 55.8186L28.3455 55.8175Z" fill="#0055BA"/>
<path d="M42.1187 50.3895C41.0212 50.3895 40.4996 50.2179 40.2496 49.9114C39.658 49.6156 39.1577 49.1649 38.8019 48.6073C38.4462 48.0497 38.2483 47.406 38.2295 46.7448C38.2403 46.0436 38.4492 45.3597 38.832 44.7721C39.2148 44.1845 39.756 43.7171 40.3931 43.4239L40.3942 43.4283C40.5469 43.3611 40.7055 43.308 40.868 43.2696C40.9505 43.2479 41.031 43.2262 41.0777 43.212C41.125 43.1932 41.1742 43.1794 41.2244 43.1707L60.1217 40.1574L60.7727 40.1367C61.553 40.2404 62.2813 40.5853 62.8559 41.1234C63.0428 41.2737 63.2372 41.4144 63.4383 41.545C63.4754 41.5683 63.5103 41.5949 63.5427 41.6243C64.0274 42.1426 64.3392 42.7987 64.4348 43.5019C64.5304 44.2051 64.4051 44.9206 64.0762 45.5494C63.8126 46.0476 63.4432 46.482 62.994 46.8223C62.5448 47.1627 62.0266 47.4006 61.4758 47.5196C61.408 47.5325 61.3386 47.5339 61.2704 47.5239C60.8922 47.5 58.5211 47.9455 56.2075 48.3596C48.2085 49.793 44.1649 50.3895 42.1187 50.3895ZM41.2559 48.9964C42.649 49.4365 51.6196 47.8261 55.9717 47.0458C59.41 46.4297 60.7748 46.1938 61.303 46.1928C61.6389 46.1041 61.9529 45.9472 62.2255 45.7318C62.4981 45.5164 62.7234 45.2472 62.8873 44.9409C63.0784 44.5782 63.1598 44.1677 63.1218 43.7594C63.0838 43.3512 62.928 42.9628 62.6733 42.6415C62.4614 42.5046 62.2505 42.3438 62.0376 42.1786C61.678 41.8288 61.2297 41.5838 60.7412 41.4701L60.2424 41.4842L41.4841 44.4813C41.408 44.5073 41.32 44.5313 41.2189 44.5584C41.1298 44.5823 41.0364 44.6073 40.9777 44.6247C40.5567 44.7925 40.1964 45.0838 39.9442 45.4603C39.6921 45.8368 39.5598 46.2809 39.565 46.7341C39.5702 47.1872 39.7125 47.6282 39.9732 47.9988C40.2339 48.3695 40.6008 48.6525 41.0255 48.8106C41.1153 48.8545 41.194 48.918 41.2559 48.9964Z" fill="#0055BA"/>
<path d="M41.7295 9.47744L40.9375 7.62144L39.6775 6.11984L38.0351 5.07504L32.9647 1.35664L31.0527 0.839844L29.0007 0.887044L8.97585 4.08064L6.92385 4.68784L5.01185 5.81424L3.37025 7.38224L2.11025 9.28624L1.31825 11.395L1.04785 13.5654V34.1358L1.31825 36.2198L2.11025 38.0766L7.18065 41.795L8.44065 43.2966L10.0823 44.3414L11.9943 44.8574L14.0463 44.8102L34.0711 41.6166L36.1231 41.0094L38.0351 39.883L39.6775 38.315L40.9375 36.4118L41.7295 34.3022L41.9999 32.1318V11.5622L41.7295 9.47744Z" fill="white"/>
<path d="M12.2076 8.57529L7.32764 4.98365L7.31164 4.78387C8.38769 4.54455 9.45494 4.2509 10.5412 4.07492C16.6337 3.08794 22.7288 2.11701 28.8265 1.16212C29.8816 0.96919 30.9658 1.00344 32.0066 1.26259C33.0475 1.52174 34.0211 1.99982 34.8626 2.66497C36.3808 3.83261 37.9767 4.90017 39.4815 6.08408C40.181 6.62017 40.7636 7.29344 41.1937 8.06263C41.6238 8.83182 41.8923 9.68073 41.9827 10.5573C42.0816 11.43 42.1312 12.3076 42.1313 13.1859C42.1435 19.3907 42.1451 25.5955 42.136 31.8003C42.17 33.3621 41.8389 34.9102 41.1691 36.3214C40.4992 37.7326 39.5091 38.9679 38.2775 39.9288C36.6664 41.0996 34.7697 41.8149 32.7867 41.9995C26.9326 42.9083 21.0838 43.8512 15.2341 44.7885C13.7306 45.1119 12.1693 45.0446 10.6992 44.593C9.26184 44.0895 8.05822 43.0776 7.31518 41.7481C6.62596 40.4718 6.29226 39.0338 6.34896 37.5844C6.34964 31.0185 6.34926 24.4527 6.3478 17.8868C6.32386 16.3368 6.65904 14.8022 7.32708 13.4032C7.99513 12.0043 8.97791 10.779 10.1985 9.82317C10.8387 9.36153 11.51 8.94458 12.2076 8.57529ZM23.7008 23.3579C23.7008 21.2183 23.7456 19.1662 23.6861 17.1171C23.6412 15.5692 23.9687 14.2608 25.5001 13.4615C25.2762 13.3102 25.0638 13.1426 24.8645 12.9602C24.4291 12.4919 24.0479 12.6746 23.6585 13.0158C23.2898 13.315 22.9937 13.6939 22.7923 14.1239C22.5909 14.5539 22.4896 15.024 22.4958 15.4988C22.5066 17.5284 22.5566 19.5605 22.4731 21.5868C22.4352 21.9795 22.5377 22.3729 22.7625 22.6972C22.9873 23.0215 23.3197 23.2556 23.7008 23.3579ZM22.4989 28.7524C22.4989 30.7875 22.5238 32.7681 22.4898 34.7476C22.4661 35.262 22.5973 35.7716 22.8664 36.2106C23.1356 36.6496 23.5303 36.9976 23.9994 37.2098C23.8619 36.5246 23.7668 35.8315 23.7148 35.1346C23.6739 33.1971 23.7018 31.2582 23.6993 29.3198C23.699 29.0846 23.6791 28.8494 23.6659 28.5611L22.4989 28.7524ZM16.0774 24.6361C15.8226 24.4194 15.5522 24.2219 15.2684 24.045C15.181 23.9951 15.084 23.9642 14.9838 23.9542C14.8836 23.9442 14.7824 23.9554 14.6868 23.987C14.1861 24.2511 13.7725 24.6543 13.4958 25.1482C13.2191 25.642 13.0911 26.2053 13.1273 26.7702C13.1354 27.2675 13.2992 27.7497 13.5955 28.1491C13.8918 28.5485 14.3058 28.845 14.7793 28.997C13.89 27.3483 14.2462 26.112 16.0774 24.6361Z" fill="#8FB8E2"/>
<path d="M28.5138 28.2887C28.3523 28.2885 28.1963 28.2298 28.0747 28.1235C27.9532 28.0171 27.8743 27.8703 27.8527 27.7102C27.8311 27.5502 27.8682 27.3877 27.9572 27.2529C28.0462 27.1181 28.181 27.0201 28.3367 26.9771C28.6355 26.8945 29.3168 26.7945 30.4959 26.6261C32.177 26.3859 35.6761 25.885 36.1999 25.5079C36.4917 25.2821 36.7327 24.9975 36.9074 24.6725C37.082 24.3475 37.1864 23.9894 37.2137 23.6214C37.2367 23.37 37.2041 23.1165 37.1181 22.8791C37.032 22.6417 36.8948 22.4262 36.716 22.2478C36.6523 22.1874 36.6012 22.115 36.5656 22.0348C36.5299 21.9545 36.5104 21.8681 36.5083 21.7803C36.5061 21.6925 36.5213 21.6052 36.5529 21.5233C36.5846 21.4414 36.6321 21.3666 36.6927 21.3031C36.7534 21.2396 36.8259 21.1887 36.9063 21.1533C36.9866 21.1179 37.0732 21.0987 37.1609 21.0968C37.2487 21.095 37.336 21.1104 37.4178 21.1423C37.4996 21.1743 37.5742 21.222 37.6375 21.2828C37.9573 21.5935 38.2046 21.9709 38.3618 22.3881C38.519 22.8052 38.5823 23.2519 38.5471 23.6964C38.5135 24.2337 38.369 24.7583 38.1227 25.2371C37.8764 25.7159 37.5336 26.1385 37.1159 26.4783C36.5976 26.9825 35.1284 27.3128 30.6839 27.9485C29.7787 28.0779 28.9235 28.2007 28.6909 28.2637C28.6333 28.28 28.5737 28.2884 28.5138 28.2887Z" fill="#0055BA"/>
<path d="M16.2689 30.2146C15.6142 30.2162 14.9762 30.0078 14.4487 29.6202C13.9392 29.3707 13.49 29.0134 13.1323 28.573C12.7747 28.1326 12.5171 27.6196 12.3775 27.0698C12.2769 26.5467 12.295 26.0078 12.4304 25.4926C12.5659 24.9775 12.8151 24.4993 13.1599 24.0933C13.8195 22.9469 16.4851 22.522 19.8973 22.0928C20.6559 22.0193 21.4095 21.9013 22.1543 21.7396C22.2381 21.7138 22.3261 21.7047 22.4134 21.7129C22.5007 21.7211 22.5855 21.7464 22.663 21.7873C22.7405 21.8283 22.8092 21.8841 22.8651 21.9517C22.921 22.0192 22.9631 22.097 22.9889 22.1808C23.0147 22.2646 23.0238 22.3526 23.0156 22.4399C23.0074 22.5271 22.9821 22.612 22.9412 22.6894C22.9002 22.7669 22.8444 22.8356 22.7769 22.8915C22.7093 22.9475 22.6315 22.9895 22.5477 23.0154C21.7297 23.2055 20.8998 23.3399 20.0636 23.4174C18.3216 23.6358 14.6986 24.0923 14.265 24.8377C14.0288 25.099 13.8539 25.4096 13.7532 25.7471C13.6524 26.0846 13.6283 26.4403 13.6826 26.7883C13.7872 27.1575 13.9711 27.4993 14.2215 27.7901C14.4718 28.0808 14.7826 28.3134 15.1322 28.4716C15.1729 28.4931 15.2111 28.519 15.2463 28.5487C15.594 28.8046 16.0259 28.9187 16.4547 28.8682L18.6367 28.5129C19.7147 28.3357 20.8872 28.1434 22.1402 27.9435C22.2272 27.9287 22.3163 27.9313 22.4023 27.9512C22.4883 27.9711 22.5695 28.0078 22.6412 28.0592C22.7129 28.1106 22.7738 28.1758 22.8202 28.2509C22.8666 28.3259 22.8976 28.4095 22.9115 28.4966C22.9255 28.5838 22.922 28.6728 22.9013 28.7586C22.8806 28.8444 22.8431 28.9253 22.791 28.9965C22.7389 29.0678 22.6732 29.1279 22.5976 29.1736C22.5221 29.2193 22.4383 29.2496 22.351 29.2627C21.0991 29.4615 19.9288 29.6539 18.853 29.8299L16.6546 30.1885C16.5268 30.206 16.3979 30.2147 16.2689 30.2146Z" fill="#0055BA"/>
<path d="M25.5591 38.4334C24.9885 38.4396 24.4303 38.2671 23.9628 37.94C23.8187 37.8373 23.7213 37.6816 23.6919 37.5071C23.6625 37.3326 23.7036 37.1536 23.8061 37.0094C23.9086 36.8652 24.0641 36.7675 24.2385 36.7378C24.413 36.7082 24.5921 36.7489 24.7365 36.8512C24.9328 36.9746 25.1533 37.0544 25.3832 37.0853C25.613 37.1163 25.8468 37.0976 26.0687 37.0305C26.3776 36.951 26.6675 36.8108 26.9216 36.618C27.1757 36.4253 27.3889 36.1839 27.5488 35.908C27.9425 33.2032 28.0532 30.4649 27.8791 27.7372C27.8768 27.6495 27.8919 27.5623 27.9234 27.4804C27.9548 27.3986 28.0022 27.3238 28.0627 27.2603C28.1231 27.1968 28.1956 27.1458 28.2758 27.1104C28.356 27.0749 28.4424 27.0557 28.5301 27.0537C28.6183 27.0489 28.7067 27.0622 28.7896 27.0928C28.8725 27.1234 28.9483 27.1706 29.0123 27.2316C29.0764 27.2926 29.1272 27.366 29.1618 27.4473C29.1964 27.5286 29.2141 27.6162 29.2136 27.7046C29.3991 30.5626 29.2738 33.4323 28.8398 36.2633C28.829 36.3167 28.8114 36.3686 28.7876 36.4176C28.5477 36.8858 28.2111 37.2978 27.8001 37.6261C27.3891 37.9545 26.9131 38.1919 26.4034 38.3226C26.1279 38.3954 25.8441 38.4327 25.5591 38.4334Z" fill="#0055BA"/>
<path d="M22.3525 23.0441C22.3362 23.0441 22.321 23.0441 22.3058 23.043C22.1307 23.0311 21.9673 22.9506 21.8511 22.8189C21.735 22.6873 21.6754 22.5152 21.6853 22.34C21.6886 22.2356 21.6864 21.6934 21.6842 20.9403C21.6723 16.2567 21.669 14.8582 21.7918 14.3463L21.7896 14.3452C21.9742 13.6674 22.3413 13.0532 22.8511 12.5697C23.3608 12.0862 23.9935 11.752 24.6802 11.6035C26.3124 11.2884 27.6707 12.4707 28.6737 13.5433C29.1964 14.1149 29.2508 15.7775 29.1812 19.5363C29.1671 20.3394 29.153 21.0979 29.178 21.3196C29.1972 21.4956 29.1459 21.6721 29.0353 21.8104C28.9247 21.9486 28.7638 22.0375 28.5879 22.0574C28.4124 22.0741 28.2372 22.0219 28.0995 21.9118C27.9618 21.8017 27.8723 21.6423 27.85 21.4673C27.8174 21.1729 27.8272 20.5632 27.8468 19.5113C27.8718 18.141 27.9305 14.9332 27.6555 14.4007C26.9307 13.6368 25.9201 12.7174 24.928 12.9163C24.4882 13.017 24.084 13.2353 23.7587 13.5479C23.4333 13.8604 23.1989 14.2555 23.0806 14.6908C23.0763 14.7028 23.073 14.7158 23.0686 14.7278C23.0056 15.3733 23.0154 19.2516 23.0197 20.936C23.0219 21.7706 23.0219 22.3595 23.0176 22.4226C23.006 22.5911 22.931 22.749 22.8075 22.8644C22.6841 22.9798 22.5215 23.044 22.3525 23.0441Z" fill="#0055BA"/>
<path d="M24.1976 37.9577C24.0583 37.958 23.9225 37.9142 23.8096 37.8327L23.6075 37.6903C22.7676 37.2278 22.1213 36.4794 21.7862 35.581L21.7928 35.5789C21.6656 35.0181 21.67 33.6229 21.683 29.7358C21.6852 29.1381 21.6874 28.7132 21.6841 28.6295C21.6778 28.4529 21.7417 28.2809 21.8619 28.1512C21.982 28.0215 22.1486 27.9446 22.3252 27.9373C22.4127 27.933 22.5002 27.9461 22.5826 27.9759C22.6649 28.0056 22.7406 28.0515 22.8051 28.1107C22.8696 28.17 22.9217 28.2415 22.9583 28.321C22.995 28.4006 23.0154 28.4866 23.0185 28.5741C23.0218 28.6513 23.0207 29.1012 23.0185 29.7401C23.0142 31.092 23.0022 34.6259 23.0685 35.2137C23.074 35.2311 23.0794 35.2496 23.0837 35.2681C23.2054 35.7734 23.8553 36.2309 24.3769 36.5982L24.5877 36.7481C24.7026 36.8305 24.7883 36.9473 24.8326 37.0815C24.8768 37.2158 24.8773 37.3606 24.8339 37.4952C24.7905 37.6297 24.7055 37.747 24.5911 37.8301C24.4767 37.9132 24.3389 37.9579 24.1976 37.9576L24.1976 37.9577Z" fill="#0055BA"/>
<path d="M37.1752 22.4324C37.0424 22.4323 36.9126 22.3926 36.8025 22.3183C36.6145 22.1912 36.4254 22.0467 36.2331 21.8999C35.8355 21.535 35.3597 21.2659 34.8421 21.1132C34.4346 21.0795 31.5288 21.5815 30.1259 21.8119C29.3609 21.938 28.7665 22.0358 28.5915 22.0564C28.416 22.0766 28.2396 22.0264 28.101 21.9168C27.9624 21.8072 27.873 21.647 27.8523 21.4716C27.8315 21.2961 27.8813 21.1195 27.9905 20.9806C28.0998 20.8418 28.2596 20.7519 28.435 20.7307C28.6024 20.7111 29.174 20.6155 29.9086 20.4949C33.9423 19.8287 34.7704 19.7331 35.0866 19.8005C35.8149 19.9803 36.4876 20.3371 37.0448 20.8393C37.2154 20.9708 37.3828 21.0991 37.5501 21.2121C37.6686 21.2921 37.7583 21.4081 37.8059 21.5429C37.8536 21.6778 37.8566 21.8244 37.8146 21.9611C37.7726 22.0978 37.6878 22.2174 37.5727 22.3023C37.4576 22.3871 37.3182 22.4327 37.1752 22.4324Z" fill="#0055BA"/>
<path d="M8.4406 43.9641C8.27262 43.9643 8.11078 43.901 7.98745 43.787C6.41499 42.2104 5.50753 40.0905 5.45225 37.8646L5.51094 37.8635C5.45117 37.3321 5.45117 36.3736 5.45117 34.6404V17.285C5.58576 14.8837 6.44761 12.5801 7.92228 10.6801C9.49834 8.89267 11.6028 7.65373 13.9305 7.14301L13.9403 7.19842C14.4304 7.06259 15.3497 6.91589 17.071 6.64205L33.9668 3.94708C36.1542 3.66782 38.3632 4.26598 40.1108 5.61078C40.2452 5.72564 40.3285 5.8891 40.3426 6.06531C40.3566 6.24153 40.3002 6.41611 40.1856 6.55077C40.0711 6.68543 39.9079 6.76918 39.7317 6.78364C39.5555 6.7981 39.3808 6.7421 39.2458 6.62792C37.7919 5.53403 35.9705 5.04636 34.1645 5.26739C34.1677 5.26739 14.3651 8.42419 14.1565 8.45897C12.1409 8.91682 10.319 9.99364 8.94587 11.5386C7.66012 13.1959 6.9069 15.204 6.78555 17.298C6.78555 17.3002 6.78555 37.6363 6.78664 37.8493C6.83972 39.7082 7.59219 41.4785 8.89371 42.8068C8.99231 42.8979 9.06114 43.0166 9.0912 43.1474C9.12126 43.2782 9.11116 43.4151 9.06222 43.5401C9.01327 43.6651 8.92776 43.7724 8.81686 43.8481C8.70595 43.9237 8.57481 43.9641 8.44056 43.9641H8.4406Z" fill="#0055BA"/>
<path d="M12.4873 45.3788C11.5366 45.4608 10.5808 45.2953 9.71299 44.8985C9.0751 44.4334 8.37419 43.978 7.64395 43.5021C4.84139 41.6754 1.66938 39.6085 0.708746 36.5115C0.381651 35.7801 0.291459 33.0091 0.383827 19.8733C0.405563 16.8436 0.425123 13.9835 0.384915 13.6466C0.457682 11.633 1.07946 9.67761 2.18304 7.99178C3.28662 6.30596 4.83001 4.95386 6.64636 4.08165C9.51411 3.12972 28.0474 0.172852 31.0272 0.172852H31.0576C33.2961 0.485812 35.3163 2.03108 37.0984 3.39377C37.6668 3.82844 38.2134 4.2479 38.735 4.60216C39.9221 5.33713 40.9048 6.35963 41.592 7.57508C42.2792 8.79053 42.6488 10.1597 42.6666 11.5558C42.6579 11.8297 42.6633 13.1685 42.6698 15.081C42.722 30.1087 42.6274 33.5459 42.3623 34.4728L42.3753 34.4761C41.8553 36.4004 40.8171 38.1452 39.3739 39.5202C37.9306 40.8952 36.1377 41.8478 34.1905 42.2741C33.27 42.3263 30.9282 42.7457 28.217 43.2326C21.686 44.404 15.8897 45.3788 12.4873 45.3788ZM1.88888 35.8736C1.91945 35.9234 1.94321 35.9772 1.95954 36.0333C2.74194 38.7131 5.73358 40.6626 8.37314 42.3828C9.12403 42.8729 9.8445 43.3423 10.4759 43.8031C11.9657 44.7898 22.3848 42.9229 27.9812 41.9177C30.8511 41.4026 33.1168 40.9962 34.0383 40.9495C35.7215 40.5604 37.2669 39.7199 38.5083 38.5185C39.7498 37.3171 40.6403 35.8001 41.0843 34.1305C41.0963 34.087 41.1126 34.0447 41.1332 34.0045C41.3951 32.682 41.3527 20.3786 41.3343 15.0854C41.3277 13.1446 41.3234 11.7862 41.3321 11.5395C41.3076 10.3777 40.9948 9.24014 40.4218 8.22914C39.8488 7.21814 39.0335 6.36539 38.0492 5.74754C38.0346 5.73964 38.0205 5.73093 38.0068 5.72145C37.4591 5.3509 36.8843 4.91185 36.2866 4.45439C34.6349 3.19058 32.7614 1.75833 30.9586 1.50079H30.9412C28.2528 1.50079 9.77814 4.44896 7.13425 5.32159C5.57107 6.08245 4.24238 7.25134 3.28851 8.70481C2.33464 10.1583 1.79101 11.8424 1.71502 13.5792C1.75848 13.8781 1.74653 15.9493 1.71936 19.882C1.68242 25.0741 1.61504 34.6652 1.88888 35.8736ZM1.62696 35.628L1.62805 35.6291L1.62696 35.628ZM1.62479 35.6269L1.62587 35.628L1.62479 35.6269ZM1.62262 35.6258L1.62479 35.6269L1.62262 35.6258Z" fill="#0055BA"/>
</svg>
